<svg xmlns="http://www.w3.org/2000/svg" viewBox="0 0 50 50"><title>icon_pair_setting</title><g id="icon_pair_setting"><path d="M42.75,20.84c-.71-.08-1.5-.12-2.37-.21-.17,0-.25-.12-.33-.25a14.66,14.66,0,0,0-1.16-2.79.38.38,0,0,1,0-.42c.58-.67,1.08-1.25,1.54-1.79a2.43,2.43,0,0,0-.17-3.28L37.89,9.66a2.43,2.43,0,0,0-3.28-.17c-.54.46-1.16,1-1.79,1.54a.37.37,0,0,1-.42,0,16.41,16.41,0,0,0-2.79-1.16.36.36,0,0,1-.25-.33c0-.87-.12-1.66-.21-2.37A2.43,2.43,0,0,0,26.75,5H23.25a2.4,2.4,0,0,0-2.41,2.2c-.08.71-.12,1.5-.21,2.37,0,.17-.12.25-.25.33a14.66,14.66,0,0,0-2.79,1.16.38.38,0,0,1-.42,0c-.62-.58-1.25-1.08-1.79-1.54a2.43,2.43,0,0,0-3.28.17L9.66,12.11a2.43,2.43,0,0,0-.17,3.28c.46.54,1,1.16,1.54,1.79a.37.37,0,0,1,0,.42,16.41,16.41,0,0,0-1.16,2.79.36.36,0,0,1-.33.25c-.87,0-1.66.12-2.37.21A2.43,2.43,0,0,0,5,23.25v3.49a2.4,2.4,0,0,0,2.2,2.41c.71.08,1.5.12,2.37.21.17,0,.25.12.33.25a14.66,14.66,0,0,0,1.16,2.79.38.38,0,0,1,0,.42c-.58.67-1.08,1.25-1.54,1.79a2.43,2.43,0,0,0,.17,3.28l2.45,2.45a2.43,2.43,0,0,0,3.28.17c.54-.46,1.16-1,1.79-1.54a.37.37,0,0,1,.42,0,16.41,16.41,0,0,0,2.79,1.16.36.36,0,0,1,.25.33c0,.87.12,1.66.21,2.37A2.43,2.43,0,0,0,23.25,45h3.49a2.4,2.4,0,0,0,2.41-2.2c.08-.71.12-1.5.21-2.37,0-.17.12-.25.25-.33a14.66,14.66,0,0,0,2.79-1.16.38.38,0,0,1,.42,0c.62.58,1.25,1.08,1.79,1.54a2.43,2.43,0,0,0,3.28-.17l2.45-2.45a2.43,2.43,0,0,0,.17-3.28c-.46-.54-1-1.16-1.54-1.79a.37.37,0,0,1,0-.42,16.41,16.41,0,0,0,1.16-2.79.36.36,0,0,1,.33-.25c.87,0,1.66-.12,2.37-.21A2.43,2.43,0,0,0,45,26.75V23.25A2.47,2.47,0,0,0,42.75,20.84Zm.08,5.9a.32.32,0,0,1-.29.33c-.71.08-1.46.12-2.29.17A2.44,2.44,0,0,0,38.1,29a13.42,13.42,0,0,1-1,2.41,2.47,2.47,0,0,0,.33,2.74l1.5,1.75a.33.33,0,0,1,0,.46L36.43,38.8a.38.38,0,0,1-.46,0l-1.75-1.5A2.47,2.47,0,0,0,31.49,37a12.28,12.28,0,0,1-2.41,1,2.5,2.5,0,0,0-1.75,2.16c0,.83-.12,1.62-.17,2.29a.32.32,0,0,1-.33.29H23.34a.32.32,0,0,1-.33-.29c-.08-.71-.12-1.46-.17-2.29A2.44,2.44,0,0,0,21.09,38a13.42,13.42,0,0,1-2.41-1,2.31,2.31,0,0,0-1.16-.29,2.58,2.58,0,0,0-1.62.58l-1.75,1.5a.33.33,0,0,1-.46,0l-2.45-2.45a.38.38,0,0,1,0-.46l1.5-1.75A2.47,2.47,0,0,0,13,31.36,12.28,12.28,0,0,1,12,29,2.5,2.5,0,0,0,9.86,27.2c-.83,0-1.62-.12-2.29-.17a.32.32,0,0,1-.29-.33V23.21a.32.32,0,0,1,.29-.33c.71-.08,1.46-.12,2.29-.17A2.44,2.44,0,0,0,12,21a13.42,13.42,0,0,1,1-2.41,2.47,2.47,0,0,0-.33-2.74c-.54-.62-1.08-1.25-1.5-1.75a.33.33,0,0,1,0-.46l2.45-2.45a.38.38,0,0,1,.46,0l1.75,1.5a2.47,2.47,0,0,0,2.74.33,12.28,12.28,0,0,1,2.41-1A2.5,2.5,0,0,0,22.8,9.78c0-.83.12-1.62.17-2.29a.32.32,0,0,1,.33-.29h3.49a.32.32,0,0,1,.33.29c.08.71.12,1.46.17,2.29A2.44,2.44,0,0,0,29,11.94a13.42,13.42,0,0,1,2.41,1,2.47,2.47,0,0,0,2.74-.33l1.75-1.5a.33.33,0,0,1,.46,0l2.45,2.45a.38.38,0,0,1,0,.46l-1.5,1.75a2.47,2.47,0,0,0-.33,2.74,12.28,12.28,0,0,1,1,2.41,2.5,2.5,0,0,0,2.16,1.75c.83,0,1.62.12,2.29.17a.32.32,0,0,1,.29.33v3.53Z"/><path d="M25,18.8A6.2,6.2,0,1,0,31.2,25,6.21,6.21,0,0,0,25,18.8Zm0,10.31A4.12,4.12,0,1,1,29.12,25,4.13,4.13,0,0,1,25,29.12Z"/></g></svg>