<svg xmlns="http://www.w3.org/2000/svg" viewBox="0 0 50 50"><defs><style>.cls-1{fill:#fff;}</style></defs><title>icon_ft_private</title><g id="icon_ft_queation"><path class="cls-1" d="M31.21,12.41v1.43A17.8,17.8,0,0,1,25,48.29a17.77,17.77,0,0,1-6.38-34.35V12.46a19.15,19.15,0,1,0,25.5,18.08A19.35,19.35,0,0,0,31.21,12.41Z"/><path class="cls-1" d="M30.5,25.7a5.55,5.55,0,0,0-11.1-.11c0,.16-.05,1.43-.05,1.43s-.05.33-.16.38l-.27.33a.62.62,0,0,0-.16.44,4.58,4.58,0,0,0,.05.66h0a3.86,3.86,0,0,0,.77,1.87,6.88,6.88,0,0,1,1.1.77A1.8,1.8,0,0,1,21,32.63s.22,2.25-.82,3.19a1.41,1.41,0,0,1-.66.38L13.9,38.84h0l-1.1.49a.82.82,0,0,0-.44.77v.05h0v.16a.2.2,0,0,0,.05.16c.05.05.11.22.22.38h0a12.49,12.49,0,0,0,2.09,2h.05a15.9,15.9,0,0,0,9.89,3.46h.49a15.69,15.69,0,0,0,9.89-3.46h.05a15.4,15.4,0,0,0,2.09-2h0a3.15,3.15,0,0,0,.22-.38c0-.05.05-.11.05-.16v-.16h0V40.1a1,1,0,0,0-.44-.77l-1.1-.49h0L30.33,36.2a4.81,4.81,0,0,1-.66-.38c-1-.93-.82-3.19-.82-3.19a1.92,1.92,0,0,1,.33-1.15,6.88,6.88,0,0,1,1.1-.77A3.86,3.86,0,0,0,31,28.84h0a5.17,5.17,0,0,0,.05-.66c0-.22-.05-.38-.16-.44l-.27-.33A1,1,0,0,1,30.5,27"/><path class="cls-1" d="M28.52,16.58a1.3,1.3,0,0,0,1.32-1.32V10.15a1.23,1.23,0,0,0-1.21-1.26V7.4a3.74,3.74,0,1,0-7.47,0V8.89a1.31,1.31,0,0,0-1.21,1.26v5.11a1.3,1.3,0,0,0,1.32,1.32ZM25.93,13.5a1.09,1.09,0,0,1-1,1.1,1.06,1.06,0,0,1-1-1.1V11.86a1.09,1.09,0,0,1,1-1.1,1.06,1.06,0,0,1,1,1.1Zm.38-6.16V8.78H23.46V7.35h0a2.28,2.28,0,0,1,.11-.88c0-.05,0-.05.05-.11s0-.11.05-.11.05-.16.11-.22V6a1.47,1.47,0,0,1,1.15-.71A1.52,1.52,0,0,1,26.1,6V6c.05.05.05.16.11.22s0,.11.05.11,0,.05.05.11a4.69,4.69,0,0,0,0,.88Z"/></g></svg>