<svg xmlns="http://www.w3.org/2000/svg" viewBox="0 0 50 50"><defs><style>.cls-1{fill:#ff7578;}</style></defs><title>icon_report_travel2</title><g id="icon_report_travel"><path class="cls-1" d="M31.91,14.4V2.5H18.09V14.4a4.13,4.13,0,0,0-3.92,4.12V40.33a4.13,4.13,0,0,0,2.65,3.85V45.6a1.9,1.9,0,0,0,1.9,1.9h0a1.9,1.9,0,0,0,1.9-1.9V44.46h8.73V45.6a1.9,1.9,0,0,0,1.9,1.9h0a1.9,1.9,0,0,0,1.9-1.9V44.18a4.13,4.13,0,0,0,2.65-3.85V18.52A4.13,4.13,0,0,0,31.91,14.4ZM19.56,4.53H30.44v9.86H19.56Zm.2,41.07a1,1,0,0,1-1,1h0a1,1,0,0,1-1-1V44.41a4.14,4.14,0,0,0,.6,0h1.46V45.6Zm12.55,0a1,1,0,0,1-1,1h0a1,1,0,0,1-1-1V44.46H31.7a4.14,4.14,0,0,0,.6,0V45.6Zm2.06-5.27A2.66,2.66,0,0,1,31.7,43H18.3a2.66,2.66,0,0,1-2.66-2.66V18.52a2.66,2.66,0,0,1,2.66-2.66H31.7a2.66,2.66,0,0,1,2.66,2.66V40.33Z"/><path class="cls-1" d="M20.15,18.39H19a1.76,1.76,0,0,0-1.76,1.76.44.44,0,0,0,.88,0,.88.88,0,0,1,.88-.88h1.19a.88.88,0,0,1,.88.88V40.59a.44.44,0,0,0,.88,0V20.15A1.76,1.76,0,0,0,20.15,18.39Z"/><path class="cls-1" d="M31,18.39H29.85a1.76,1.76,0,0,0-1.76,1.76V40.59a.44.44,0,0,0,.88,0V20.15a.88.88,0,0,1,.88-.88H31a.88.88,0,0,1,.88.88.44.44,0,1,0,.88,0A1.76,1.76,0,0,0,31,18.39Z"/></g></svg>