<svg xmlns="http://www.w3.org/2000/svg" viewBox="0 0 50 50"><title>icon_pairlist_heart</title><g id="icon_pairlist_heart"><path d="M21.68,37.3,6.54,29.52h0A9.8,9.8,0,0,1,1,20.82H1a9.47,9.47,0,0,1,1.08-4.37h0a9.54,9.54,0,0,1,8.49-5.16h0A9.47,9.47,0,0,1,14.2,12h0a9.55,9.55,0,0,1,8.11-4.49h0a9.52,9.52,0,0,1,4.34,1h0a9.68,9.68,0,0,1,2.31,1.64h0l-1.18,1.23a8,8,0,0,0-1.9-1.35h0a7.8,7.8,0,0,0-3.56-.86h0a7.84,7.84,0,0,0-7,4.28h0l-.39.76-.76-.39a7.8,7.8,0,0,0-3.6-.88h0a7.84,7.84,0,0,0-7,4.24h0a7.76,7.76,0,0,0-.88,3.58h0A8.08,8.08,0,0,0,7.32,28h0L21.7,35.4h0L29.1,21h0a8.92,8.92,0,0,0,1-3.82h0l1.71,0a10.56,10.56,0,0,1-1.19,4.56h0L22.83,36.94h0l-.39.76-.76-.39Z"/><path d="M26.65,41.7l-2.48-5.23h0l1.54-.73,2.11,4.46h0l14.61-6.92h0A8.06,8.06,0,0,0,47.29,26h0a7.8,7.8,0,0,0-.77-3.36h0a7.85,7.85,0,0,0-7.08-4.47h0a7.83,7.83,0,0,0-3.37.77h0l-.78.37-.37-.78A7.84,7.84,0,0,0,27.82,14h0a7.77,7.77,0,0,0-3.33.75h0a7.68,7.68,0,0,0-4.46,7h0a8.84,8.84,0,0,0,.88,3.79h0c.7,1.51,1.43,3,2.15,4.54h0l-1.55.73c-.71-1.51-1.44-3-2.15-4.54h0a10.51,10.51,0,0,1-1-4.51h0a9.39,9.39,0,0,1,5.44-8.57h0a9.48,9.48,0,0,1,4.06-.91h0a9.56,9.56,0,0,1,8.27,4.76h0a9.46,9.46,0,0,1,3.35-.61h0a9.56,9.56,0,0,1,8.63,5.44h0A9.53,9.53,0,0,1,49,26h0a9.77,9.77,0,0,1-5.82,8.81h0L27.79,42.11h0l-.77.37-.37-.77Zm-2.48-5.24h0Z"/></g></svg>