<svg xmlns="http://www.w3.org/2000/svg" viewBox="0 0 50 50"><title>icon_mission_people</title><g id="icon_mission_people"><path d="M22.35,34.91V46H20.93v-.28q0-4.56,0-9.11c0-.21-.06-.27-.27-.27a5.8,5.8,0,0,1-1.07-.05,2.85,2.85,0,0,1-2.36-2.7c0-.07,0-.13,0-.2q0-6.35,0-12.7a2.83,2.83,0,0,1,1.85-2.73,3.06,3.06,0,0,1,1-.2q4.89,0,9.78,0a2.88,2.88,0,0,1,2.87,2.78c0,.21,0,.41,0,.62,0,4,0,8,0,12a3.56,3.56,0,0,1-.1,1.18,2.89,2.89,0,0,1-2.69,2H29V46H27.61V34.91h2.31a1.52,1.52,0,0,0,1.52-1.48c0-.05,0-.1,0-.15q0-6.26,0-12.53a1.52,1.52,0,0,0-1.1-1.57,1.84,1.84,0,0,0-.5-.07H20.27a1.53,1.53,0,0,0-1.61,1.6q0,6.3,0,12.59a1.53,1.53,0,0,0,1.6,1.61Z"/><path d="M15.64,22v1.4H9.42A1.19,1.19,0,0,0,8.09,24.7q0,5.24,0,10.48A1.2,1.2,0,0,0,9.42,36.5H11.2l0,0V46H9.84v-.28q0-3.74,0-7.48c0-.3,0-.31-.31-.3A2.6,2.6,0,0,1,7.31,37a2.42,2.42,0,0,1-.58-1.58c0-3.64,0-7.28,0-10.92A2.55,2.55,0,0,1,9.21,22c2.11,0,4.21,0,6.32,0Z"/><path d="M40.16,46H38.75V36.5h1.94a1.17,1.17,0,0,0,1.22-1.22q0-5.32,0-10.63a1.18,1.18,0,0,0-1.25-1.25H34.37V22h6.27a2.58,2.58,0,0,1,2.65,2.64q0,5.34,0,10.68a2.57,2.57,0,0,1-2.63,2.64c-.49,0-.49,0-.49.5q0,3.64,0,7.29Z"/><path d="M25,15.2a5.6,5.6,0,1,1,5.6-5.58A5.59,5.59,0,0,1,25,15.2Zm0-1.37a4.23,4.23,0,0,0,0-8.45,4.29,4.29,0,0,0-4.27,4.22A4.24,4.24,0,0,0,25,13.82Z"/><path d="M8.52,15.19a4.86,4.86,0,1,1,4.84,4.87A4.84,4.84,0,0,1,8.52,15.19Zm4.86,3.44a3.43,3.43,0,1,0-3.43-3.44A3.42,3.42,0,0,0,13.37,18.63Z"/><path d="M31.77,15.2a4.86,4.86,0,1,1,4.84,4.87A4.84,4.84,0,0,1,31.77,15.2Zm4.79,3.43a3.43,3.43,0,1,0-3.41-3.46A3.43,3.43,0,0,0,36.56,18.63Z"/><path d="M16.87,46H15.45V36.51h2v1.41h-.62Z"/><path d="M33.14,46V37.93h-.62V36.51h2V46Z"/></g></svg>