<svg xmlns="http://www.w3.org/2000/svg" viewBox="0 0 50 50"><title>icon_meetchat_cup</title><g id="icon_meetchat_cup"><path d="M33.44,44.69h-7V30.49a13.7,13.7,0,0,0,8.19-3.74c5.3-5.12,5.66-18.24.65-23.78l-.42-.46H15.17L14.75,3c-5,5.55-4.65,18.66.65,23.78a13.68,13.68,0,0,0,8.19,3.74v14.2h-7a1.41,1.41,0,0,0,0,2.81H33.44a1.41,1.41,0,1,0,0-2.81Zm-17-39.37H33.54c3.61,4.73,3.2,15.45-.9,19.41a11.27,11.27,0,0,1-15.28,0C13.26,20.76,12.84,10,16.45,5.31Zm1.88,18.4c-2-2-3-6-2.93-10H34.59c.12,3.92-.88,8-2.93,10C28.26,27,21.74,27,18.34,23.71Z"/></g></svg>