<svg xmlns="http://www.w3.org/2000/svg" viewBox="0 0 50 50"><title>icon_pair_03</title><g id="icon_pair_03"><g id="Your_Icon" data-name="Your Icon"><path d="M28.48,37.56h5.87l-1.18-2.62h-5V32.85h4.71V31.28H28.18V29.7h4.71V28.13H1.47V29.7H5.14v1.57H1.47v1.57H5.14v2.09H1.19L0,37.56H5.2L4.2,42a.28.28,0,0,0,.23.34h.06a.31.31,0,0,0,.3-.25l.86-3.91,1.23,2.7a.31.31,0,0,0,.28.18l.13,0a.31.31,0,0,0,.15-.41l-1.32-2.9a.28.28,0,0,0-.33-.13l0-.08h22l0,.08a.29.29,0,0,0-.33.15l-1.32,2.89a.3.3,0,0,0,.15.4.29.29,0,0,0,.12,0,.3.3,0,0,0,.28-.18L28,38.22l.87,3.9a.31.31,0,0,0,.3.24h.06a.27.27,0,0,0,.23-.32ZM5.66,29.7h22v1.57h-22Zm0,3.14h22v2.09h-22Z"/><path d="M50,23.08c0-4.2-1.93-7.68-4.52-8.4C44.51,10.56,42,7.62,39,7.62c-3.84,0-7,4.8-7,10.73C32,23.86,35,28.4,38.13,29V41.75H39.7V29s.5-.1.75-.19a4.82,4.82,0,0,0,3.44,2.72V41.75h1V31.58C48.08,31.16,50,27.51,50,23.08Z"/></g></g></svg>