<svg xmlns="http://www.w3.org/2000/svg" viewBox="0 0 50 50"><defs><style>.cls-1{fill:#fff;}</style></defs><title>icon_notice3</title><g id="icon_notice"><path class="cls-1" d="M19.74,40.78H7.47a.83.83,0,0,1-.72-.3.76.76,0,0,1,.08-1c.6-.65,1.22-1.29,1.79-2a14.07,14.07,0,0,0,3.16-7A17.58,17.58,0,0,0,12,28.08c0-2.35,0-4.7,0-7.06a12.73,12.73,0,0,1,4.08-9.28A12.62,12.62,0,0,1,21.75,8.6c.16,0,.2-.1.19-.26A3.07,3.07,0,0,1,28,7.56a3.16,3.16,0,0,1,.06.77c0,.17,0,.23.2.27A12.9,12.9,0,0,1,36.1,14.4,12.53,12.53,0,0,1,38,21c0,2.47,0,4.94,0,7.4a14.32,14.32,0,0,0,3.81,9.62c.42.47.85.92,1.28,1.38a.78.78,0,0,1-.59,1.36H30.26a5.39,5.39,0,0,1-10.52,0Zm21.12-1.54-.55-.63c-.17-.2-.34-.41-.5-.62a16.05,16.05,0,0,1-3.31-9.85q0-3.41,0-6.81A12.11,12.11,0,0,0,36.28,19,11.49,11.49,0,0,0,23.41,9.84a11.49,11.49,0,0,0-9.89,11.39c0,2.3,0,4.61,0,6.91a17.8,17.8,0,0,1-.17,2.4,15.92,15.92,0,0,1-4,8.53l-.14.17Zm-19.5,1.55a3.78,3.78,0,0,0,3.89,2.67c1.57-.09,3.26-1.43,3.38-2.67ZM26.52,8.23a1.42,1.42,0,0,0-.67-1.33,1.55,1.55,0,0,0-1.71,0,1.41,1.41,0,0,0-.65,1.31Z"/></g></svg>