<?xml version="1.0" encoding="utf-8"?>
<!-- Generator: Adobe Illustrator 21.1.0, SVG Export Plug-In . SVG Version: 6.00 Build 0)  -->
<svg version="1.1" id="圖層_1" xmlns="http://www.w3.org/2000/svg" xmlns:xlink="http://www.w3.org/1999/xlink" x="0px" y="0px"
	 viewBox="0 0 50 50" style="enable-background:new 0 0 50 50;" xml:space="preserve">
<style type="text/css">
	.st0{fill:#FF8789;}
</style>
<title>icon_menu_present</title>
<g id="icon_menu_present">
	<path class="st0" d="M6,23.5c0-1.8,0-3.6,0-5.4c0-0.1,0.1-0.2,0.1-0.4c0.3-1,1.3-1.7,2.3-1.7H18c-0.4-0.1-0.8-0.2-1.2-0.3
		c-0.9-0.2-1.7-1-2-1.9c-0.3-1-0.5-2-0.6-3c-0.1-1,0.1-2,0.5-2.9c0.3-0.8,1-1.5,1.9-1.8c0.2,0,0.3-0.1,0.5-0.1h0.7L18,6
		c1.4,0.3,2.6,1,3.6,2c1.5,1.6,2.7,3.6,3.3,5.7l0.1,0.2l0,0v-0.1c0.7-2.1,1.8-4.1,3.4-5.7c0.8-0.9,1.9-1.5,3-1.8
		C31.6,6.1,31.9,6,32.2,6h0.7L33,6c0.8,0.1,1.6,0.6,2,1.3c0.4,0.7,0.7,1.5,0.7,2.4c0.1,1.1,0,2.2-0.3,3.2c-0.1,0.5-0.3,1.1-0.6,1.5
		c-0.4,0.6-1.1,1.1-1.8,1.3c-0.4,0.1-0.8,0.2-1.1,0.3h9.7c1.3,0,2.4,1,2.4,2.3c0,0,0,0.1,0,0.1c0,1.7,0,3.3,0,5c0,1.2-0.9,2.1-2,2.3
		c-0.2,0-0.4,0-0.6,0c0,0.3,0.1,0.6,0.1,0.8c0,5,0,10.1,0,15.1c0,0.2,0,0.3,0,0.5c-0.2,1.2-1.2,2-2.4,2H11c-0.3,0-0.6,0-0.8-0.1
		c-1-0.3-1.7-1.3-1.6-2.3c0-4.6,0-9.2,0-13.7c-0.1-0.7,0-1.5,0.1-2.2H8.4c-1.1,0-2-0.7-2.3-1.8C6,23.7,6,23.6,6,23.5z M20.6,42.4
		V25.6H11c-0.4-0.1-0.8,0.3-0.9,0.7c0,0.1,0,0.1,0,0.2c0,5,0,10,0,15.1c-0.1,0.4,0.3,0.8,0.7,0.9c0.1,0,0.1,0,0.2,0H20.6z
		 M29.4,42.4H39c0.4,0,0.8-0.3,0.9-0.7c0,0,0-0.1,0-0.1c0-5,0-10.1,0-15.1c0.1-0.4-0.3-0.8-0.7-0.9c-0.1,0-0.1,0-0.2,0h-9.6
		L29.4,42.4z M22.2,17.6v24.8h5.6V17.6H22.2z M29.4,17.6V24h12.2c0.4,0,0.8-0.3,0.8-0.7c0,0,0-0.1,0-0.1c0-1.6,0-3.2,0-4.8
		c0-0.5-0.3-0.9-0.8-0.9c0,0-0.1,0-0.1,0c-4,0-8,0-11.9,0L29.4,17.6z M20.6,24v-6.5H8.4c-0.4,0-0.8,0.3-0.8,0.7c0,0,0,0.1,0,0.1
		c0,1.6,0,3.2,0,4.8C7.5,23.6,7.8,24,8.3,24c0.1,0,0.1,0,0.2,0L20.6,24L20.6,24z M26.2,15.5L26.2,15.5c0.3-0.1,0.6-0.3,0.8-0.4
		c0.7-0.4,1.4-0.6,2.2-0.6c0.8-0.1,1.5-0.1,2.3-0.2c0.5,0,1-0.1,1.5-0.3c0.3-0.1,0.6-0.4,0.7-0.8c0.4-1,0.5-2,0.5-3.1
		c0-0.6-0.1-1.3-0.4-1.8c-0.2-0.6-0.9-1-1.5-0.8c-1.1,0.2-2,0.7-2.8,1.5c-1.3,1.4-2.3,3.1-2.9,5C26.5,14.5,26.3,15,26.2,15.5
		L26.2,15.5z M23.8,15.5C23.8,15.5,23.8,15.4,23.8,15.5c-0.1-0.4-0.1-0.6-0.2-0.9c-0.6-2.1-1.6-4-3.1-5.6c-0.7-0.8-1.7-1.3-2.8-1.4
		c-0.6-0.2-1.2,0.2-1.5,0.8c-0.2,0.4-0.3,0.8-0.3,1.2c-0.1,1.3,0,2.6,0.4,3.8c0.1,0.4,0.4,0.6,0.7,0.8c0.4,0.1,0.7,0.2,1.1,0.3
		c0.9,0.1,1.7,0.1,2.6,0.2c0.7,0,1.5,0.2,2.1,0.6C23.2,15.3,23.5,15.4,23.8,15.5L23.8,15.5z"/>
</g>
</svg>
