<svg xmlns="http://www.w3.org/2000/svg" xmlns:xlink="http://www.w3.org/1999/xlink" version="1.1" x="0px" y="0px" viewBox="0 0 24 24" enable-background="new 0 0 24 24" xml:space="preserve"><path d="M12,0.5C5.7,0.5,0.5,5.7,0.5,12S5.7,23.5,12,23.5c1.5,0,3-0.3,4.4-0.9c0.3-0.1,0.4-0.4,0.3-0.7c-0.1-0.3-0.4-0.4-0.7-0.3  c-1.3,0.5-2.6,0.8-4,0.8C6.2,22.5,1.5,17.8,1.5,12S6.2,1.5,12,1.5S22.5,6.2,22.5,12c0,4.9-2.9,7.3-3,7.4c-0.2,0.2-0.4,0.4-0.6,0.4  c-0.4,0-0.7-0.3-0.8-0.4l-0.9-1c0.8-0.8,0.6-1.5,0.6-1.6L16,14.1c-0.3-0.5-1.1-0.7-1.6-0.3l-1.2,0.8c-0.2-0.1-0.7-0.4-1.8-1.9  c-1.2-1.8-1.1-2.5-1.1-2.6l1.2-0.8C12,9,12.2,8.2,11.8,7.7l-1.6-2.4l-0.1-0.1c-0.1,0-0.4-0.3-0.9-0.3S8.1,5.1,7.6,5.5L7.5,5.7  C6.4,7.3,6.2,9.2,6.2,9.3v0.1v0.1c0.5,2.2,1.6,4,2.3,5l0.1,0.2l0.1,0.1c0.8,1.2,2,2.7,3.7,3.9l0.1,0.1c0,0,1.1,0.4,2.5,0.4  c0.5,0,0.9,0,1.4-0.1h0.1l0.9,1.1c0.1,0.1,0.7,0.7,1.6,0.7c0.3,0,0.9-0.1,1.3-0.6c0.1-0.1,3.3-2.7,3.3-8.1C23.5,5.7,18.3,0.5,12,0.5  z M12.9,17.8c-1.6-1.1-2.6-2.4-3.4-3.6l-0.2-0.3c-0.6-1-1.7-2.6-2.2-4.6c0-0.3,0.3-1.8,1.1-3C9,5.8,9.3,5.9,9.5,5.9L11,8.3  c0,0.1,0,0.2,0,0.2L9.9,9.2C9.7,9.3,9.5,9.4,9.4,9.7c-0.3,0.7,0.1,1.9,1.2,3.5s2,2.4,2.7,2.4c0.3,0,0.5-0.1,0.6-0.3l1.1-0.7  c0,0,0.1,0,0.1,0.1l1.6,2.3c0,0.2-0.2,0.6-0.8,1c-0.3,0.1-0.7,0.1-1.1,0.1C14,18.1,13.1,17.9,12.9,17.8z"></path></svg>