<svg xmlns="http://www.w3.org/2000/svg" viewBox="0 0 50 50"><title>icon_report_lovestyle</title><g id="icon_report_lovestyle"><path d="M35.94,8.49a2.75,2.75,0,1,1,2.75-2.75A2.75,2.75,0,0,1,35.94,8.49Zm0-4.35a1.61,1.61,0,1,0,1.61,1.6A1.61,1.61,0,0,0,35.94,4.14Z"/><path d="M29,11.34a2.75,2.75,0,1,1,2.75-2.75A2.75,2.75,0,0,1,29,11.34ZM29,7a1.61,1.61,0,1,0,1.61,1.6A1.61,1.61,0,0,0,29,7Z"/><path d="M44.15,46.53H36.82L39.74,44A45.59,45.59,0,0,1,37.4,21.08l-.6-.93a5.32,5.32,0,0,1-3.47,1.46,3.47,3.47,0,0,1-1.81-.47l-1.07-.7,1.24-.33a6.79,6.79,0,0,0,3.5-2.62c-1.55-2.72-1.73-3.69-1.73-4.18a4.91,4.91,0,0,1,9.81,0c0,1-.25,3.32-.73,6.93,2.49,2,2.22,3.88,1.53,5.14-1.7,3.13-.12,15.85.64,20.49l.11.66h-.67Zm-4.24-1.14h3.57c-.49-3.22-2.42-16.86-.41-20.55.27-.49,1.08-2-1.48-3.88l-.27-.2,0-.34c.5-3.7.77-6.15.77-7.1a3.76,3.76,0,0,0-7.53,0c0,.33.23,1.28,1.77,3.93l.19.32-.22.3a9.92,9.92,0,0,1-2.62,2.58,5,5,0,0,0,2.8-1.58l.51-.51.38.61c.35.56.71,1.12,1.07,1.67l.11.18,0,.21A44.56,44.56,0,0,0,41,44l.15.38Z"/><path d="M21.2,47c-5.25,0-14.3-.61-15.9-4.73C4.39,39.9,8.69,35.5,14,30.42a32.59,32.59,0,0,0,3.25-3.35,6.11,6.11,0,0,1,6.56-6c-.1-1.88-.19-4.09-.19-5.2,0-2.55,1.55-4.62,3.46-4.62s3.47,2.07,3.47,4.62a5.6,5.6,0,0,1-.72,2.27A4,4,0,0,0,32.06,20l1.14.28-.92.72a2.74,2.74,0,0,1-1.62.52h0a3.4,3.4,0,0,1-2.28-1c-.36.57-.77,1.18-1.22,1.83a6.07,6.07,0,0,1,2.24,4.71c0,.5,0,1.33.08,2.39.41,10.14.16,16.54-2.33,17.13A37.89,37.89,0,0,1,21.2,47Zm2.1-24.81a5,5,0,0,0-4.94,4.95c0,.58-.68,1.29-3.6,4.1C11.58,34.3,5.65,40,6.37,41.86c1,2.5,6.52,4,14.83,4a37.24,37.24,0,0,0,5.67-.32c2.07-.49,1.6-12.14,1.45-16,0-1.07-.08-1.91-.08-2.43A4.94,4.94,0,0,0,26.05,23l-.49-.33.34-.48c.74-1.05,1.38-2,1.89-2.84l.41-.67.51.6a3.06,3.06,0,0,0,1.54,1.07,7.1,7.1,0,0,1-1.6-1.91l-.17-.27.15-.28a5.07,5.07,0,0,0,.74-2c0-1.89-1.06-3.48-2.32-3.48S24.72,14,24.72,15.87c0,1.23.12,3.85.23,5.83l0,.73-.72-.14A5,5,0,0,0,23.3,22.19Z"/></g></svg>