<svg xmlns="http://www.w3.org/2000/svg" viewBox="0 0 50 50"><title>icon_pair_05</title><g id="icon_pair_05"><path d="M49.2,44H47.9V41.95a.8.8,0,0,0-.8-.79H44.87V25.49a.72.72,0,0,0-.71-.71H41.23a.72.72,0,0,0-.72.71V41.16H34.69V25.63a.72.72,0,0,0-.72-.72H31.05a.72.72,0,0,0-.71.72V41.15H19.66V25.49a.72.72,0,0,0-.72-.71H16a.72.72,0,0,0-.72.71V41.16H9.48V25.63a.72.72,0,0,0-.72-.72H5.85a.72.72,0,0,0-.72.72V41.15H2.9a.79.79,0,0,0-.8.79V44H.8a.8.8,0,0,0-.8.8v2.62a.8.8,0,0,0,.8.8H49.2a.8.8,0,0,0,.8-.8V44.82A.8.8,0,0,0,49.2,44Z"/><path d="M26.88,15.28v1a.63.63,0,0,1-.64.62H24.12a.63.63,0,0,1-.64-.62v-.86a6.36,6.36,0,0,1-3.42-1.62,1,1,0,0,1,0-1.39l.77-.74a.88.88,0,0,1,.64-.29h.09a1,1,0,0,1,.71.3,3.65,3.65,0,0,0,2.73,1c2.17,0,2.17-.78,2.17-1.11s0-.63-1.12-.75l-1.73-.15c-3.56-.29-4.09-2.41-4.09-3.65a3.78,3.78,0,0,1,3.24-3.69V2.38a.63.63,0,0,1,.63-.62h2.12a.62.62,0,0,1,.63.62v.91A6.79,6.79,0,0,1,29.3,4.34a1,1,0,0,1,.4.71,1,1,0,0,1-.29.76l-.74.72a1,1,0,0,1-1.3.1A4,4,0,0,0,25,5.95c-1.69,0-1.69.7-1.69,1s0,.63,1.24.75l1.69.15c1,.1,4,.39,4,3.65C30.25,13.41,29,14.78,26.88,15.28Z"/><path d="M48.83,19.49,31.19,9.74a5.44,5.44,0,0,1,.28,1.75,4.89,4.89,0,0,1-3.38,4.69v.06a1.84,1.84,0,0,1-1.85,1.83H24.12a1.84,1.84,0,0,1-1.84-1.71,7.39,7.39,0,0,1-3-1.7,2.17,2.17,0,0,1,0-3.15l.76-.74a2.42,2.42,0,0,1,.49-.37,4.08,4.08,0,0,1-.47-.5,4.25,4.25,0,0,1-.39-.57L1.08,19.54a1.52,1.52,0,0,0,.73,2.85H48.19a1.52,1.52,0,0,0,.65-2.89Z"/></g></svg>