<svg xmlns="http://www.w3.org/2000/svg" viewBox="0 0 50 50"><defs><style>.cls-1{fill:#fff;}</style></defs><title>icon_artic_leslv3</title><g id="icon_artic-2" data-name="icon_artic"><path class="cls-1" d="M34,6.34a12,12,0,0,0-8.52,3.53l-.49.49-.5-.49a12.05,12.05,0,1,0-17,17L25,44.45,42.54,26.91A12.05,12.05,0,0,0,34,6.34ZM8.87,25.5A10.06,10.06,0,0,1,23.1,11.27l3.18,3.18L22.54,18.2l4.39,5.27L22.26,30l.09.08,7.22-6.58-4.33-5.18,3.86-3.86-2.69-2.69.49-.49A10.06,10.06,0,1,1,41.13,25.5h0L25,41.64Z"/></g></svg>