<svg xmlns="http://www.w3.org/2000/svg" viewBox="0 0 50 50"><title>icon_heart_to</title><g id="icon_heart"><path d="M49.1,24.25l-5.93-2.58a.67.67,0,0,0-.94.61v1.91H26a.67.67,0,1,0,0,1.34H42.23v1.92a.67.67,0,0,0,.67.67.66.66,0,0,0,.27-.06l5.93-2.58a.67.67,0,0,0,0-1.23Zm-5.53,2.18V23.3l3.59,1.56ZM4.38,25.26,1.7,28.8A.67.67,0,1,1,.64,28L3,24.86.64,21.72a.67.67,0,1,1,1.07-.81l2.68,3.54,0,0a.64.64,0,0,1,.06.12.62.62,0,0,1,0,.12.67.67,0,0,1,0,.13.62.62,0,0,1,0,.13.6.6,0,0,1,0,.12.63.63,0,0,1-.06.12ZM35.6,26.69h1.67a75.26,75.26,0,0,1-8.61,9.39c-1.21,1.18-2.36,2.29-3.44,3.41a.67.67,0,0,1-.48.2h0a.67.67,0,0,1-.48-.22c-1.25-1.37-2.63-2.74-4.09-4.18a67.88,67.88,0,0,1-8.37-9.39l-.25-.37H6.85L4.38,28.8A.67.67,0,1,1,3.31,28l2.37-3.14L3.31,21.72a.67.67,0,1,1,1.07-.81L6.87,24.2h3.8a10,10,0,0,1-1.56-5.94,8.36,8.36,0,0,1,8-7.91,7.91,7.91,0,0,1,7.66,3.4,8.48,8.48,0,0,1,6.2-3.4,9.08,9.08,0,0,1,7.35,2.74,8.3,8.3,0,0,1,2.2,6.29,10.16,10.16,0,0,1-1,3.66H38a9.27,9.27,0,0,0,1.13-3.74A7,7,0,0,0,37.33,14a7.74,7.74,0,0,0-6.27-2.32,7.11,7.11,0,0,0-5.74,3.67.64.64,0,0,1-.6.35.67.67,0,0,1-.59-.37A6.42,6.42,0,0,0,18,11.65q-.38,0-.79,0a7.06,7.06,0,0,0-6.75,6.67c-.21,2.94,1.26,5.08,2.44,6.8a67,67,0,0,0,8.21,9.19c1.29,1.28,2.51,2.49,3.65,3.71.95-1,1.94-1.93,3-2.94A80.78,80.78,0,0,0,35.6,26.69Z"/></g></svg>