<svg xmlns="http://www.w3.org/2000/svg" viewBox="0 0 50 50"><defs><style>.cls-1{fill:#fff;}.cls-2{fill:#ff888a;}.cls-3{fill:#970000;}</style></defs><title>icon_heart_3</title><g id="icon_heart_3"><circle class="cls-1" cx="25" cy="25" r="23.56"/><path class="cls-2" d="M29.84,18.34a7.57,7.57,0,0,0-11.53,2.49,7.43,7.43,0,0,0-6.51-4.18,6.87,6.87,0,0,0-5,1.85,6.61,6.61,0,0,0-2.12,4.86c0,3.64,2.27,7.07,7.12,10.85a53.86,53.86,0,0,0,6.51,4.37,53.7,53.7,0,0,0,6.51-4.37c4.85-3.78,7.12-7.21,7.12-10.85A7,7,0,0,0,29.84,18.34Z"/><path class="cls-3" d="M43.22,18.34a7.57,7.57,0,0,0-11.53,2.49,7.43,7.43,0,0,0-6.51-4.18,6.87,6.87,0,0,0-5,1.85,6.61,6.61,0,0,0-2.12,4.86c0,3.64,2.27,7.07,7.12,10.85a53.86,53.86,0,0,0,6.51,4.37,53.7,53.7,0,0,0,6.51-4.37c4.85-3.78,7.12-7.21,7.12-10.85A7,7,0,0,0,43.22,18.34Z"/></g></svg>