<svg xmlns="http://www.w3.org/2000/svg" viewBox="0 0 50 50"><defs><style>.cls-1{fill:#fff;}</style></defs><title>icon_ft_uselaw</title><g id="icon_ft_uselaw"><path class="cls-1" d="M14.18,15.73H4V13.08a5.09,5.09,0,1,1,10.18,0ZM5.35,14.37h7.47V13.08a3.73,3.73,0,1,0-7.47,0Z"/><path class="cls-1" d="M20.54,45.34a5.09,5.09,0,0,1-5.09-5.09V13.08a6.28,6.28,0,0,0-1.4-4L13.16,8h22a5.09,5.09,0,0,1,5.09,5.09V37.41h-14a.64.64,0,0,0-.64.64v2.21A5.09,5.09,0,0,1,20.54,45.34Zm-4.69-36a7.64,7.64,0,0,1,1,3.73V40.25a3.73,3.73,0,0,0,7.47,0V38a2,2,0,0,1,2-2H38.92v-23a3.74,3.74,0,0,0-3.73-3.73Z"/><path class="cls-1" d="M40.91,45.34H24.62l.89-1.1a6.36,6.36,0,0,0,1.4-4V38.69H46v1.57A5.09,5.09,0,0,1,40.91,45.34ZM27.3,44H40.91a3.74,3.74,0,0,0,3.73-3.73V40H28.26v.21A7.76,7.76,0,0,1,27.3,44Z"/><rect class="cls-1" x="19.95" y="16.49" width="15.84" height="1.81"/><rect class="cls-1" x="19.95" y="20.73" width="15.84" height="1.81"/><rect class="cls-1" x="19.95" y="24.97" width="15.84" height="1.81"/><rect class="cls-1" x="19.95" y="29.22" width="15.84" height="1.81"/></g></svg>