<svg xmlns="http://www.w3.org/2000/svg" viewBox="0 0 50 50"><title>icon_report_pairs</title><g id="icon_menu_pair"><path d="M38.46,38.81v.25q0,3,0,6a.9.9,0,0,1-.73,1,1.34,1.34,0,0,1-.27,0H28.66a.91.91,0,0,1-1-1q0-3,0-6v-.26H25A.9.9,0,0,1,24,37.69l1.82-9.36a2.42,2.42,0,0,0,0-.46q0-3.82,0-7.64a4.75,4.75,0,0,1,1-3,4.32,4.32,0,0,1,3.58-1.77c1.73,0,3.46,0,5.2,0A4.58,4.58,0,0,1,40.13,19a5.75,5.75,0,0,1,.13,1.23c0,2.34,0,4.67,0,7a10.85,10.85,0,0,0,.22,2.14c.48,2.51.95,5,1.42,7.53,0,.24.1.48.17.71a.9.9,0,0,1-.88,1.14H38.46ZM26,37h2.52a1.19,1.19,0,0,1,.27,0,.89.89,0,0,1,.69.94q0,3,0,6v.23h7.19v-.25q0-3,0-5.93a.91.91,0,0,1,1-1h2.39a1.1,1.1,0,0,0,0-.12c-.45-2.39-.9-4.79-1.34-7.18a9.71,9.71,0,0,1-.23-1.63c0-2.61,0-5.23,0-7.84a3.53,3.53,0,0,0-.16-1,2.74,2.74,0,0,0-2.72-2H30.4a2.38,2.38,0,0,0-1.49.49,3,3,0,0,0-1.24,2.49q0,3.94,0,7.87a1.53,1.53,0,0,1,0,.29l-1.49,7.68Z"/><path d="M22.29,25.8c0,2,0,4,0,5.93a1.13,1.13,0,0,1-.37.88c-.43.41-.85.85-1.28,1.26a.49.49,0,0,0-.16.39q0,5.36,0,10.71a1.3,1.3,0,0,1-.11.54.82.82,0,0,1-.78.48h-9a.88.88,0,0,1-.88-.79,2.35,2.35,0,0,1,0-.29q0-5.34,0-10.68a.44.44,0,0,0-.14-.35L8.22,32.56a1,1,0,0,1-.32-.77c0-3.87,0-7.74,0-11.61a4.74,4.74,0,0,1,2.9-4.44,4.2,4.2,0,0,1,1.61-.31h5.27A4.4,4.4,0,0,1,21.76,18a4.67,4.67,0,0,1,.53,2.29C22.28,22.09,22.29,23.95,22.29,25.8ZM11.5,44.19h7.19v-.26q0-5.08,0-10.16a1.09,1.09,0,0,1,.35-.83c.46-.44.9-.89,1.35-1.35a.37.37,0,0,0,.1-.23q0-5.63,0-11.25a2.88,2.88,0,0,0-.7-1.88,2.49,2.49,0,0,0-1.95-1h-5.5a2.27,2.27,0,0,0-.62.09,3,3,0,0,0-2,2.85q0,5.58,0,11.16a.42.42,0,0,0,.11.26c.43.44.86.88,1.31,1.31a1.16,1.16,0,0,1,.37.91q0,5.06,0,10.12Z"/><path d="M9.7,9.4a5.39,5.39,0,1,1,5.4,5.39A5.41,5.41,0,0,1,9.7,9.4Zm1.8,0a3.59,3.59,0,1,0,3.6-3.6A3.6,3.6,0,0,0,11.5,9.39Z"/><path d="M27.68,9.39a5.39,5.39,0,1,1,5.37,5.4A5.41,5.41,0,0,1,27.68,9.39Zm1.8,0a3.59,3.59,0,1,0,3.58-3.6A3.6,3.6,0,0,0,29.48,9.4Z"/></g></svg>