<svg xmlns="http://www.w3.org/2000/svg" viewBox="0 0 50 50"><defs><style>.cls-1{fill:#ff7578;}</style></defs><title>icon_artic_togth2</title><g id="icon_artic-2" data-name="icon_artic"><path class="cls-1" d="M17.44,17.87a6.64,6.64,0,1,0-6.64-6.64A6.64,6.64,0,0,0,17.44,17.87Zm0-11.64a5,5,0,1,1-5,5A5,5,0,0,1,17.44,6.23Z"/><path class="cls-1" d="M43,22a4.21,4.21,0,0,0-4.15-3.18H30.82a4.49,4.49,0,0,0-3.74,2.25,5.3,5.3,0,0,0-4.38-2.26H12.17c-3.31,0-4.84,3.09-4.92,3.25-.82,1.88.1,4.94.25,5.41l3.54,14c1,3.81,5.71,3.92,6.24,3.92h0a6.92,6.92,0,0,0,6.22-3.23l0-.09,3.6-14.3c.08-.29.14-.56.21-.82l2.38,9.42c.76,3.05,4.53,3.14,5,3.14h0A5.49,5.49,0,0,0,39.68,37l2.8-11C43.19,23.28,43.12,22.35,43,22ZM25.6,27.38,22,41.48a5.4,5.4,0,0,1-4.74,2.28l0,.82v-.82c-.41,0-4-.08-4.65-2.67l-3.55-14,0-.05c-.24-.74-.82-3.12-.33-4.23a4.18,4.18,0,0,1,3.42-2.29H22.82a3.59,3.59,0,0,1,3.49,2.77A13.36,13.36,0,0,1,25.6,27.38Zm15.3-1.86L38.19,36.27a3.94,3.94,0,0,1-3.44,1.63v0c-.12,0-2.89,0-3.36-1.9L28.66,25.28l0-.05a6,6,0,0,1-.26-3.09,3,3,0,0,1,2.44-1.64H39a2.55,2.55,0,0,1,2.47,2,10.77,10.77,0,0,1-.54,3.06Z"/><path class="cls-1" d="M34.85,18.49a5.27,5.27,0,1,0-5.27-5.27h0A5.28,5.28,0,0,0,34.85,18.49Zm0-8.89a3.62,3.62,0,1,1-3.62,3.62A3.62,3.62,0,0,1,34.85,9.6Z"/></g></svg>