<svg xmlns="http://www.w3.org/2000/svg" viewBox="0 0 50 50"><defs><style>.cls-1{fill:#09bab4;}</style></defs><title>icon_ft_mail2</title><g id="icon_ft_mail"><path class="cls-1" d="M41.8,12.34H8.2A3.71,3.71,0,0,0,4.5,16V37.29A3.71,3.71,0,0,0,8.2,41H41.8a3.71,3.71,0,0,0,3.7-3.7V16A3.71,3.71,0,0,0,41.8,12.34ZM44,16V37.29a2.19,2.19,0,0,1-.26,1L31.3,26.67,43.76,15A2.19,2.19,0,0,1,44,16ZM41.8,13.82a2.21,2.21,0,0,1,.89.19l-16,15a2.5,2.5,0,0,1-3.32,0l-16-15a2.21,2.21,0,0,1,.89-.19ZM6.24,38.3a2.19,2.19,0,0,1-.26-1V16a2.19,2.19,0,0,1,.26-1L18.7,26.67Zm2,1.21a2.21,2.21,0,0,1-.89-.19L19.79,27.68,22.33,30a4,4,0,0,0,5.35,0l2.54-2.37L42.68,39.32a2.21,2.21,0,0,1-.89.19Z"/></g></svg>