<svg xmlns="http://www.w3.org/2000/svg" viewBox="0 0 50 50"><title>icon_menu_present</title><g id="icon_menu_present"><path d="M6,23.51q0-2.72,0-5.45c0-.12.05-.24.08-.35A2.35,2.35,0,0,1,8.41,16H18c-.39-.09-.8-.16-1.2-.28a2.85,2.85,0,0,1-2-1.88,10.6,10.6,0,0,1-.58-3,6.67,6.67,0,0,1,.47-2.91,2.82,2.82,0,0,1,1.87-1.75c.17,0,.34-.07.51-.11h.7L18,6A6.48,6.48,0,0,1,21.6,8a14.72,14.72,0,0,1,3.33,5.7l.06.16,0,0,0-.12A14.92,14.92,0,0,1,28.35,8a6.75,6.75,0,0,1,3-1.85c.28-.09.58-.13.88-.19h.7L33,6a2.64,2.64,0,0,1,2,1.32,5.42,5.42,0,0,1,.71,2.37,9.54,9.54,0,0,1-.29,3.22,5.23,5.23,0,0,1-.57,1.53,3,3,0,0,1-1.81,1.25c-.37.1-.75.17-1.13.26h9.68A2.34,2.34,0,0,1,44,18.3q0,2.49,0,5a2.34,2.34,0,0,1-2,2.29c-.21,0-.43,0-.62,0a7.94,7.94,0,0,1,.09.84q0,7.56,0,15.12a2.59,2.59,0,0,1,0,.49A2.35,2.35,0,0,1,39.06,44H11a2.85,2.85,0,0,1-.82-.12,2.34,2.34,0,0,1-1.64-2.32q0-6.86,0-13.73a8.18,8.18,0,0,1,.12-2.23H8.35a2.36,2.36,0,0,1-2.27-1.75C6,23.74,6,23.62,6,23.51Zm14.59,18.9V25.6H11a.79.79,0,0,0-.88.88q0,7.53,0,15.05a.79.79,0,0,0,.88.88h9.59Zm8.81,0H39a.79.79,0,0,0,.86-.86q0-7.54,0-15.08A.78.78,0,0,0,39,25.6H29.4ZM22.2,17.56V42.4H27.8V17.56Zm7.21,0V24H41.59a.77.77,0,0,0,.82-.82c0-1.58,0-3.17,0-4.75a.85.85,0,0,0-.9-.9c-4,0-7.95,0-11.92,0ZM20.59,24V17.55H8.41a.77.77,0,0,0-.83.83q0,2.37,0,4.75a.79.79,0,0,0,.89.88H20.59Zm5.58-8.52,0,0c.28-.13.57-.25.84-.4a5.2,5.2,0,0,1,2.21-.58c.77-.05,1.54-.1,2.3-.16A4.25,4.25,0,0,0,33,14.08a1.26,1.26,0,0,0,.72-.77,8.67,8.67,0,0,0,.5-3.07,4.45,4.45,0,0,0-.39-1.84A1.25,1.25,0,0,0,32.3,7.6a4.81,4.81,0,0,0-2.76,1.49,13.11,13.11,0,0,0-2.92,5C26.46,14.54,26.32,15,26.17,15.5Zm-2.38,0a.36.36,0,0,0,0-.08c-.07-.27-.14-.54-.22-.81a13.5,13.5,0,0,0-3.12-5.58A4.8,4.8,0,0,0,17.68,7.6a1.25,1.25,0,0,0-1.47.77,3.69,3.69,0,0,0-.34,1.16,8.24,8.24,0,0,0,.44,3.77,1.15,1.15,0,0,0,.72.77,5.22,5.22,0,0,0,1.13.28c.86.09,1.72.13,2.59.2a5.13,5.13,0,0,1,2.14.56C23.18,15.27,23.48,15.39,23.79,15.54Z"/></g></svg>