<svg xmlns="http://www.w3.org/2000/svg" viewBox="0 0 50 50"><defs><style>.cls-1{fill:#ff7578;}</style></defs><title>icon_artic_all2</title><g id="icon_artic-2" data-name="icon_artic"><path class="cls-1" d="M39.44,10.6a20.36,20.36,0,1,0,0,28.8A20.37,20.37,0,0,0,39.44,10.6ZM28,42.4l-2.3.3V36.3a35.65,35.65,0,0,0,7.3-1,23.94,23.94,0,0,1-1.3,2.8A10.94,10.94,0,0,1,28,42.4Zm-9.8-4.3a23.94,23.94,0,0,1-1.3-2.8,36.62,36.62,0,0,0,7.3,1v6.4a9.08,9.08,0,0,1-2.3-.3A12.83,12.83,0,0,1,18.24,38.1ZM22,7.6l2.3-.3v6.4a35.65,35.65,0,0,0-7.3,1,23.94,23.94,0,0,1,1.3-2.8A10.94,10.94,0,0,1,22,7.6Zm9.8,4.3a23.94,23.94,0,0,1,1.3,2.8,36.62,36.62,0,0,0-7.3-1V7.4a9.08,9.08,0,0,1,2.3.3A11.61,11.61,0,0,1,31.84,11.9Zm10.8,12.5h-6.4a27.63,27.63,0,0,0-1-7.5A23.94,23.94,0,0,1,38,18.2a11.62,11.62,0,0,1,4.3,3.8A9.86,9.86,0,0,1,42.64,24.4Zm-7.9,0h-9V15.2a26.56,26.56,0,0,1,7.9,1.2A30.87,30.87,0,0,1,34.74,24.4Zm-10.4-9.2v9.2h-9a27.22,27.22,0,0,1,1.2-8A33.41,33.41,0,0,1,24.34,15.2Zm-10.5,9.2H7.34a9.86,9.86,0,0,1,.3-2.4,11.62,11.62,0,0,1,4.3-3.8,23.94,23.94,0,0,1,2.8-1.3A32,32,0,0,0,13.84,24.4Zm-6.5,1.5h6.4a34.7,34.7,0,0,0,1,7.2,23.94,23.94,0,0,1-2.8-1.3A11.62,11.62,0,0,1,7.64,28Zm7.9,0h9v8.9a26.56,26.56,0,0,1-7.9-1.2A39.71,39.71,0,0,1,15.24,25.9Zm10.5,8.9V25.9h9a25.27,25.27,0,0,1-1.2,7.7A33.41,33.41,0,0,1,25.74,34.8Zm10.5-8.9h6.4a7.61,7.61,0,0,1-.3,2.1A11.62,11.62,0,0,1,38,31.8a23.94,23.94,0,0,1-2.8,1.3A29.75,29.75,0,0,0,36.24,25.9Zm5.3-7.1a16.47,16.47,0,0,0-2.7-1.9,20,20,0,0,0-4-1.7,20,20,0,0,0-1.7-4,13.09,13.09,0,0,0-1.9-2.7A17.74,17.74,0,0,1,41.54,18.8ZM18.84,8.5a16.47,16.47,0,0,0-1.9,2.7,20,20,0,0,0-1.7,4,20,20,0,0,0-4,1.7,13.09,13.09,0,0,0-2.7,1.9A17.47,17.47,0,0,1,18.84,8.5ZM8.54,31.2a16.47,16.47,0,0,0,2.7,1.9,20,20,0,0,0,4,1.7,20,20,0,0,0,1.7,4,13.09,13.09,0,0,0,1.9,2.7A17.47,17.47,0,0,1,8.54,31.2Zm22.7,10.3a16.47,16.47,0,0,0,1.9-2.7,20,20,0,0,0,1.7-4,20,20,0,0,0,4-1.7,13.09,13.09,0,0,0,2.7-1.9A17.74,17.74,0,0,1,31.24,41.5Z"/></g></svg>