<svg xmlns="http://www.w3.org/2000/svg" viewBox="0 0 50 100"><defs><style>.cls-1{fill:#fff;}</style></defs><title>icon_menu_myfile</title><g id="icon_menu_myfile"><path d="M25,44.58c-14.83,0-18.12-2-18.78-2.66L6,41.7l0-.31a25.25,25.25,0,0,1,.75-5.11A5.27,5.27,0,0,1,9,33.34a39.59,39.59,0,0,1,4.47-1.81,59.92,59.92,0,0,0,5.65-2.28A4.17,4.17,0,0,0,20.49,26a3.23,3.23,0,0,0-.54-.71h0l0,0a13.34,13.34,0,0,1-2.73-5c-.71-2.65-1.25-8,1.2-11.32a7.89,7.89,0,0,1,6.46-3h.29A7.88,7.88,0,0,1,31.6,9c2.45,3.3,1.91,8.67,1.2,11.32a13.36,13.36,0,0,1-2.74,5,2.79,2.79,0,0,0-.55.7c0,.66.61,2.79,1.42,3.25a59.31,59.31,0,0,0,5.62,2.27,39.91,39.91,0,0,1,4.5,1.82,5.27,5.27,0,0,1,2.18,2.95A25.17,25.17,0,0,1,44,41.36l0,.32-.23.22C43.08,42.52,39.71,44.58,25,44.58ZM7.37,41.12c.87.53,4.6,2.13,17.63,2.13s16.72-1.6,17.63-2.16A21.93,21.93,0,0,0,42,36.73a4,4,0,0,0-1.67-2.29c-.34-.23-2.68-1.1-4.23-1.68a57.15,57.15,0,0,1-5.81-2.36c-1.42-.8-2.12-3.51-2.09-4.44,0-.51.29-.9.9-1.56A11.88,11.88,0,0,0,31.52,20c.65-2.42,1.17-7.29-1-10.19A6.63,6.63,0,0,0,25.1,7.34h-.19a6.65,6.65,0,0,0-5.45,2.44c-2.15,2.9-1.63,7.77-1,10.19a11.86,11.86,0,0,0,2.43,4.43h0l0,0a3.63,3.63,0,0,1,.81,1.16c.5,1.41-.79,4.12-2,4.82a57.61,57.61,0,0,1-5.81,2.36c-1.57.59-3.89,1.45-4.23,1.68A4,4,0,0,0,8,36.73,22,22,0,0,0,7.37,41.12Z"/><path class="cls-1" d="M25,94.58c-14.83,0-18.12-2-18.78-2.66L6,91.7l0-.31a25.25,25.25,0,0,1,.75-5.11A5.27,5.27,0,0,1,9,83.34a39.59,39.59,0,0,1,4.47-1.81,59.92,59.92,0,0,0,5.65-2.28A4.17,4.17,0,0,0,20.49,76a3.23,3.23,0,0,0-.54-.71h0l0,0a13.34,13.34,0,0,1-2.73-5c-.71-2.65-1.25-8,1.2-11.32a7.89,7.89,0,0,1,6.46-3h.29a7.88,7.88,0,0,1,6.46,3c2.45,3.3,1.91,8.67,1.2,11.32a13.36,13.36,0,0,1-2.74,5,2.79,2.79,0,0,0-.55.7c0,.66.61,2.79,1.42,3.25a59.31,59.31,0,0,0,5.62,2.27,39.91,39.91,0,0,1,4.5,1.82,5.27,5.27,0,0,1,2.18,2.95A25.17,25.17,0,0,1,44,91.36l0,.32-.23.22C43.08,92.52,39.71,94.58,25,94.58ZM7.37,91.12c.87.53,4.6,2.13,17.63,2.13s16.72-1.6,17.63-2.16A21.93,21.93,0,0,0,42,86.73a4,4,0,0,0-1.67-2.29c-.34-.23-2.68-1.1-4.23-1.68a57.15,57.15,0,0,1-5.81-2.36c-1.42-.8-2.12-3.51-2.09-4.44,0-.51.29-.9.9-1.56A11.88,11.88,0,0,0,31.52,70c.65-2.42,1.17-7.29-1-10.19a6.63,6.63,0,0,0-5.43-2.44h-.19a6.65,6.65,0,0,0-5.45,2.44c-2.15,2.9-1.63,7.77-1,10.19a11.86,11.86,0,0,0,2.43,4.43h0l0,0a3.63,3.63,0,0,1,.81,1.16c.5,1.41-.79,4.12-2,4.82a57.61,57.61,0,0,1-5.81,2.36c-1.57.59-3.89,1.45-4.23,1.68A4,4,0,0,0,8,86.73,22,22,0,0,0,7.37,91.12Z"/></g></svg>