<svg xmlns="http://www.w3.org/2000/svg" viewBox="0 0 50 50"><defs><style>.cls-1{fill:#ff7578;}</style></defs><title>icon_heart_from2</title><g id="icon_heart"><path class="cls-1" d="M.5,24.87a.67.67,0,0,0,.4.61l5.93,2.58A.67.67,0,0,0,7.47,28a.67.67,0,0,0,.3-.56V25.53H24a.67.67,0,1,0,0-1.34H7.77V22.28a.67.67,0,0,0-.94-.61L.9,24.25A.67.67,0,0,0,.5,24.87Zm2.35,0L6.43,23.3v3.12Zm42.75.35a.63.63,0,0,1-.06-.12.6.6,0,0,1,0-.12.62.62,0,0,1,0-.13.67.67,0,0,1,0-.13.62.62,0,0,1,0-.12.64.64,0,0,1,.06-.12l0,0,2.68-3.54a.67.67,0,1,1,1.07.81L47,24.86,49.36,28a.67.67,0,0,1-1.07.81l-2.68-3.54ZM22.27,35.12c1,1,2,2,3,2.94,1.14-1.22,2.37-2.43,3.65-3.71a67,67,0,0,0,8.21-9.19c1.18-1.72,2.65-3.85,2.44-6.8a7.06,7.06,0,0,0-6.75-6.67q-.41,0-.79,0a6.42,6.42,0,0,0-6.15,3.68.67.67,0,0,1-.59.37.64.64,0,0,1-.6-.35,7.11,7.11,0,0,0-5.74-3.67A7.74,7.74,0,0,0,12.67,14a7,7,0,0,0-1.84,5.29A9.27,9.27,0,0,0,12,23H10.47a10.16,10.16,0,0,1-1-3.66,8.3,8.3,0,0,1,2.2-6.29A9.08,9.08,0,0,1,19,10.34a8.48,8.48,0,0,1,6.2,3.4,7.91,7.91,0,0,1,7.66-3.4,8.36,8.36,0,0,1,8,7.91,10,10,0,0,1-1.56,5.94h3.8l2.49-3.29a.67.67,0,1,1,1.07.81l-2.37,3.14L46.69,28a.67.67,0,0,1-1.07.81l-2.47-3.26H38.47l-.25.37a67.88,67.88,0,0,1-8.37,9.39c-1.46,1.44-2.84,2.81-4.09,4.18a.67.67,0,0,1-.48.22h0a.67.67,0,0,1-.48-.2c-1.09-1.12-2.23-2.23-3.44-3.41a75.26,75.26,0,0,1-8.61-9.39H14.4A80.78,80.78,0,0,0,22.27,35.12Z"/></g></svg>