<svg width="400" height="400" xmlns="http://www.w3.org/2000/svg">
 <!-- Created with Method Draw - http://github.com/duopixel/Method-Draw/ -->

 <g>
  <title>background</title>
  <rect fill="none" id="canvas_background" height="402" width="402" y="-1" x="-1"/>
  <g display="none" overflow="visible" y="0" x="0" height="100%" width="100%" id="canvasGrid">
   <rect fill="url(#gridpattern)" stroke-width="0" y="0" x="0" height="100%" width="100%"/>
  </g>
 </g>
 <g>
  <title>Layer 1</title>
  <path stroke="null" transform="rotate(90 199.888916015625,199.88890075683597) " id="svg_4" d="m146.431117,47.275558l-99.15556,99.15556l-30.177779,-30.177779c-6.897778,-7.328889 -11.208889,-17.244445 -11.208889,-27.591112c0,-10.346667 4.311111,-21.124445 11.208889,-28.453334l43.111113,-43.111113c7.328889,-6.897778 18.106667,-11.208889 28.453334,-11.208889c10.777778,0 20.262223,4.311111 27.591112,11.208889l30.177779,30.177779zm247.457788,346.613347l-37.075557,-132.351116c-0.862222,-3.448889 -3.017778,-6.466667 -5.173334,-8.622223c-181.928896,-181.928896 -181.928896,-181.928896 -191.413341,-191.413341l-27.591112,27.160001l206.50223,206.933342l12.071112,-12.071112l15.088889,54.320002l-28.453334,28.453334l-54.751113,-14.657778l40.093335,-40.524446l-206.50223,-206.933342l-55.182224,56.475558l191.413341,190.98223c2.155556,2.155556 4.742222,4.311111 8.622223,5.173334l132.351116,37.075557z"/>
  <g id="svg_5"/>
 </g>
</svg>