<svg xmlns="http://www.w3.org/2000/svg" viewBox="0 0 50 50"><title>icon_meetchat_toeat</title><g id="icon_message"><path d="M3.88,9.74l9,10.66h0l-9-10.66a1.13,1.13,0,0,1,1.51.32L14,19.48l2.27-1.95L8.42,7.47A1.08,1.08,0,0,1,8.37,6l9,10.66h0L8.37,6a1.13,1.13,0,0,1,1.51.32l8.6,9.41,2.27-1.95L12.91,3.68a1.08,1.08,0,0,1-.05-1.51l9,10.66h0l-9-10.66a1.13,1.13,0,0,1,1.51.32L23,11.9h0a7.44,7.44,0,0,1,1,8.17A1.4,1.4,0,0,0,24,21.64L43.69,43.71a2.39,2.39,0,0,1-.22,3.35l-.43.38a2.34,2.34,0,0,1-3.35-.32l-18.44-23h0a1.31,1.31,0,0,0-1.57-.32h0a.2.2,0,0,0-.16.05h0a7.35,7.35,0,0,1-7.63-2.33l-.05-.05L4,11.42A1.23,1.23,0,0,1,3.88,9.74ZM10,43.55A2.41,2.41,0,0,0,10.26,47l.43.38A2.34,2.34,0,0,0,14.05,47L25.46,32.94,22.7,29.48ZM40.18,21.26c5.25-6.17,7.63-12.71,5.35-14.71h0c-1.3-1-4,1.41-4.92,2.49l-9,10.49-1.35,1.62h-.05L28.49,23l4,4.49A32.08,32.08,0,0,0,40.18,21.26Z"/></g></svg>