<svg xmlns="http://www.w3.org/2000/svg" viewBox="0 0 50 50"><title>icon_heart_double</title><g id="icon_heart"><path d="M21.82,37.79,7.31,30.33h0A9.39,9.39,0,0,1,2,22H2a9.08,9.08,0,0,1,1-4.18H3a9.14,9.14,0,0,1,8.13-4.95h0a9.08,9.08,0,0,1,3.48.69h0a9.15,9.15,0,0,1,7.77-4.3h0a9.12,9.12,0,0,1,4.16,1h0a9.28,9.28,0,0,1,2.21,1.57h0L27.65,13a7.68,7.68,0,0,0-1.82-1.3h0a7.47,7.47,0,0,0-3.41-.82h0a7.52,7.52,0,0,0-6.7,4.1h0l-.38.73-.73-.38a7.48,7.48,0,0,0-3.45-.84h0a7.52,7.52,0,0,0-6.68,4.07h0A7.44,7.44,0,0,0,3.64,22h0a7.75,7.75,0,0,0,4.42,6.88h0L21.84,36h0l7.08-13.79h0a8.55,8.55,0,0,0,1-3.66h0l1.64,0a10.12,10.12,0,0,1-1.14,4.37h0L22.92,37.44h0l-.37.73-.73-.37Z"/><path d="M26.59,42l-2.37-5h0l1.48-.7,2,4.28h0l14-6.63h0a7.72,7.72,0,0,0,4.64-7h0a7.47,7.47,0,0,0-.74-3.22h0a7.52,7.52,0,0,0-6.79-4.28h0a7.5,7.5,0,0,0-3.23.74h0l-.74.36-.35-.75a7.51,7.51,0,0,0-6.81-4.32h0a7.45,7.45,0,0,0-3.19.72h0a7.36,7.36,0,0,0-4.28,6.73h0a8.47,8.47,0,0,0,.85,3.63h0c.67,1.45,1.37,2.89,2.06,4.35h0l-1.48.7c-.68-1.45-1.38-2.89-2.06-4.35h0a10.07,10.07,0,0,1-1-4.32h0a9,9,0,0,1,5.21-8.22h0a9.09,9.09,0,0,1,3.89-.88h0a9.16,9.16,0,0,1,7.92,4.56h0a9.06,9.06,0,0,1,3.21-.59h0A9.16,9.16,0,0,1,47.1,23h0A9.13,9.13,0,0,1,48,27h0a9.36,9.36,0,0,1-5.58,8.45h0l-14.74,7h0l-.74.35L26.59,42Zm-2.37-5h0Z"/></g></svg>