<?xml version="1.0" encoding="utf-8"?>
<!-- Generator: Adobe Illustrator 20.1.0, SVG Export Plug-In . SVG Version: 6.00 Build 0)  -->
<svg version="1.1" id="圖層_1" xmlns="http://www.w3.org/2000/svg" xmlns:xlink="http://www.w3.org/1999/xlink" x="0px" y="0px"
	 viewBox="0 0 420 950" style="enable-background:new 0 0 420 950;" xml:space="preserve">
<style type="text/css">
	.st0{fill:#FC5B62;}
</style>
<g>
	<g>
		<g>
			<path class="st0" d="M302.7,127.6c0,2.8-0.1,5.6-0.3,8.3c-0.1,1.4-0.3,2.7-0.4,4.1c0.4-3.5-0.2,1-0.2,1.4
				c-0.9,5.3-2.2,10.5-3.8,15.7c-0.8,2.5-1.7,5-2.8,7.5c1.1-2.7,0,0-0.3,0.6c-0.5,1-0.9,2-1.4,3c-2.5,5.1-5.5,9.9-8.8,14.6
				c-0.5,0.7-1,1.4-1.5,2.1c2-2.7-0.6,0.7-0.9,1c-1.7,2-3.4,3.9-5.2,5.8s-3.7,3.7-5.6,5.4c-0.6,0.6-1.3,1.2-2,1.7
				c-0.4,0.4-4.7,3.7-2,1.7c-4,3-8.2,5.8-12.6,8.2c-2.1,1.2-4.2,2.3-6.4,3.3c-0.4,0.2-4.4,1.9-1.2,0.6c-1.6,0.7-3.3,1.3-5,1.9
				c-4.6,1.6-9.4,3-14.2,4c-1.3,0.3-2.7,0.5-4,0.7c-0.4,0.1-4.9,0.6-1.4,0.2c-2.8,0.3-5.5,0.5-8.3,0.6c-5.6,0.2-11.1-0.1-16.7-0.6
				c3.5,0.4-1-0.2-1.4-0.2c-0.9-0.1-1.8-0.3-2.7-0.5c-3.1-0.6-6.1-1.3-9.2-2.2c-2.6-0.7-5.1-1.6-7.6-2.5c-0.8-0.3-1.6-0.6-2.5-0.9
				c-4-1.5,2.6,1.3-1.3-0.6c-5.1-2.5-10.1-5.1-14.9-8.3c-1.8-1.2-3.6-2.5-5.3-3.8c2.7,2-0.7-0.6-1-0.9c-1-0.8-2-1.7-3-2.6
				c-3.9-3.5-7.5-7.2-10.8-11.2c-0.3-0.3-2.9-3.7-0.9-1c-0.8-1-1.6-2.1-2.3-3.2c-1.2-1.8-2.4-3.6-3.6-5.5c-1.4-2.2-2.7-4.5-3.9-6.9
				c-0.6-1.2-1.2-2.3-1.7-3.5c-0.4-0.8-0.7-1.6-1.1-2.4c0.6,1.6,0.6,1.5,0-0.1c-1.7-4.6-3.3-9.2-4.5-14c-0.6-2.6-1.2-5.3-1.6-7.9
				c-0.1-0.4-0.6-4.9-0.2-1.4c-0.1-1.4-0.3-2.7-0.4-4.1c-0.4-5.6-0.4-11.1,0-16.7c0.1-0.9,0.2-1.8,0.2-2.7c0.3-4.5-0.6,3,0.2-1.4
				c0.5-3.1,1.1-6.2,1.9-9.3c1.2-4.8,2.7-9.4,4.5-14c1.5-4-1.3,2.6,0.6-1.3c0.6-1.2,1.1-2.4,1.7-3.6c1.3-2.5,2.7-5,4.1-7.5
				c1.2-2.1,2.5-4.1,3.9-6c0.7-1.1,1.5-2.1,2.3-3.2c-2,2.7,0.6-0.7,0.9-1c3.3-4,7-7.8,10.8-11.2c1-0.9,2-1.7,3-2.6
				c0.3-0.3,3.7-2.9,1-0.9c1.7-1.3,3.5-2.6,5.3-3.8c4.8-3.2,9.8-5.8,14.9-8.3c3.8-1.9-1.7,0.6,0.7-0.3c1-0.4,2.1-0.8,3.1-1.2
				c2.5-0.9,5-1.8,7.6-2.5s5.2-1.4,7.8-1.9c0.9-0.2,1.8-0.4,2.7-0.5c0.6-0.1,6.2-0.8,2.8-0.5c5.5-0.6,11.1-0.8,16.7-0.6
				c2.3,0.1,4.6,0.3,6.9,0.5c4.5,0.3-3-0.6,1.4,0.2c1.8,0.3,3.6,0.6,5.3,1c5.7,1.2,11.3,2.8,16.7,4.9c0.4,0.1,4.4,1.9,1.3,0.5
				c1.6,0.7,3.2,1.5,4.8,2.2c2.3,1.2,4.6,2.4,6.9,3.8c2.6,1.6,5.2,3.2,7.6,5c0.3,0.2,3.7,2.9,1.1,0.8c1,0.8,2,1.6,3,2.5
				c4.6,3.9,8.9,8.3,12.8,13c-0.1-0.1,2.6,3.2,1.3,1.5c-1-1.3,1.7,2.3,1.9,2.7c1.8,2.5,3.4,5.1,4.9,7.7c1.4,2.5,2.8,5,4,7.5
				c0.5,1,0.9,2,1.4,3c-1.4-3.1,0.8,2,1,2.5c2,5.4,3.6,11.1,4.7,16.8c0.3,1.3,0.5,2.7,0.7,4c0.3,1.8,0.3,1.8,0,0.1
				c0.1,0.9,0.2,1.8,0.3,2.7C302.5,121.1,302.6,124.3,302.7,127.6c0.1,7.8,6.9,15.4,15,15s15.1-6.6,15-15
				c-0.3-51.7-33-97.6-81.4-115.5c-47-17.4-103.1-2.2-135,36.5c-33,40-38.5,97.5-11.4,142.3c26.8,44.3,79,66.7,129.7,57
				c48.6-9.4,88.8-50.7,96.3-99.7c1-6.8,1.8-13.6,1.8-20.5c0.1-7.8-6.9-15.4-15-15C309.5,112.9,302.7,119.2,302.7,127.6z"/>
		</g>
	</g>
	<g>
		<g>
			<path class="st0" d="M321.5,365.5c3.4,14,6.7,28,10.1,42c7.5,31.2,14.9,62.3,22.4,93.5c7.7,32,15.3,64,23,96
				c4,16.5,8.2,33,11.9,49.6c0.2,1.1,0.5,2.2,0.6,3.3c-0.4-2.6-0.1,0.5,0,1.5c0.1,1.6,0,3.1-0.1,4.7c0,0.7-0.1,1.3-0.2,2
				c0-0.3,0.6-2.3,0.1-0.7c-0.5,1.7-0.7,3.5-1.2,5.2c-0.4,1.3-0.8,2.5-1.3,3.8c-0.6,1.6,0.1-0.3,0.2-0.5c-0.3,0.6-0.6,1.2-0.9,1.8
				c-1.4,2.8-3.1,5.5-4.9,8.1c-0.9,1.4,0.1-0.1,0.3-0.3c-0.6,0.7-1.2,1.4-1.8,2.1c-0.9,1-1.8,2.1-2.8,3.1s-2,2-3,2.9
				c-0.6,0.5-4.4,3.7-2.3,2.1c-2.2,1.7-4.6,3.2-7,4.7c-1.4,0.8-2.8,1.6-4.3,2.4c-0.7,0.4-4.5,2-2.2,1.1c-2.8,1.1-5.7,2.1-8.6,2.8
				c-1.3,0.3-2.7,0.7-4.1,0.9c-0.7,0.1-1.4,0.2-2,0.4c2.2-0.4,0.4-0.1-0.8,0c-7.1,0.6-14.3,0.2-21.4,0.2c-2.3,0-4.7,0-7,0
				c-8.9,0-14,6.9-15,15c-4.2,32.6-8.5,65.3-12.7,97.9c-2.6,19.9-5.2,39.7-7.7,59.6c-0.6,4.8-1.4,9.6-1.9,14.4
				c0,0.4-0.1,0.7-0.1,1.1v0.1c-0.1,0.9-0.1,1.9-0.1,2.8c-0.1,4.2,0.7-2.5-0.2,1.5c-0.4,1.8-0.8,3.5-1.4,5.2
				c-0.3,0.8-0.6,1.7-0.9,2.5c1.1-2.7-0.1,0-0.4,0.6c-1,1.7-2,3.4-3.1,5.1c0.4-0.5,1.8-2-0.1,0.1c-0.9,1-1.8,2-2.7,2.9
				c-0.7,0.7-4.3,3.5-2,1.9c-1.4,1-2.9,2-4.5,2.8c0.1-0.1-3.8,1.9-1.8,1c1.7-0.7-0.9,0.3-1.3,0.5c-2.1,0.7-4.3,1.3-6.5,1.7
				c-2.3,0.4,2.3-0.1-0.1,0c-1.2,0.1-2.3,0.1-3.5,0.1c-0.1,0-0.2,0-0.3,0c-0.8,0-1.6,0-2.4,0c-9,0-18,0-27.1,0
				c-11.1,0-22.2,0-33.3,0c-3.5,0-7,0-10.6,0c-0.8,0-1.6,0-2.4,0c-0.1,0-0.2,0-0.3,0c-0.9,0-1.9-0.1-2.8-0.1
				c-4.2-0.1,2.6,0.7-1.5-0.2c-1.8-0.4-3.5-0.8-5.2-1.4c-0.8-0.3-1.7-0.6-2.5-0.9c2.7,1.1,0-0.1-0.6-0.4c-1.7-1-3.4-2-5.1-3.1
				c0.5,0.4,2,1.8-0.1-0.1c-1-0.9-2-1.8-2.9-2.7c-0.7-0.7-3.5-4.3-1.9-2c-1-1.4-2-2.9-2.8-4.5c0.1,0.1-1.9-3.8-1-1.8
				c0.7,1.7-0.3-0.9-0.5-1.3c-0.7-2.1-1.3-4.3-1.7-6.5c-0.4-2.3,0.1,2.3,0-0.1c-0.1-1.2,0-2.3-0.1-3.5v-0.1c0-0.4-0.1-0.7-0.1-1.1
				c-0.2-1.8-0.5-3.6-0.7-5.5c-2.2-17.2-4.5-34.4-6.7-51.6c-4.9-37.5-9.8-75.1-14.6-112.6c-0.1-0.7-0.2-1.5-0.3-2.2c-1-8-6-15-15-15
				c-5.2,0-10.4,0-15.7,0c-2.4,0-4.7,0-7.1,0c-0.7,0-1.4,0-2.1,0c-1.3,0-2.6-0.1-4-0.2c-0.8-0.1-4.6-0.7-1.3-0.1
				c-4.4-0.8-8.7-1.9-13-3.4c-0.3-0.1-4.4-1.9-1.4-0.5c-0.8-0.4-1.6-0.8-2.4-1.1c-2.4-1.2-4.8-2.5-7.1-4c-1.1-0.7-2.2-1.5-3.4-2.3
				c-2.4-1.6-0.7-0.5-0.2-0.1c-1.9-1.5-3.7-3.2-5.5-4.9c-1.7-1.7-3.4-3.5-4.9-5.4c0.4,0.5,1.5,2.2,0-0.1c-0.9-1.5-1.9-2.9-2.8-4.4
				c-0.6-1-2.9-6.3-1.8-3.4c-0.8-2-1.4-4.1-2-6.2c-0.2-0.8-0.4-1.7-0.6-2.6c-1-4,0,2.9-0.2-1.2c-0.1-2.7-0.1-5.4,0.1-8.1
				c0.3-4.3-0.4,1.7,0.2-0.9c0.2-1,0.1-0.7,0.4-2.1c0-0.1,0-0.1,0-0.2c0.1-0.4,0.2-0.7,0.3-1.1c1-4.5,2.1-8.9,3.2-13.3
				c11-46.1,22.1-92.3,33.1-138.4c9.9-41.3,19.8-82.6,29.7-123.8c1.4-5.8,2.8-11.5,4.7-17.1c0.7-2.2,1.6-4.4,2.4-6.5
				c-0.2,0.6-1.1,2.5,0.1-0.2c0.6-1.2,1.1-2.5,1.7-3.7c2.1-4.3,4.5-8.5,7.3-12.5c0,0.1,2.5-3.3,1.1-1.6c-1.3,1.7,1.3-1.5,1.2-1.4
				c1.4-1.6,2.8-3.1,4.3-4.5s3-2.8,4.6-4.1c-2.8,2.2,0.5-0.2,0.9-0.5c1-0.7,2.1-1.3,3.1-1.9c0.9-0.5,6.2-3,3-1.7
				c2.1-0.9,4.3-1.6,6.5-2.2c1-0.3,2.1-0.5,3.1-0.7c0.5-0.1,4.7-0.6,1.2-0.3c2.3-0.2,4.5-0.3,6.8-0.4c1.6,0,3.2,0,4.9,0
				c10,0,19.9,0,29.9,0c25.4,0,50.8,0,76.2,0c2.9,0,5.8,0,8.6,0c0.4,0,0.8,0,1.3,0c2,0,4,0.1,6,0.3c0.9,0.1,3.7,0.6,0.5,0
				c1.2,0.2,2.5,0.4,3.7,0.7c2.2,0.5,4.3,1.2,6.5,1.9c0.8,0.3,3.3,1.5,0.3,0.1c1.1,0.5,2.1,1,3.2,1.6c1.7,0.9,3.4,1.9,5.1,3.1
				c0.7,0.4,1.3,0.9,1.9,1.4c-3-2.2,1,0.9,1.5,1.4c1.5,1.3,2.9,2.8,4.2,4.2c0.7,0.7,4.3,5.4,2.3,2.7c2.7,3.8,5.2,7.8,7.3,11.9
				c0.6,1.2,1.1,2.4,1.7,3.6c0.2,0.5,1.1,2.6,0.1,0.1c0.9,2.1,1.7,4.3,2.4,6.4C319,355.3,320.3,360.4,321.5,365.5
				c1.8,7.9,10.9,12.5,18.5,10.5c8.1-2.2,12.3-10.5,10.5-18.5c-4.6-20.7-13.5-41.7-29.1-56.4c-14-13.2-31.9-19.9-51.1-20
				c-20.9-0.2-41.8,0-62.7,0c-19.3,0-38.6-0.2-58,0c-21.5,0.2-41.9,9.5-55.7,26.1c-12.2,14.6-19.8,32.2-24.3,50.6
				c-8.8,36.1-17.3,72.2-25.9,108.4c-12.1,50.5-24.2,101-36.3,151.5c-3.8,15.7-8.6,31-6.1,47.4c3.3,21.8,18.9,40.3,37.5,51.2
				c16,9.3,33.1,12.1,51.3,12.1c5.2,0,10.4,0,15.7,0c-5-5-10-10-15-15c4.4,34.1,8.9,68.2,13.3,102.3c2.6,19.7,5.1,39.4,7.7,59.1
				c0.5,3.8,1.1,7.6,1.5,11.5c0.7,7.5,1.3,14.4,4.1,21.4c3.6,8.9,9,17.1,16.5,23.3c11.7,9.6,25.3,14.1,40.3,14.1c9,0,18,0,27,0
				c11.4,0,22.8,0,34.2,0c8.4,0,16.8,0.3,25.1-1.3c19.7-3.8,35.7-18.9,42.8-37.3c3-7.7,3.1-15.9,4.1-23.9
				c2.2-16.6,4.3-33.1,6.5-49.7c5.1-39,10.1-78.1,15.2-117.1c0.1-0.8,0.2-1.6,0.3-2.3c-5,5-10,10-15,15c17.2,0,34.8,1.2,51.2-5.2
				c26.4-10.3,49.3-32.5,53.2-61.6c2.5-18.7-4.9-39-9.2-57c-7.4-31-14.8-62-22.3-93c-8-33.3-15.9-66.6-23.9-99.9
				c-4.2-17.7-7.9-35.7-12.8-53.3c-0.1-0.3-0.1-0.5-0.2-0.8c-1.9-7.9-10.8-12.6-18.5-10.5C323.9,349.2,319.6,357.5,321.5,365.5z"/>
		</g>
	</g>
</g>
</svg>
