<?xml version="1.0" encoding="utf-8"?>
<!-- Generator: Adobe Illustrator 20.1.0, SVG Export Plug-In . SVG Version: 6.00 Build 0)  -->
<svg version="1.1" id="圖層_1" xmlns="http://www.w3.org/2000/svg" xmlns:xlink="http://www.w3.org/1999/xlink" x="0px" y="0px"
	 viewBox="0 0 420 950" style="enable-background:new 0 0 420 950;" xml:space="preserve">
<style type="text/css">
	.st0{fill:#4674C2;}
</style>
<g>
	<g>
		<g>
			<path class="st0" d="M302.6,127.7c0,2.8-0.1,5.6-0.3,8.3c-0.1,1.4-0.3,2.7-0.4,4.1c0.4-3.5-0.2,1-0.2,1.4
				c-0.9,5.3-2.2,10.5-3.8,15.7c-0.8,2.5-1.7,5-2.8,7.5c1.1-2.7,0,0-0.3,0.6c-0.5,1-0.9,2-1.4,3c-2.5,5.1-5.5,9.9-8.8,14.6
				c-0.5,0.7-1,1.4-1.5,2.1c2-2.7-0.6,0.7-0.9,1c-1.7,2-3.4,3.9-5.2,5.8s-3.7,3.7-5.6,5.4c-0.6,0.6-1.3,1.2-2,1.7
				c-0.4,0.4-4.7,3.7-2,1.7c-4,3-8.2,5.8-12.6,8.2c-2.1,1.2-4.2,2.3-6.4,3.3c-0.4,0.2-4.4,1.9-1.2,0.6c-1.6,0.7-3.3,1.3-5,1.9
				c-4.6,1.6-9.4,3-14.2,4c-1.3,0.3-2.7,0.5-4,0.7c-0.4,0.1-4.9,0.6-1.4,0.2c-2.8,0.3-5.5,0.5-8.3,0.6c-5.6,0.2-11.1-0.1-16.7-0.6
				c3.5,0.4-1-0.2-1.4-0.2c-0.9-0.1-1.8-0.3-2.7-0.5c-3.1-0.6-6.1-1.3-9.2-2.2c-2.6-0.7-5.1-1.6-7.6-2.5c-0.8-0.3-1.6-0.6-2.5-0.9
				c-4-1.5,2.6,1.3-1.3-0.6c-5.1-2.5-10.1-5.1-14.9-8.3c-1.8-1.2-3.6-2.5-5.3-3.8c2.7,2-0.7-0.6-1-0.9c-1-0.8-2-1.7-3-2.6
				c-3.9-3.5-7.5-7.2-10.8-11.2c-0.3-0.3-2.9-3.7-0.9-1c-0.8-1-1.6-2.1-2.3-3.2c-1.2-1.8-2.4-3.6-3.6-5.5c-1.4-2.2-2.7-4.5-3.9-6.9
				c-0.6-1.2-1.2-2.3-1.7-3.5c-0.4-0.8-0.7-1.6-1.1-2.4c0.6,1.6,0.6,1.5,0-0.1c-1.7-4.6-3.3-9.2-4.5-14c-0.6-2.6-1.2-5.3-1.6-7.9
				c-0.1-0.4-0.6-4.9-0.2-1.4c-0.1-1.4-0.3-2.7-0.4-4.1c-0.4-5.6-0.4-11.1,0-16.7c0.1-0.9,0.2-1.8,0.2-2.7c0.3-4.5-0.6,3,0.2-1.4
				c0.5-3.1,1.1-6.2,1.9-9.3c1.2-4.8,2.7-9.4,4.5-14c1.5-4-1.3,2.6,0.6-1.3c0.6-1.2,1.1-2.4,1.7-3.6c1.3-2.5,2.7-5,4.1-7.5
				c1.2-2.1,2.5-4.1,3.9-6c0.7-1.1,1.5-2.1,2.3-3.2c-2,2.7,0.6-0.7,0.9-1c3.3-4,7-7.8,10.8-11.2c1-0.9,2-1.7,3-2.6
				c0.3-0.3,3.7-2.9,1-0.9c1.7-1.3,3.5-2.6,5.3-3.8c4.8-3.2,9.8-5.8,14.9-8.3c3.8-1.9-1.7,0.6,0.7-0.3c1-0.4,2.1-0.8,3.1-1.2
				c2.5-0.9,5-1.8,7.6-2.5s5.2-1.4,7.8-1.9c0.9-0.2,1.8-0.4,2.7-0.5c0.6-0.1,6.2-0.8,2.8-0.5c5.5-0.6,11.1-0.8,16.7-0.6
				c2.3,0.1,4.6,0.3,6.9,0.5c4.5,0.3-3-0.6,1.4,0.2c1.8,0.3,3.6,0.6,5.3,1c5.7,1.2,11.3,2.8,16.7,4.9c0.4,0.1,4.4,1.9,1.3,0.5
				c1.6,0.7,3.2,1.5,4.8,2.2c2.3,1.2,4.6,2.4,6.9,3.8c2.6,1.6,5.2,3.2,7.6,5c0.3,0.2,3.7,2.9,1.1,0.8c1,0.8,2,1.6,3,2.5
				c4.6,3.9,8.9,8.3,12.8,13c-0.1-0.1,2.6,3.2,1.3,1.5c-1-1.3,1.7,2.3,1.9,2.7c1.8,2.5,3.4,5.1,4.9,7.7c1.4,2.5,2.8,5,4,7.5
				c0.5,1,0.9,2,1.4,3c-1.4-3.1,0.8,2,1,2.5c2,5.4,3.6,11.1,4.7,16.8c0.3,1.3,0.5,2.7,0.7,4c0.3,1.8,0.3,1.8,0,0.1
				c0.1,0.9,0.2,1.8,0.3,2.7C302.5,121.2,302.6,124.4,302.6,127.7c0.1,7.8,6.9,15.4,15,15s15.1-6.6,15-15
				c-0.3-51.7-33-97.6-81.4-115.5c-47-17.4-103.1-2.2-135,36.5c-33,40-38.5,97.5-11.4,142.3c26.8,44.3,79,66.7,129.7,57
				c48.6-9.4,88.8-50.7,96.3-99.7c1-6.8,1.8-13.6,1.8-20.5c0.1-7.8-6.9-15.4-15-15C309.5,113,302.7,119.3,302.6,127.7z"/>
		</g>
	</g>
	<g>
		<g>
			<path class="st0" d="M365.9,361.6c0,37.3,0,74.7,0,112c0,39.3,0.3,78.5,0,117.8c0,0.1,0,0.1,0,0.2c0,1.4,0,2.8-0.1,4.2
				c0,0.3-0.5,4.8,0,1.5c-0.4,2.7-1,5.3-1.7,7.9c-0.4,1.3-0.8,2.6-1.2,3.8c-0.2,0.6-1.7,4.3-0.4,1.4c-1.1,2.4-2.3,4.8-3.6,7
				c-0.7,1.1-1.4,2.2-2.1,3.3c-0.4,0.6-2.7,3.6-0.8,1.2c-1.6,2-3.4,4-5.3,5.8c-0.8,0.8-1.6,1.5-2.4,2.2c-0.5,0.4-4.1,3.3-1.5,1.4
				c-2.1,1.6-4.3,3-6.6,4.3c-0.8,0.4-1.5,0.9-2.3,1.3c-0.5,0.3-5.5,2.4-2.4,1.2c-2.5,1-5,1.8-7.6,2.5c-0.9,0.2-1.7,0.4-2.6,0.6
				c-0.6,0.1-6.1,0.9-2.7,0.5c-6.4,0.6-12.9,0.4-19.3,0.4c-8.1,0-15,6.9-15,15c0,41.2,0,82.4,0,123.6c0,26.6,0,53.2,0,79.7
				c0,7.3,0,14.6,0,21.9c0,1.3,0,2.6,0,3.9c0,0.5,0,0.9,0,1.5c0,0.4-0.6,4.9,0,1.5c-0.1,0.9-0.3,1.8-0.5,2.7
				c-0.3,1.3-0.7,2.6-1.1,3.9c-0.1,0.4-1.9,4.3-0.5,1.4c-1.2,2.4-2.5,4.7-4,6.8c1.8-2.6-0.7,0.7-1,1.1c-0.9,1-1.8,1.9-2.8,2.8
				c-0.6,0.6-1.3,1.2-2,1.7c2.6-2-0.9,0.5-1.3,0.7c-0.8,0.5-6.3,3.2-3.5,2.1c-2.9,1.2-6,2-9.1,2.5c3.3-0.5-2.4,0-2.9,0
				c-0.2,0-0.4,0-0.6,0c-1.1,0-2.2,0-3.3,0c-11.7,0-23.4,0-35.1,0c-14.1,0-28.2,0-42.3,0c-4.5,0-9,0-13.6,0c-1.1,0-2.2,0-3.3,0
				c-0.2,0-0.4,0-0.6,0c-0.4,0-1,0-1.4,0c-0.9,0-1.9-0.1-2.8-0.2c1.7,0.3,1.7,0.2-0.1-0.1c-2.4-0.6-4.8-1.2-7.1-2
				c-2.3-0.9,2.8,1.7-0.7-0.4c-1.1-0.7-2.3-1.3-3.5-2c-0.3-0.2-3.8-2.8-1.3-0.7c-0.7-0.5-1.4-1.1-2-1.7c-1-0.9-1.9-1.8-2.8-2.8
				c-0.6-0.6-1.2-1.3-1.7-2c1,1.3,1,1.3,0-0.1c-1.1-1.9-2.3-3.8-3.3-5.8c1.4,2.9-0.3-0.9-0.5-1.4c-0.4-1.1-0.7-2.2-0.9-3.2
				c-0.3-1.1-0.5-2.2-0.7-3.3c0.5,3.4,0-1.1,0-1.5c0-0.6,0-1,0-1.6c-0.1-4.4,0-8.8,0-13.2c0-23.5,0-47.1,0-70.6
				c0-47.5,0-95.1,0-142.6c0-0.9,0-1.8,0-2.7c0-8.1-6.9-15-15-15c-5.5,0-11,0.2-16.5-0.1c-0.4,0-4.9-0.5-1.5,0
				c-1.1-0.2-2.2-0.4-3.3-0.6c-2.4-0.5-4.8-1.1-7.1-1.9c-0.8-0.3-1.7-0.6-2.5-0.9c-4-1.3,2.5,1.4-1.3-0.5c-2.4-1.2-4.7-2.4-6.9-3.8
				c-1.1-0.7-2.2-1.5-3.3-2.2c-0.5-0.3-2.2-1.7-0.1,0c-1.9-1.5-3.7-3.1-5.4-4.8s-3.3-3.5-4.8-5.4c1.7,2.1,0.3,0.4,0-0.1
				c-1-1.5-2-2.9-2.9-4.4c-1.1-1.9-2.1-3.9-3.1-5.8c-1.9-3.8,0.8,2.7-0.5-1.3c-0.3-0.8-0.6-1.7-0.9-2.5c-0.8-2.6-1.5-5.2-2-7.8
				c-0.2-0.9-0.3-1.8-0.5-2.7c0.5,3.4-0.1-2.2-0.1-2.9c-0.5-12.5-0.1-25.1-0.1-37.6c0-53.2,0-106.4,0-159.6c0-12.3-0.3-24.7,0-37
				c0-1.4,0.2-2.8,0.2-4.2c0-0.6,0.4-3-0.1-0.1c0.4-2.5,0.9-4.9,1.5-7.3s1.4-4.7,2.3-7c-0.2,0.6-1.2,2.5,0.1-0.1
				c0.8-1.6,1.6-3.2,2.4-4.7c1.1-1.9,2.3-3.7,3.5-5.5c2.3-3.5-1.9,2,0.9-1.1c0.6-0.7,1.1-1.3,1.7-2c1.6-1.8,3.3-3.5,5.1-5.1
				c0.8-0.7,1.6-1.4,2.5-2.1c-2.5,2.1,1.8-1.2,2.3-1.5c1.8-1.2,3.7-2.3,5.7-3.3c1-0.5,2-1,3-1.4c2.3-1.1-3.3,1,0.7-0.3
				c2.1-0.7,4.2-1.4,6.4-2c1.3-0.3,2.6-0.6,4-0.9c0.9-0.2,1.8-0.3,2.7-0.5c-1.5,0.2-1.7,0.2-0.6,0.1c2.7-0.2,5.3-0.3,8-0.3
				c45.5-0.1,91.1,0,136.6,0c21.4,0,42.8,0,64.1,0c2.3,0,4.5,0,6.8,0c0.5,0,0.9,0,1.4,0c0.1,0,0.1,0,0.2,0c0.9,0,1.9,0,2.8,0.1
				c0.6,0,6.3,0.6,2.9,0.1c4.5,0.6,8.7,1.9,13,3.3c4,1.3-2.5-1.4,1.3,0.5c1.2,0.6,2.4,1.2,3.5,1.8c2.3,1.3,4.5,2.7,6.7,4.2
				c2.3,1.5,0.6,0.4,0.1,0c1,0.8,2,1.7,3,2.5c1.6,1.5,3.2,3,4.6,4.6c0.9,1,1.7,2,2.5,3c-1.7-2.1-0.3-0.4,0,0.1
				c1.6,2.4,3.1,4.7,4.5,7.3c0.5,1,1,2,1.5,3c1.9,3.8-0.8-2.7,0.5,1.3c0.7,2.1,1.4,4.2,2,6.4c0.6,2.2,1,4.4,1.3,6.6
				c-0.5-3.5,0,1.1,0,1.5C365.8,358.8,365.8,360.2,365.9,361.6c0.1,7.8,6.8,15.4,15,15c8.1-0.4,15.1-6.6,15-15
				c-0.5-44.2-36.7-80.2-80.9-80.5c-16.1-0.1-32.3,0-48.5,0c-51.5,0-103,0-154.5,0c-7.6,0-14.9,0.2-22.5,1.5
				c-22.4,3.8-42.7,18.7-54.3,38.1C23.8,339.8,24,360,24,381.1c0,54.1,0,108.2,0,162.3c0,15.8-0.1,31.7,0,47.5
				c0.2,42.7,33.6,78.4,76.3,81c5.5,0.3,11,0.1,16.5,0.1c-5-5-10-10-15-15c0,42.9,0,85.7,0,128.6c0,26.4,0,52.8,0,79.2
				c0,6.5,0,13,0,19.4c0,16.1,5.4,31.3,16.8,43c12.1,12.5,28.4,17.7,45.5,17.7c11.5,0,23,0,34.5,0c14.7,0,29.3,0,44,0
				c9.7,0,19.5,0.5,29-1.3c25.3-4.9,43.5-27.4,46.1-52.5c0.5-4.9,0.3-9.8,0.3-14.7c0-23.1,0-46.2,0-69.3c0-49.1,0-98.1,0-147.2
				c0-1,0-2,0-2.9c-5,5-10,10-15,15c17.5,0,33.9-1.1,49.8-9.3c19.4-10,34.2-28.6,40.1-49.6c4.3-15.3,2.9-32.2,2.9-48
				c0-52.9,0-105.8,0-158.7c0-15,0-29.9,0-44.9c0-7.8-6.9-15.4-15-15C372.7,346.9,365.9,353.2,365.9,361.6z"/>
		</g>
	</g>
</g>
</svg>
