<?xml version="1.0" encoding="UTF-8" standalone="no"?>
<svg
   xmlns:dc="http://purl.org/dc/elements/1.1/"
   xmlns:cc="http://creativecommons.org/ns#"
   xmlns:rdf="http://www.w3.org/1999/02/22-rdf-syntax-ns#"
   xmlns:svg="http://www.w3.org/2000/svg"
   xmlns="http://www.w3.org/2000/svg"
   viewBox="0 0 949.33185 221.62035"
   height="221.62035"
   width="949.33185"
   xml:space="preserve"
   id="svg2"
   version="1.1"><metadata
     id="metadata8"><rdf:RDF><cc:Work
         rdf:about=""><dc:format>image/svg+xml</dc:format><dc:type
           rdf:resource="http://purl.org/dc/dcmitype/StillImage" /></cc:Work></rdf:RDF></metadata><defs
     id="defs6"><clipPath
       id="clipPath18"
       clipPathUnits="userSpaceOnUse"><path
         id="path16"
         d="M 0,178 H 723 V 0 H 0 Z" /></clipPath></defs><g
     transform="matrix(1.3333333,0,0,-1.3333333,-9.3338379,228.51782)"
     id="g10"><g
       id="g12"><g
         clip-path="url(#clipPath18)"
         id="g14"><g
           transform="translate(30.2534,93.646)"
           id="g20"><path
             id="path22"
             style="fill:#09b8b2;fill-opacity:1;fill-rule:nonzero;stroke:none"
             d="M 0,0 C 7.744,11.671 18.221,17.985 32.234,17.848 46.55,17.708 56.198,10.681 61.6,-2.705 c 1.237,1.893 2.267,3.61 3.432,5.23 8.974,12.486 21.427,16.935 36.234,14.939 15.368,-2.072 24.283,-11.867 26.556,-28.191 0.662,-4.753 0.977,-9.515 0.973,-14.311 -0.017,-19.486 -0.044,-38.973 0.064,-58.459 0.013,-2.226 -0.622,-2.657 -2.691,-2.608 -6.086,0.141 -12.179,0.117 -18.267,0.008 -1.753,-0.031 -2.125,0.531 -2.119,2.19 0.063,17.375 0.063,34.751 0.038,52.126 -0.008,6.014 -0.316,12.01 -1.888,17.862 -1.769,6.583 -5.432,11.398 -12.429,12.921 -7.211,1.569 -13.546,0.032 -18.546,-5.654 -5.593,-6.359 -8.374,-13.896 -8.44,-22.281 -0.142,-18.186 -0.097,-36.374 0.007,-54.561 0.013,-2.229 -0.628,-2.659 -2.697,-2.611 -6.086,0.14 -12.18,0.125 -18.266,0.006 -1.893,-0.037 -2.443,0.448 -2.433,2.398 0.095,17.862 0.071,35.725 0.1,53.587 0.007,4.717 -0.153,9.418 -1.268,14.025 -2.295,9.48 -7.55,14.445 -16.371,15.542 C 15.546,0.452 8.375,-3.75 4.091,-11.907 0.787,-18.196 -0.087,-24.98 -0.082,-31.944 c 0.013,-17.294 0.023,-34.589 0.125,-51.882 0.012,-1.858 -0.515,-2.305 -2.319,-2.273 -6.249,0.114 -12.505,0.13 -18.753,-0.007 -1.93,-0.042 -2.219,0.621 -2.216,2.346 0.05,32.396 0.054,64.793 -0.008,97.189 -0.004,1.881 0.552,2.289 2.325,2.259 6.251,-0.105 12.504,-0.095 18.755,-0.006 1.688,0.025 2.253,-0.451 2.211,-2.18 C -0.074,9.004 0,4.501 0,0" /></g><g
           transform="translate(456.2979,26.6982)"
           id="g24"><path
             id="path26"
             style="fill:#09b8b2;fill-opacity:1;fill-rule:nonzero;stroke:none"
             d="m 0,0 c 0,-5.749 -0.023,-11.403 0.018,-17.057 0.008,-1.272 -0.971,-1.347 -1.733,-1.674 -4.398,-1.89 -9.079,-2.432 -13.786,-2.63 -4.631,-0.195 -9.244,0.159 -13.757,1.345 -9.934,2.615 -16.099,9.624 -17.548,19.828 -0.413,2.908 -0.514,5.817 -0.515,8.741 -0.003,17.783 -0.033,35.566 0.029,53.35 0.006,1.847 -0.375,2.548 -2.379,2.471 -4.217,-0.163 -8.445,0.021 -12.665,-0.084 -1.617,-0.041 -2.062,0.465 -2.028,2.06 0.102,4.789 0.094,9.582 0.003,14.371 -0.029,1.524 0.472,1.93 1.941,1.901 4.221,-0.087 8.447,0.056 12.666,-0.071 1.864,-0.056 2.513,0.416 2.473,2.4 -0.129,6.412 -0.002,12.829 -0.081,19.243 -0.017,1.375 0.374,2.007 1.713,2.373 6.476,1.772 12.955,3.55 19.374,5.515 1.873,0.573 1.963,-0.059 1.955,-1.58 -0.047,-8.444 0.07,-16.891 -0.084,-25.334 -0.04,-2.247 0.668,-2.666 2.726,-2.625 6.493,0.129 12.991,-0.001 19.487,0.082 1.621,0.021 2.286,-0.297 2.237,-2.103 -0.129,-4.706 -0.129,-9.42 0,-14.127 0.049,-1.799 -0.604,-2.126 -2.231,-2.105 -6.577,0.084 -13.155,-0.024 -19.731,0.073 -1.81,0.026 -2.49,-0.327 -2.48,-2.349 0.091,-16.241 0.036,-32.481 0.076,-48.722 0.005,-2.02 0.166,-4.063 0.501,-6.053 1.103,-6.538 4.997,-9.921 11.631,-10.269 C -7.373,-3.283 -6.413,-3.048 0,0" /></g><g
           transform="translate(582.9248,71.3027)"
           id="g28"><path
             id="path30"
             style="fill:#1c5266;fill-opacity:1;fill-rule:nonzero;stroke:none"
             d="m 0,0 c 3.91,5.336 8.333,9.699 14.506,12.05 10.268,3.908 22.517,1.555 28.839,-5.646 4.539,-5.172 6.493,-11.483 6.8,-18.13 0.784,-16.956 0.313,-33.935 0.442,-50.904 0.011,-1.351 -0.517,-1.606 -1.718,-1.592 -4.547,0.056 -9.098,0.118 -13.64,-0.024 -1.824,-0.058 -2.063,0.616 -2.056,2.212 0.061,13.398 0.024,26.798 0.042,40.196 0.005,3.422 -0.229,6.817 -1.02,10.149 C 29.512,-0.398 17.638,3.979 8.217,-2.914 2.974,-6.751 0.19,-12.126 0.093,-18.546 c -0.201,-13.232 -0.062,-26.47 -0.114,-39.706 -0.008,-1.917 0.889,-4.527 -0.408,-5.566 -1.206,-0.968 -3.709,-0.355 -5.641,-0.373 -3.167,-0.03 -6.336,0.059 -9.5,-0.038 -1.419,-0.044 -1.944,0.238 -1.94,1.829 0.057,24.198 0.05,48.396 0.014,72.595 -0.002,1.388 0.202,2.032 1.823,1.993 4.626,-0.112 9.258,-0.113 13.884,0 1.633,0.04 1.848,-0.627 1.815,-2.003 C -0.055,6.792 0,3.396 0,0" /></g><g
           transform="translate(521.5537,139.8804)"
           id="g32"><path
             id="path34"
             style="fill:#9fbcde;fill-opacity:1;fill-rule:nonzero;stroke:none"
             d="m 0,0 c 2.64,3.932 5.45,6.609 9.292,8.067 6.375,2.418 14.238,1.007 18.312,-3.442 2.566,-2.803 3.723,-6.289 4.072,-9.962 1.067,-11.251 0.252,-22.54 0.51,-33.809 0.027,-1.164 -0.452,-1.573 -1.584,-1.55 -2.435,0.048 -4.878,0.123 -7.305,-0.024 -1.813,-0.11 -2.36,0.462 -2.34,2.305 0.092,8.605 0.045,17.211 0.031,25.816 -0.005,2.364 -0.438,4.663 -1.171,6.91 C 17.341,1.9 8.362,1.548 4.519,-2.312 1.628,-5.214 0.096,-8.728 0.049,-12.772 -0.049,-21.295 -0.037,-29.82 0.036,-38.344 c 0.016,-1.752 -0.374,-2.512 -2.279,-2.378 -2.262,0.16 -4.55,0.142 -6.815,0.005 -1.763,-0.107 -2.171,0.586 -2.161,2.237 0.065,9.822 0.031,19.646 0.031,29.469 0,12.665 0.033,25.33 -0.035,37.995 -0.009,1.829 0.363,2.671 2.396,2.503 2.177,-0.18 4.389,-0.161 6.569,-0.005 1.886,0.136 2.312,-0.59 2.295,-2.362 C -0.045,20.434 0,11.747 0,3.06 Z" /></g><g
           transform="translate(500.6611,108.1563)"
           id="g36"><path
             id="path38"
             style="fill:#9fbcde;fill-opacity:1;fill-rule:nonzero;stroke:none"
             d="m 0,0 c 0,-2.474 -0.021,-4.816 0.01,-7.159 0.011,-0.939 -0.321,-1.564 -1.259,-1.801 -5.882,-1.488 -11.689,-2.036 -16.991,1.773 -3.001,2.156 -4.156,5.327 -4.189,8.878 -0.082,8.928 -0.119,17.857 -0.033,26.785 0.02,2.019 -0.541,2.628 -2.579,2.591 -5.693,-0.101 -5.574,-0.007 -5.746,5.653 -0.072,2.399 0.475,3.228 3.037,3.121 5.238,-0.219 5.244,-0.061 5.247,5.115 0.004,6.349 0.004,6.349 6.053,7.927 4.777,1.246 4.777,1.246 4.775,-3.699 0,-0.406 -0.026,-0.814 0.005,-1.218 0.198,-2.643 -1.151,-6.052 0.546,-7.727 1.574,-1.554 4.945,-0.327 7.521,-0.462 0.567,-0.029 1.143,-0.061 1.704,0.007 1.51,0.181 1.904,-0.488 1.939,-1.946 0.163,-6.82 0.205,-6.819 -6.559,-6.819 -5.158,0 -5.159,0 -5.16,-5.269 -10e-4,-6.087 0.033,-12.175 -0.023,-18.262 -0.015,-1.565 0.235,-3.082 0.565,-4.57 0.755,-3.393 4.61,-5.039 8.716,-3.814 C -1.66,-0.669 -0.928,-0.347 0,0" /></g><g
           transform="translate(244.3428,68.4834)"
           id="g40"><path
             id="path42"
             style="fill:#09b8b2;fill-opacity:1;fill-rule:nonzero;stroke:none"
             d="m 0,0 c -5.685,0 -11.369,0 -17.053,0.002 -7.065,0.002 -14.132,0.083 -21.194,-0.047 -2.127,-0.04 -2.368,0.621 -1.972,2.495 1.39,6.585 3.969,12.538 8.931,17.222 6.838,6.453 14.922,8.044 23.681,5.119 C 0.825,21.974 4.414,15.086 5.785,6.862 6.926,0.021 6.8,0 0,0 m 27.282,7.431 c -2.115,10.735 -6.508,20.217 -15.255,27.203 -7.627,6.09 -16.554,8.18 -26.132,8.387 -21.532,0.465 -40.613,-13.226 -46.858,-33.765 -4.234,-13.925 -4.149,-27.953 0.203,-41.711 4.976,-15.732 15.605,-25.877 32.003,-29.46 9.341,-2.041 18.71,-1.605 28.073,-0.164 7.031,1.082 13.733,3.163 19.946,6.7 0.897,0.511 1.516,1.016 1.503,2.22 -0.061,5.589 -0.027,11.179 -0.027,17.136 -0.656,-0.369 -1.016,-0.536 -1.34,-0.756 -10.562,-7.208 -22.183,-9.956 -34.884,-8.529 -14.007,1.576 -24.03,11.873 -24.951,25.849 -0.198,3.007 -0.198,3.009 2.881,3.009 21.195,10e-4 42.389,0.043 63.583,-0.056 2.314,-0.011 2.777,0.686 2.74,2.835 -0.123,7.066 -0.111,14.127 -1.485,21.102" /></g><g
           transform="translate(356.6626,68.4502)"
           id="g44"><path
             id="path46"
             style="fill:#09b8b2;fill-opacity:1;fill-rule:nonzero;stroke:none"
             d="m 0,0 c -7.215,0.075 -14.431,0.033 -21.646,0.035 -7.135,0.002 -14.27,0.045 -21.404,-0.03 -1.623,-0.018 -2.004,0.337 -1.663,2.004 2.249,11.011 7.263,20.087 18.753,23.223 C -13.326,28.68 -1.808,22.941 1.154,7.961 1.545,5.984 1.568,3.938 1.838,1.935 2.039,0.448 1.526,-0.016 0,0 M 23.125,5.879 C 21.333,16.11 17.605,25.398 9.906,32.668 1.98,40.151 -7.748,42.793 -18.407,43.054 -40.113,43.584 -59.304,29.78 -65.529,8.968 c -4.096,-13.694 -4,-27.493 0.195,-41.028 4.942,-15.948 15.618,-26.236 32.229,-29.845 9.265,-2.014 18.559,-1.583 27.837,-0.171 7.023,1.068 13.752,3.107 19.953,6.679 0.837,0.482 1.642,0.842 1.625,2.123 -0.071,5.661 -0.03,11.323 -0.03,17.354 -0.782,-0.498 -1.193,-0.748 -1.591,-1.016 -10.239,-6.837 -21.448,-9.7 -33.731,-8.394 -15.155,1.61 -24.549,11.179 -25.947,26.463 -0.166,1.817 0.133,2.555 2.215,2.504 6.087,-0.15 12.181,-0.054 18.272,-0.054 15.43,0.001 30.86,-10e-4 46.29,0.008 1.146,10e-4 2.441,-0.421 2.408,1.649 -0.112,6.895 0.128,13.796 -1.071,20.639" /></g><g
           transform="translate(528.5547,33.0859)"
           id="g48"><path
             id="path50"
             style="fill:#1c5266;fill-opacity:1;fill-rule:nonzero;stroke:none"
             d="m 0,0 c -2.609,-8.497 -8.648,-13.301 -17.093,-13.919 -9.827,-0.719 -17.145,3.159 -21.176,11.123 -2.373,4.69 -2.986,9.712 -3.057,14.142 0.108,5.781 0.776,10.728 3.03,15.354 3.921,8.05 11.338,12.196 20.696,11.547 C -8.788,37.635 -2.578,32.736 0.038,23.972 2.413,16.015 2.442,7.954 0,0 m 16.957,28.717 c -3.48,10.746 -10.686,17.972 -21.554,21.376 -7.272,2.278 -14.715,2.464 -22.164,1.34 -10.475,-1.58 -19.21,-6.295 -25.354,-15.16 -5.455,-7.87 -6.984,-16.84 -6.829,-26.168 0.13,-7.922 1.878,-15.462 6.423,-22.119 7.815,-11.447 19.193,-15.64 33.052,-15.775 1.326,0.093 3.198,0.145 5.051,0.366 15.103,1.801 25.971,9.408 31.222,23.863 3.856,10.618 3.626,21.555 0.153,32.277" /></g><g
           transform="translate(698.0967,52.8369)"
           id="g52"><path
             id="path54"
             style="fill:#1c5266;fill-opacity:1;fill-rule:nonzero;stroke:none"
             d="m 0,0 h -13.634 v 0.012 c -5.275,0 -10.551,-0.01 -15.826,0.012 -0.697,0.004 -1.54,-0.386 -1.507,1.1 0.248,11.182 11.72,20.404 22.567,18.046 C -1.627,17.697 2.904,12.157 3.792,4.26 4.271,0 4.271,0 0,0 M 19.88,4.989 C 17.356,19.078 8.715,29.987 -6.895,32.063 -21.244,33.97 -36.083,27.16 -43.116,14.352 c -7.255,-13.211 -7.23,-27.056 -2.345,-40.938 3.514,-9.982 10.747,-16.445 20.924,-19.392 6.893,-1.995 13.959,-1.833 21.01,-0.989 5.918,0.708 11.603,2.234 16.872,5.127 0.997,0.548 1.6,1.12 1.569,2.415 -0.094,3.974 -0.034,7.951 -0.034,11.995 -0.254,0.074 -0.348,0.135 -0.401,0.111 -0.289,-0.138 -0.583,-0.272 -0.847,-0.451 -7.767,-5.285 -16.325,-7.255 -25.643,-6.287 -11.004,1.144 -18.537,9.037 -19.14,20.09 -0.074,1.327 0.331,1.785 1.593,1.671 0.564,-0.051 1.136,-0.008 1.704,-0.008 15.421,10e-4 30.842,0.047 46.263,-0.049 2.072,-0.012 2.547,0.556 2.489,2.555 -0.141,4.947 -0.141,9.891 -1.018,14.787" /></g><g
           transform="translate(593.4082,128.4438)"
           id="g56"><path
             id="path58"
             style="fill:#9fbcde;fill-opacity:1;fill-rule:nonzero;stroke:none"
             d="m 0,0 c -2.35,-0.03 -4.699,-0.005 -7.05,-0.005 -2.917,0 -5.843,0.145 -8.747,-0.047 -2.309,-0.153 -2.559,0.695 -1.948,2.621 1.6,5.038 4.34,8.794 9.976,9.69 C -2.267,13.133 2.499,10.116 3.628,4.651 4.802,-1.03 4.597,0.059 0,0 m 14.393,2.792 c -1.148,6.501 -3.877,12.101 -9.947,15.339 -9.227,4.923 -22.574,2.841 -29.493,-7.517 -4.965,-7.432 -5.323,-15.65 -3.493,-24.062 1.248,-5.739 3.996,-10.73 9.338,-13.613 9.714,-5.241 19.497,-4.019 29.196,0.245 0.755,0.332 1.069,0.9 1.06,1.731 -0.026,2.415 -0.009,4.829 -0.009,7.793 -3.686,-2.518 -7.172,-4.016 -10.996,-4.458 -8.575,-0.99 -15.904,1.555 -18.031,10.639 -0.671,2.868 -0.385,3.281 2.488,3.283 9.413,0.003 18.826,0.037 28.238,-0.031 1.675,-0.013 2.26,0.44 2.223,2.178 -0.06,2.839 -0.081,5.678 -0.574,8.473" /></g></g></g></g></svg>