<svg fill="#1A1A1A" xmlns="http://www.w3.org/2000/svg" xmlns:xlink="http://www.w3.org/1999/xlink" version="1.1" x="0px" y="0px" viewBox="0 0 100 100" style="enable-background:new 0 0 100 100;" xml:space="preserve"><g><path d="M83.712,29.125l0.519,2.166l-1.209,0.289l-0.519-2.166L83.712,29.125z M95.523,64.123l-2.621,0.627v13.72   c0,3.216-2.616,5.832-5.832,5.832H63.805c-1.367,0-2.627-0.474-3.623-1.265c-0.996,0.791-2.255,1.265-3.623,1.265H5.832   C2.616,84.302,0,81.686,0,78.47V40.509c0-2.974,2.237-5.433,5.117-5.787l49.188-11.765c1.331-0.318,2.666-0.151,3.818,0.388   c0.785-1.001,1.899-1.755,3.23-2.073l22.627-5.412c3.127-0.748,6.28,1.188,7.028,4.315l8.831,36.919   C100.588,60.222,98.651,63.375,95.523,64.123z M88.484,40.509c0-0.78-0.634-1.415-1.414-1.415H62.887   c-0.779,0-1.38,0.635-1.38,1.415h-2.649c0-0.78-0.585-1.415-1.365-1.415H5.832c-0.78,0-1.415,0.635-1.415,1.415V78.47   c0,0.78,0.634,1.415,1.415,1.415h51.66c0.78,0,1.365-0.635,1.365-1.415h2.649c0,0.78,0.601,1.415,1.38,1.415H87.07   c0.78,0,1.414-0.635,1.414-1.415V40.509z M90.146,35.557l-3.434-14.354c-0.182-0.759-0.947-1.229-1.705-1.047l-23.52,5.625   c-0.76,0.182-1.195,0.938-1.014,1.697l-2.578,0.616c-0.181-0.758-0.896-1.24-1.655-1.059l-31.945,7.641h32.263   c1.163,0,2.247,0.343,3.158,0.932l-1.199-4.92l2.578-0.616l1.133,4.604h5.541l-0.393-1.644l13.359-3.195l0.518,2.166l-11.178,2.673   h8.981l2.683-0.641l0.152,0.641h1.869l-0.255-1.064l1.209-0.289l0.323,1.353h2.031C88.199,34.676,89.252,35,90.146,35.557z    M95.543,58.122L92.902,47.08v13.128l1.594-0.381C95.256,59.646,95.725,58.881,95.543,58.122z M83.561,24.724l-17.188,4.111   L66.891,31l17.188-4.111L83.561,24.724z M66.928,45.427h17.674V43.2H66.928V45.427z M80.663,62.691H66.928v4.454h13.735V62.691z    M82.48,67.146h1.243v-4.454H82.48V67.146z M80.663,69.234H66.928v2.228h13.735V69.234z M82.48,71.462h1.243v-2.228H82.48V71.462z    M82.48,56.286h1.243v-4.454H82.48V56.286z M83.724,47.517H82.48v2.227h1.243V47.517z M66.928,75.777h17.674v-2.227H66.928V75.777z    M80.663,51.832H66.928v4.454h13.735V51.832z M58.857,55.375h2.649v-5.153h-2.649V55.375z M58.857,48.329h2.649v-5.153h-2.649   V48.329z M80.663,47.517H66.928v2.227h13.735V47.517z M82.48,60.603h1.243v-2.228H82.48V60.603z M80.663,58.375H66.928v2.228   h13.735V58.375z M58.857,62.42h2.649v-5.153h-2.649V62.42z M58.857,76.511h2.649v-5.153h-2.649V76.511z M58.857,69.465h2.649   v-5.152h-2.649V69.465z M29.438,45.976H10.489v4.514h18.949V45.976z M52.369,57.351h-41.88v4.514h41.88V57.351z M52.369,68.725   h-41.88v4.514h41.88V68.725z"></path></g></svg>