<svg xmlns="http://www.w3.org/2000/svg" viewBox="0 0 50 50"><defs><style>.cls-1{fill:#00c300;}.cls-2{fill:#fff;}</style></defs><title>social_line</title><g id="icon_social"><circle class="cls-1" cx="25" cy="25" r="24.5"/><path class="cls-2" d="M43,24.2c0-8-8.06-14.58-18-14.58S7,16.16,7,24.2c0,7.21,6.39,13.25,15,14.39.58.13,1.38.39,1.58.89a3.68,3.68,0,0,1,.06,1.62l-.26,1.54c-.08.45-.36,1.78,1.56,1s10.35-6.09,14.12-10.43h0A13,13,0,0,0,43,24.2ZM18,29H14.4a.94.94,0,0,1-.94-.94V20.9a.94.94,0,1,1,1.88,0v6.2H18A.94.94,0,0,1,18,29ZM21.66,28a.94.94,0,1,1-1.88,0V20.9a.94.94,0,1,1,1.88,0Zm8.59,0a.94.94,0,0,1-1.7.57l-3.66-5V28A.94.94,0,1,1,23,28V20.9a.94.94,0,0,1,1.7-.57l3.66,5V20.9a.94.94,0,1,1,1.88,0ZM36,23.53a.94.94,0,1,1,0,1.88H33.4V27.1H36A.94.94,0,0,1,36,29H32.46a.94.94,0,0,1-.94-.94V24.47h0V20.9a.94.94,0,0,1,.94-.94H36a.94.94,0,1,1,0,1.88H33.4v1.69Z"/></g></svg>