<svg xmlns="http://www.w3.org/2000/svg" viewBox="0 0 50 50"><defs><style>.cls-1{fill:#6d8b43;}.cls-2{fill:#fff;}</style></defs><title>social_link</title><g id="icon_social"><circle class="cls-1" cx="25" cy="25" r="24.5"/><path class="cls-2" d="M21.18,33.37,19.74,34.8a3.23,3.23,0,0,1-4.54,0,3.14,3.14,0,0,1,0-4.46l5.31-5.27c1.1-1.09,3.17-2.7,4.68-1.2a1.77,1.77,0,1,0,2.49-2.51c-2.57-2.55-6.36-2.08-9.66,1.2l-5.31,5.27a6.67,6.67,0,0,0,0,9.48,6.77,6.77,0,0,0,9.52,0l1.44-1.43a1.77,1.77,0,0,0-2.49-2.51ZM37.28,12.9c-2.76-2.73-6.61-2.88-9.16-.35l-1.8,1.79a1.77,1.77,0,1,0,2.49,2.51l1.8-1.78c1.32-1.31,3.05-.77,4.18.35a3.14,3.14,0,0,1,0,4.46l-5.67,5.62c-2.59,2.57-3.81,1.36-4.33.85a1.77,1.77,0,1,0-2.49,2.51,5.57,5.57,0,0,0,4,1.77A7.78,7.78,0,0,0,31.62,28l5.67-5.62a6.67,6.67,0,0,0,0-9.48Z"/></g></svg>