<?xml version="1.0" encoding="utf-8"?>
<!-- Generator: Adobe Illustrator 21.1.0, SVG Export Plug-In . SVG Version: 6.00 Build 0)  -->
<svg version="1.1" id="logo" xmlns="http://www.w3.org/2000/svg" xmlns:xlink="http://www.w3.org/1999/xlink" x="0px" y="0px"
	 viewBox="0 0 723 178" style="enable-background:new 0 0 723 178;" xml:space="preserve">
<style type="text/css">
	.st0{fill:#A0BDDF;}
	.st1{fill:#1B5266;}
	.st2{fill:#09B9B3;}
</style>
<g>
	<g>
		<g>
			<path class="st0" d="M472.6,43.7v-11h10.7v-15l12.9-5v19.9h14.2v11h-14.2v22.6c0,5.2,1.5,8.4,7.2,8.4c2.3,0,5.4-0.4,7-1.6V84
				c-2.7,1.3-7.2,1.7-10.2,1.7c-13.7,0-16.9-6.1-16.9-18.3V43.7H472.6z"/>
			<path class="st0" d="M534.8,39.9h0.2c2-4.3,7.2-8.5,15.2-8.5c13.9,0,18.8,9.8,18.8,20.4v32.6h-12.9V58.2c0-5.7-0.4-15.2-9.5-15.2
				c-8.5,0-11.8,6.2-11.8,13.1v28.2h-12.9V3h12.9V39.9z"/>
			<path class="st0" d="M589.2,63.1c0.9,7.6,6.7,12.3,13.9,12.3c6.5,0,10.7-3,13.9-7l9.3,7c-6,7.4-13.7,10.3-21.9,10.3
				c-15.6,0-28.1-10.9-28.1-27.1c0-16.3,12.5-27.1,28.1-27.1c14.4,0,24.2,10.1,24.2,28.1v3.6H589.2z M615.7,53.4
				c-0.1-7.5-5.1-12.3-13.1-12.3c-7.6,0-12.4,4.8-13.4,12.3H615.7z"/>
		</g>
		<g>
			<g>
				<path class="st1" d="M512.8,99.8c-22.4,0-40.2,15.6-40.2,38.8c0,23.3,17.9,38.8,40.2,38.8c22.4,0,40.2-15.6,40.2-38.8
					C553.1,115.4,535.2,99.8,512.8,99.8z M512.8,160.9c-13.6,0-21.7-10.6-21.7-22.2c0-11.6,8.2-22.2,21.7-22.2
					c13.6,0,21.7,10.6,21.7,22.2C534.6,150.2,526.4,160.9,512.8,160.9z"/>
			</g>
			<g>
				<path class="st1" d="M606.5,99.8c-12.3,0-19.3,6.3-22.7,13.7h-0.3v-11.9h-17.6v74h18.5v-40.4c0-9.9,4.8-18.8,17-18.8
					c13,0,13.6,13.6,13.6,21.7v37.5h18.5v-46.7C633.4,113.8,626.3,99.8,606.5,99.8z"/>
			</g>
			<g>
				<path class="st1" d="M721.3,140c0-25.7-14-40.2-34.7-40.2c-22.4,0-40.2,15.6-40.2,38.8c0,23.3,17.9,38.8,40.2,38.8
					c11.7,0,22.7-4.2,31.3-14.8l-13.3-10c-4.6,5.7-10.6,10-19.9,10c-10.3,0-18.7-6.6-19.9-17.6h56.4V140z M664.9,131.3
					c1.4-10.6,8.2-17.6,19.1-17.6c11.6,0,18.7,6.8,18.8,17.6H664.9z"/>
			</g>
		</g>
	</g>
	<g>
		<path class="st2" d="M269.4,125.7c0-35.7-18.2-55.8-45.1-55.8c-29,0-52.3,21.6-52.3,53.9c0,32.3,23.2,53.9,52.3,53.9
			c15.2,0,29.4-5.8,40.7-20.5l-17.2-13.9c-6,7.9-13.8,13.9-25.8,13.9c-13.4,0-24.2-9.2-25.8-24.4h73.3V125.7z M196.1,113.5
			c1.8-14.8,10.6-24.4,24.8-24.4c15,0,24.2,9.4,24.4,24.4H196.1z"/>
	</g>
	<g>
		<path class="st2" d="M380.1,125.7c0-35.7-18.2-55.8-45.1-55.8c-29,0-52.3,21.6-52.3,53.9c0,32.3,23.2,53.9,52.3,53.9
			c15.2,0,29.4-5.8,40.7-20.5l-17.2-13.9c-6,7.9-13.8,13.9-25.8,13.9c-13.4,0-24.2-9.2-25.8-24.4h73.3V125.7z M306.8,113.5
			c1.8-14.8,10.6-24.4,24.8-24.4c15,0,24.2,9.4,24.4,24.4H306.8z"/>
	</g>
	<path class="st2" d="M389.1,96.3V75.2h20.5V46.4l24.8-9.5v38.3h27.3v21.1h-27.3v43.5c0,9.9,2.9,16.1,13.9,16.1
		c4.3,0,10.4-0.8,13.5-3.1v20.9c-5.2,2.5-13.9,3.3-19.7,3.3c-26.3,0-32.5-11.8-32.5-35.2V96.3H389.1z"/>
	<path class="st2" d="M121.3,67.9c-16.6,0-26.1,8.5-30.9,18.6c-5.3-11-15.6-18.6-32.6-18.6c-17.1,0-26.7,9-31.3,19.6H26V70.5H3.7
		v105.6h23.6v-57.3c0-14.1,6-29.2,23.5-29.2c17.9,0,18.8,21.4,18.8,33v53.5h22.8V121c0.4-14.4,6.1-31.3,23.1-31.3
		c17.9,0,17.5,21.4,17.5,33v53.5h25.6v-66.7C158.6,87.9,148.8,67.9,121.3,67.9z"/>
</g>
</svg>
