<svg xmlns="http://www.w3.org/2000/svg" viewBox="0 0 50 50"><title>icon_pairlist_nekutai</title><g id="icon_pairlist_nekutai"><path d="M17.34,6.3c3.1,5.2,4.2,5.2,4.6,5.2h5.6c.4,0,1.5,0,4.6-5.2a.37.37,0,0,0,.1-.3,2.27,2.27,0,0,0-.5-2.1,2.34,2.34,0,0,0-1.8-.8H19.44a2.34,2.34,0,0,0-1.8.8,2.58,2.58,0,0,0-.5,2.1C17.24,6.1,17.24,6.2,17.34,6.3Zm12.8-1.2a.37.37,0,0,1,.1.3,23.81,23.81,0,0,1-2.7,3.8L23,5h6.8C30.14,5,30.14,5.1,30.14,5.1Zm-10.9,0a.35.35,0,0,1,.2-.1h2.2l4.8,4.5H22a22.77,22.77,0,0,1-3-4.1C19.14,5.3,19.14,5.2,19.24,5.1Zm15.4,32-3.9-22.5A2.55,2.55,0,0,0,28,12.2h-6.8a2.52,2.52,0,0,0-2.6,2.2v.1l-3.3,22.6c0,.2-.2,1.5.4,2.1.3.4,6.2,5.8,7.3,7a2.93,2.93,0,0,0,3.8,0l7.3-6.9.2-.2A2.85,2.85,0,0,0,34.64,37.1Zm-6,4.7-10.5-10,.9-6,13.3,12.6Zm4.1-4.3L19.14,24.6l.8-5.7,11.4,10.8,1.4,7.8ZM28,14.3c.6,0,.6.1.7.7l.7,4-5-4.7Zm-7.5.6c.1-.5.3-.6.7-.6H23l6.7,6.4L31,28.2,20.14,17.8Zm5,29.8a.9.9,0,0,1-1.1,0c-2.6-2.4-6.4-6.1-7.1-6.8,0-.1.6-4.9.6-4.9l10,9.4Z"/></g></svg>