<svg xmlns="http://www.w3.org/2000/svg" viewBox="0 0 50 50"><title>icon_pair_04</title><g id="icon_pair_04"><polygon points="48.12 48.46 1.39 48.46 0 45.7 50 45.7 48.12 48.46"/><path d="M38.28,33.29a4.52,4.52,0,0,1-3.39-1.54,4.5,4.5,0,0,1-6.78,0,4.5,4.5,0,0,1-6.78,0,4.5,4.5,0,0,1-6.78,0,4.51,4.51,0,0,1-5.17,1.18V44.33H39.84V33A4.46,4.46,0,0,1,38.28,33.29Z"/><path d="M35.14,22.31h-21A4.7,4.7,0,0,0,9.39,27v4.41a3.17,3.17,0,0,0,1.78.55A3.21,3.21,0,0,0,14,30.29l.58-1.05.58,1.05a3.19,3.19,0,0,0,5.62,0l.58-1.05.58,1.05a3.19,3.19,0,0,0,5.62,0l.58-1.05.58,1.05a3.19,3.19,0,0,0,5.62,0l.58-1.05.58,1.05A3.21,3.21,0,0,0,38.28,32a3.17,3.17,0,0,0,1.55-.42V27A4.7,4.7,0,0,0,35.14,22.31ZM14.55,28.47a1.34,1.34,0,1,1,1.34-1.34A1.34,1.34,0,0,1,14.55,28.47Zm6.8,0a1.34,1.34,0,1,1,1.34-1.34A1.34,1.34,0,0,1,21.35,28.47Zm6.75,0a1.34,1.34,0,1,1,1.34-1.34A1.34,1.34,0,0,1,28.1,28.47Zm6.68,0a1.34,1.34,0,1,1,1.34-1.34A1.34,1.34,0,0,1,34.78,28.47Z"/><path d="M20.22,1.54A1.77,1.77,0,1,0,22,3.31,1.77,1.77,0,0,0,20.22,1.54Z"/><path d="M27.17,1.69a1.75,1.75,0,1,0,1.76,1.75A1.75,1.75,0,0,0,27.17,1.69Z"/><path d="M31.8,21.21l-2-9.64.17.63c.31,1,1.65.59,1.36-.46l-.81-4.54a2.28,2.28,0,0,0-2.09-1.54H25.74a2,2,0,0,0-1.86,1.54l-.48,1.26V7.28a1.55,1.55,0,0,0-1.55-1.55H18.6a1.55,1.55,0,0,0-1.55,1.55v6h1.53v7.89h3.33V13.32h1.48v0l1.69-5.23h.55L22.87,21.21Z"/></g></svg>