<svg xmlns="http://www.w3.org/2000/svg" viewBox="0 0 50 100"><defs><style>.cls-1{fill:#fff;}</style></defs><title>icon_menu_queation</title><g id="icon_menu_queation"><path class="cls-1" d="M6,75A19,19,0,1,1,25,94,19,19,0,0,1,6,75ZM25,91.63A16.62,16.62,0,1,0,8.38,75,16.65,16.65,0,0,0,25,91.63Z"/><path class="cls-1" d="M21,71.67H19.38c0-.17,0-.34,0-.51a7,7,0,0,1,.47-2.25,4.83,4.83,0,0,1,2.43-2.66,6.34,6.34,0,0,1,5.53-.13,4.28,4.28,0,0,1,2.65,3.39,4.65,4.65,0,0,1-.82,3.71,16.15,16.15,0,0,1-1.07,1.27c-.48.51-1,1-1.5,1.47a3.35,3.35,0,0,0-1.15,2.54c0,.44,0,.89-.06,1.34H24.22c0-.27,0-.53,0-.8a6.49,6.49,0,0,1,.29-1.85,4.94,4.94,0,0,1,1.23-2c.46-.46.94-.91,1.42-1.36a6.6,6.6,0,0,0,1.25-1.55,3.56,3.56,0,0,0-.26-4A3.63,3.63,0,0,0,25.7,67a4.33,4.33,0,0,0-2.29.3A3.76,3.76,0,0,0,21.18,70,12,12,0,0,0,21,71.45,2,2,0,0,0,21,71.67Z"/><path class="cls-1" d="M24,81.76h2.15v2.73H24Z"/><path d="M6,25A19,19,0,1,1,25,44,19,19,0,0,1,6,25ZM25,41.63A16.62,16.62,0,1,0,8.38,25,16.65,16.65,0,0,0,25,41.63Z"/><path d="M21,21.67H19.38c0-.17,0-.34,0-.51a7,7,0,0,1,.47-2.25,4.83,4.83,0,0,1,2.43-2.66,6.34,6.34,0,0,1,5.53-.13,4.28,4.28,0,0,1,2.65,3.39,4.65,4.65,0,0,1-.82,3.71,16.15,16.15,0,0,1-1.07,1.27c-.48.51-1,1-1.5,1.47a3.35,3.35,0,0,0-1.15,2.54c0,.44,0,.89-.06,1.34H24.22c0-.27,0-.53,0-.8a6.49,6.49,0,0,1,.29-1.85,4.94,4.94,0,0,1,1.23-2c.46-.46.94-.91,1.42-1.36a6.6,6.6,0,0,0,1.25-1.55,3.56,3.56,0,0,0-.26-4A3.63,3.63,0,0,0,25.7,17a4.33,4.33,0,0,0-2.29.3A3.76,3.76,0,0,0,21.18,20,12,12,0,0,0,21,21.45,2,2,0,0,0,21,21.67Z"/><path d="M24,31.76h2.15v2.73H24Z"/></g></svg>