<svg xmlns="http://www.w3.org/2000/svg" viewBox="0 0 50 100"><defs><style>.cls-1{fill:#fff;}</style></defs><title>icon_menu_deposit</title><g id="icon_menu_deposit"><path d="M32.51,33.94a2.92,2.92,0,0,0,4.73,2.31,2.94,2.94,0,1,0,0-4.62,2.91,2.91,0,0,0-1.8-.63,2.94,2.94,0,0,0-2.94,2.94M23,35.05a.65.65,0,0,0,.65.65h3.13a.65.65,0,0,0,0-1.31H23.63a.65.65,0,0,0-.65.65m-7.84,0a.65.65,0,0,0,.65.65h5.29a.65.65,0,1,0,0-1.31H15.79a.65.65,0,0,0-.65.65m-6.79,0a.65.65,0,0,0,.65.65h4.24a.65.65,0,0,0,0-1.31H9a.65.65,0,0,0-.65.65M44.18,15.93v2.42H5.82V15.93a2.88,2.88,0,0,1,3-3H41.22a2.88,2.88,0,0,1,3,3M5.82,36.13V23.25H44.18V36.13a2.88,2.88,0,0,1-3,3H8.78a2.88,2.88,0,0,1-3-3m39.18,0V15.93a3.64,3.64,0,0,0-3.78-3.78H8.78A3.64,3.64,0,0,0,5,15.93v20.2a3.64,3.64,0,0,0,3.78,3.78H41.22A3.64,3.64,0,0,0,45,36.13"/><path class="cls-1" d="M32.51,83.85a2.92,2.92,0,0,0,4.73,2.31,2.94,2.94,0,1,0,0-4.62,2.91,2.91,0,0,0-1.8-.63,2.94,2.94,0,0,0-2.94,2.94M23,85a.65.65,0,0,0,.65.65h3.13a.65.65,0,0,0,0-1.31H23.63A.65.65,0,0,0,23,85m-7.84,0a.65.65,0,0,0,.65.65h5.29a.65.65,0,1,0,0-1.31H15.79a.65.65,0,0,0-.65.65M8.35,85a.65.65,0,0,0,.65.65h4.24a.65.65,0,0,0,0-1.31H9a.65.65,0,0,0-.65.65M44.18,65.83v2.42H5.82V65.83a2.88,2.88,0,0,1,3-3H41.22a2.88,2.88,0,0,1,3,3M5.82,86V73.15H44.18V86a2.88,2.88,0,0,1-3,3H8.78a2.88,2.88,0,0,1-3-3M45,86V65.83a3.64,3.64,0,0,0-3.78-3.78H8.78A3.64,3.64,0,0,0,5,65.83V86a3.64,3.64,0,0,0,3.78,3.78H41.22A3.64,3.64,0,0,0,45,86"/></g></svg>