<svg xmlns="http://www.w3.org/2000/svg" viewBox="0 0 50 50"><title>icon_pair_01</title><g id="icon_pair_01"><path d="M43.45,26.55V5.66h0A3.2,3.2,0,0,0,38,3.08l-.15.16h0l-3,3L33.39,4.87c-1.15-1.17-1.72-1.45-2.94-1.18a7.75,7.75,0,0,0-2.69,1.6L32,9.51l.68.68,4.23,4.23a7.75,7.75,0,0,0,1.6-2.69c.27-1.22,0-1.79-1.18-2.94l-1-.94L37.41,6.8l1.94-1.94h0l.09-.1a1.1,1.1,0,0,1,1.88.7V26.55H25.18l.45-.81.06-.08.1-.08.82-.49L26.55,25l.27-.16L25.64,23.7h0l-.42-.42h0l-.11-.11-.16.27,0,0-.51.86,0,.06-.1.07-.85.47.06.06-.26.15.1.1h0l.25.25,0,0,1.07,1.07,0,0,.08.08H0S.3,27.6,3.2,38.79c1.15,4.43,2.09,4.29,4.56,4.32H9.47l-.8,4.73H11.2l1-4.74H37.79l1,4.74h2.54l-.8-4.73h1.71c2.46,0,3.41.11,4.55-4.32C49.7,27.6,50,26.55,50,26.55Z"/></g></svg>