<svg xmlns="http://www.w3.org/2000/svg" viewBox="0 0 50 100"><defs><style>.cls-1{fill:#85d7d1;}</style></defs><title>icon_share</title><g id="icon_ft_uselaw"><path class="cls-1" d="M25,52.5A22.5,22.5,0,1,0,47.5,75,22.49,22.49,0,0,0,25,52.5Zm2.79,30.93V77.79S16.52,75,10.93,83.43A16.88,16.88,0,0,1,27.79,66.57V60.93L39.07,72.21Z"/><path class="cls-1" d="M39.06,22.19,27.81,33.44V27.81S16.56,25,10.94,33.44A16.88,16.88,0,0,1,27.81,16.56V10.94ZM47.5,25A22.5,22.5,0,1,1,25,2.5,22.5,22.5,0,0,1,47.5,25Zm-2.81,0A19.69,19.69,0,1,0,25,44.69,19.71,19.71,0,0,0,44.69,25Z"/></g></svg>