<?xml version="1.0" encoding="utf-8"?>
<!-- Generator: Adobe Illustrator 21.1.0, SVG Export Plug-In . SVG Version: 6.00 Build 0)  -->
<svg version="1.1" id="icon_static_rule" xmlns="http://www.w3.org/2000/svg" xmlns:xlink="http://www.w3.org/1999/xlink" x="0px"
	 y="0px" viewBox="0 0 50 50" style="enable-background:new 0 0 50 50;" xml:space="preserve">
<title>icon_static_rule</title>
<path d="M9.9,8C9.9,8,9.9,8,9.9,8c-1.8,0.1-3.2,1.5-3.2,3.3v2h5.2v25.5c0,1.8,1.5,3.3,3.3,3.3H40c1.8,0,3.3-1.5,3.3-3.3v-2h-5.2
	V11.3c0-1.8-1.5-3.3-3.3-3.3H9.9C10,8,9.9,8,9.9,8z M10,9.3c1.1,0,1.9,0.9,2,1.9c0,0,0,0,0,0v0.7H8v-0.7C8,10.2,8.9,9.3,10,9.3
	C10,9.3,10,9.3,10,9.3z M12.6,9.3h22.2c1.1,0,1.9,0.9,2,1.9c0,0,0,0,0,0v25.5H17.2v2c0,1.1-0.9,2-2,2s-2-0.9-2-2V11.3
	C13.2,10.6,13,9.9,12.6,9.3L12.6,9.3z M19.8,11.9v1.3h10.5v-1.3H19.8z M15.9,15.9v1.3h18.3v-1.3H15.9z M15.9,18.5v1.3h18.3v-1.3
	H15.9z M15.9,21.1v1.3h18.3v-1.3H15.9z M15.9,23.7V25h18.3v-1.3H15.9z M15.9,26.3v1.3h18.3v-1.3L15.9,26.3z M15.9,28.9v1.3H25v-1.3
	L15.9,28.9z M28.9,32.8v1.3h5.2v-1.3L28.9,32.8z M18.5,38.1H42v0.7c0,1.1-0.9,1.9-1.9,2c0,0,0,0,0,0H17.7c0.5-0.5,0.8-1.2,0.8-2
	L18.5,38.1z"/>
</svg>
