<svg xmlns="http://www.w3.org/2000/svg" viewBox="0 0 50 50"><defs><style>.cls-1{fill:#fff;}</style></defs><title>icon_artic_choic3</title><g id="icon_artic-2" data-name="icon_artic"><path class="cls-1" d="M24.86,14.55A10.57,10.57,0,0,0,14.31,25.11c0,3.5,2.2,6.32,3.65,8.19.23.3.45.58.64.83a3.42,3.42,0,0,1,.81,2.22l0,.44a2.47,2.47,0,0,0,0,3.16A2.46,2.46,0,0,0,21.18,44a1.44,1.44,0,0,0-.05.37A1.49,1.49,0,1,0,24.06,44h2a1.45,1.45,0,0,0,0,.35,1.49,1.49,0,0,0,3,0,1.55,1.55,0,0,0,0-.35h0A2.47,2.47,0,0,0,30.77,40a2.44,2.44,0,0,0,.59-1.61,2.47,2.47,0,0,0-.42-1.4l0-.66a5.16,5.16,0,0,1,.78-2.68,19.43,19.43,0,0,1,1.23-2c1.17-1.76,2.49-3.74,2.49-6.47A10.56,10.56,0,0,0,24.86,14.55Zm4,28.09H21.26c-.36,0-.76-.46-.76-1.07s.4-1.07.76-1.07h7.57c.36,0,.76.46.76,1.07S29.18,42.64,28.82,42.64Zm-7.41-5.37H29c.36,0,.76.46.76,1.07s-.4,1.07-.76,1.07H21.41c-.36,0-.76-.46-.76-1.07s.4-1.07.76-1.07Zm9.48-7a21.4,21.4,0,0,0-1.39,2.29,10,10,0,0,0-1,2.84H21.77a6.53,6.53,0,0,0-1.2-2.67c-.2-.27-.43-.57-.68-.89-1.32-1.7-3.14-4-3.14-6.69a8.11,8.11,0,0,1,16.22,0C33,27.1,32,28.62,30.89,30.23Z"/><path class="cls-1" d="M25,12.23a1,1,0,0,0,1-1h0V5.14a1,1,0,0,0-2,0v6.08a1,1,0,0,0,1,1Z"/><path class="cls-1" d="M12,18.44l-5.26-3a1,1,0,1,0-1,1.76h0l5.26,3a1,1,0,1,0,1-1.76h0Z"/><path class="cls-1" d="M44.65,15.77a1,1,0,0,0-1.39-.37l-5.26,3a1,1,0,0,0,1,1.76l5.26-3a1,1,0,0,0,.37-1.39Z"/><path class="cls-1" d="M15.33,14a1,1,0,1,0,1.77-1l-3-5.26a1,1,0,0,0-1.76,1Z"/><path class="cls-1" d="M33.28,14.36A1,1,0,0,0,34.67,14l3-5.26a1,1,0,1,0-1.76-1h0L32.9,13A1,1,0,0,0,33.28,14.36Z"/></g></svg>