<?xml version="1.0" encoding="utf-8"?>
<!-- Generator: Adobe Illustrator 21.1.0, SVG Export Plug-In . SVG Version: 6.00 Build 0)  -->
<svg version="1.1" id="圖層_1" xmlns="http://www.w3.org/2000/svg" xmlns:xlink="http://www.w3.org/1999/xlink" x="0px" y="0px"
	 viewBox="0 0 50 50" style="enable-background:new 0 0 50 50;" xml:space="preserve">
<title>icon_mission_people</title>
<g id="icon_menu_meetchat">
	<path d="M16.4,22.5c3,0,5.4-2.4,5.4-5.4s-2.4-5.4-5.4-5.4S11,14.1,11,17.1S13.4,22.5,16.4,22.5L16.4,22.5z M16.4,13.6
		c1.9,0,3.4,1.5,3.4,3.4s-1.5,3.4-3.4,3.4S13,18.9,13,17l0,0C13,15.1,14.5,13.6,16.4,13.6L16.4,13.6z M34.7,18c2.4,0,4.4-2,4.4-4.4
		s-2-4.4-4.4-4.4s-4.4,2-4.4,4.4S32.2,18,34.7,18C34.6,18,34.6,18,34.7,18z M34.7,11.1c1.3,0,2.4,1.1,2.4,2.4s-1.1,2.4-2.4,2.4
		c-1.3,0-2.4-1.1-2.4-2.4C32.2,12.2,33.3,11.1,34.7,11.1C34.6,11.1,34.6,11.1,34.7,11.1L34.7,11.1z M47.9,29.2h-5.4
		c-1-7.7-4.8-9.4-7.9-9.4s-6.9,1.6-7.9,9.4h-2.9c-2-3.7-4.9-4.7-7.5-4.7c-3.2,0-6.1,1.8-7.5,4.7H2c-0.5,0.1-0.8,0.7-0.7,1.2
		C1.4,30.7,1.7,31,2,31.1h6c-0.9,2.4-1.4,5-1.5,7.6c0,0.1,0,0.2,0.1,0.3c-0.1,0.5,0.1,1,0.6,1.2c6,2.4,12.6,2.4,18.6,0
		c0.5-0.2,0.7-0.7,0.6-1.2c0-0.1,0.1-0.2,0.1-0.3c-0.2-2.6-0.7-5.1-1.5-7.6h23c0.6,0,1-0.4,1-1C49,29.6,48.5,29.2,47.9,29.2
		L47.9,29.2z M16.4,40.2c-2.7,0-5.4-0.5-7.9-1.4c0.1-2.9,0.9-5.8,2.1-8.5c1-2.3,3.3-3.8,5.8-3.7c2.5,0,4.4,1.3,5.8,3.7
		c1.3,2.6,2,5.5,2.1,8.5C21.8,39.7,19.1,40.1,16.4,40.2z M28.8,29.2c0.7-4.9,2.7-7.4,5.9-7.4s5.2,2.5,5.9,7.4H28.8z"/>
</g>
</svg>
