<svg xmlns="http://www.w3.org/2000/svg" viewBox="0 0 50 50"><title>icon_pair_08</title><g id="icon_pair_08"><g id="Your_Icon" data-name="Your Icon"><path d="M24.48,28.62H13.57a.95.95,0,0,1,0-1.9H24.48a.95.95,0,0,1,0,1.9Z"/><path d="M36.87.66A2.56,2.56,0,0,0,35.29,0H9.85a.93.93,0,0,0-.92.93V3.85H6a.93.93,0,0,0-.93.93v44.3A.93.93,0,0,0,6,50H40.15a.93.93,0,0,0,.93-.93V46.15H44a.93.93,0,0,0,.93-.93V9.66a2.58,2.58,0,0,0-.65-1.58ZM39.8,47.81a.93.93,0,0,1-.92.92H7.26a.93.93,0,0,1-.92-.92V6a.93.93,0,0,1,.92-.92H8.93V45.22a.93.93,0,0,0,.92.93h30ZM43.66,44a.93.93,0,0,1-.93.92H11.12A.93.93,0,0,1,10.2,44V2.12a.93.93,0,0,1,.92-.92h23.8V9.28a.72.72,0,0,0,.72.73h8V44Z"/><path d="M20.61,5.19h-7a.95.95,0,0,1,0-1.9h7a.95.95,0,0,1,0,1.9Z"/><path d="M20.61,9h-7a.95.95,0,0,1,0-1.9h7a.95.95,0,0,1,0,1.9Z"/><path d="M24.48,14.18H13.57a.95.95,0,0,1,0-1.9H24.48a.95.95,0,0,1,0,1.9Z"/><path d="M24.48,17.79H13.57a.95.95,0,0,1,0-1.9H24.48a.95.95,0,0,1,0,1.9Z"/><path d="M24.48,21.4H13.57a.95.95,0,0,1,0-1.9H24.48a.95.95,0,0,1,0,1.9Z"/><path d="M24.48,25H13.57a.95.95,0,0,1,0-1.9H24.48a.95.95,0,0,1,0,1.9Z"/><path d="M40,27.06H29.1a.95.95,0,0,0,0,1.9H40a.95.95,0,0,0,0-1.9Z"/><path d="M40,41.5H29.1a.95.95,0,0,0,0,1.9H40a.95.95,0,0,0,0-1.9Z"/><path d="M40,37.89H29.1a.95.95,0,0,0,0,1.9H40a.95.95,0,0,0,0-1.9Z"/><path d="M40,34.28H29.1a.95.95,0,0,0,0,1.9H40a.95.95,0,0,0,0-1.9Z"/><path d="M40,30.67H29.1a.95.95,0,0,0,0,1.9H40a.95.95,0,0,0,0-1.9Z"/><path d="M25.42,42.48a.93.93,0,0,1-.92.93h-11a.93.93,0,0,1-.92-.93v-11a.93.93,0,0,1,.92-.92h11a.93.93,0,0,1,.92.92Z"/><path d="M41,13.2a.93.93,0,0,0-.92-.92h-11a.93.93,0,0,0-.93.92v11a.93.93,0,0,0,.93.92H40a.93.93,0,0,0,.92-.92Z"/></g></g></svg>