<svg xmlns="http://www.w3.org/2000/svg" viewBox="0 0 50 50"><title>icon_pair_06</title><g id="icon_pair_06"><path d="M7.86,50h1V42.42h-1ZM25.4,24.46a.76.76,0,0,1,.76.75h.7a1.45,1.45,0,0,0-2.91,0h.7A.76.76,0,0,1,25.4,24.46ZM16.78,1a1,1,0,0,0-2.1,0V32h2.1Zm16.55,23.9A1.39,1.39,0,0,1,36,24.47l.13.34.34-.14a.86.86,0,0,1,1.15.54h.73a1.57,1.57,0,0,0-1.54-1.3l-.28,0a2.09,2.09,0,0,0-3.9,1v.26h.7v-.26Zm-3.44-.71a1.39,1.39,0,1,0-1.39-1.39A1.39,1.39,0,0,0,29.9,24.24Zm0-2.07a.69.69,0,1,1-.69.69A.69.69,0,0,1,29.9,22.17Zm-3-1.17a1.6,1.6,0,1,0-1.6-1.6A1.6,1.6,0,0,0,26.92,21Zm0-2.5a.9.9,0,1,1-.9.9A.9.9,0,0,1,26.92,18.49ZM14.16,50h1.05V42.42H14.16Zm5.48-16.91H11.83a4,4,0,0,0-4,4v4.31H23.61V37.06A4,4,0,0,0,19.65,33.09ZM22.56,50h1V42.42h-1ZM21.08,26.26a1,1,0,0,0,0,2.1h.62L22,32.57a5.05,5.05,0,0,1,2.73,4.48V50h13a1.51,1.51,0,0,0,1.48-1.39l1.27-20.25h.62a1,1,0,1,0,0-2.1Zm10,8.16a9.49,9.49,0,0,1-8.88-6.06h1.52a8.14,8.14,0,0,0,14.72,0H40A9.5,9.5,0,0,1,31.08,34.42ZM20.46,50h1V42.42h-1Zm-8.4,0h1.05V42.42H12.06ZM10,50h1V42.42H10Zm8.4,0h1V42.42h-1Zm-2.1,0h1V42.42h-1Z"/></g></svg>