<svg xmlns="http://www.w3.org/2000/svg" viewBox="0 0 50 50"><defs><style>.cls-1{fill:#fff;}</style></defs><title>icon_deposit_bonus3</title><g id="icon_deposit"><path class="cls-1" d="M32.29,32.92A2.92,2.92,0,0,0,37,35.23a2.94,2.94,0,1,0,0-4.62,2.91,2.91,0,0,0-1.8-.63,2.94,2.94,0,0,0-2.94,2.94M22.76,34a.65.65,0,0,0,.65.65h3.13a.65.65,0,0,0,0-1.31H23.41a.65.65,0,0,0-.65.65m-7.84,0a.65.65,0,0,0,.65.65h5.29a.65.65,0,1,0,0-1.31H15.57a.65.65,0,0,0-.65.65M8.13,34a.65.65,0,0,0,.65.65H13a.65.65,0,0,0,0-1.31H8.78a.65.65,0,0,0-.65.65M44,14.9v2.42H5.6V14.9a2.88,2.88,0,0,1,3-3H41a2.88,2.88,0,0,1,3,3M5.6,35.1V22.22H44V35.1a2.88,2.88,0,0,1-3,3H8.56a2.88,2.88,0,0,1-3-3m39.18,0V14.9A3.64,3.64,0,0,0,41,11.12H8.56A3.64,3.64,0,0,0,4.78,14.9V35.1a3.64,3.64,0,0,0,3.78,3.78H41a3.64,3.64,0,0,0,3.78-3.78"/></g></svg>