<svg xmlns="http://www.w3.org/2000/svg" viewBox="0 0 50 50"><title>icon_report_mylove</title><g id="icon_report_mylove"><g id="Слой_2" data-name="Слой 2"><path d="M20.16,32.82l-4.27-11H14.62l-4.39,11a4.1,4.1,0,0,0-.62.2,3.89,3.89,0,0,0-.59.3V34h4.21v-.65a4.09,4.09,0,0,0-1.48-.49l1-2.71h3.78l1,2.71a5,5,0,0,0-.71.2q-.38.14-.7.29V34h5.33v-.65a3,3,0,0,0-.59-.3A4.63,4.63,0,0,0,20.16,32.82Zm-7-3.81,1.17-3.22.37-1.5h0l.32,1.46L16.17,29Z"/><path d="M44.81,5.84H23.73A1.69,1.69,0,0,0,22,7.53V16H4.34a.84.84,0,0,0-.84.84V38.72a.84.84,0,0,0,.84.84h7.59v3.75a.84.84,0,0,0,1.36.67L19,39.56h8.14a.84.84,0,0,0,.84-.84V29.45h1.83a2,2,0,0,1,1,.34l4.44,3.53a1.41,1.41,0,0,0,.87.33,1.2,1.2,0,0,0,1.16-1.31V29.45h7.59a1.69,1.69,0,0,0,1.69-1.69V7.52A1.69,1.69,0,0,0,44.81,5.84Zm-18.55,32H18.68a.85.85,0,0,0-.52.18l-4.54,3.54V38.72a.84.84,0,0,0-.84-.84H5.19V17.66H22v10.1a1.69,1.69,0,0,0,1.69,1.69h2.53ZM44.81,27.76H37.22a1.69,1.69,0,0,0-1.69,1.69v2l-3.73-3a3.62,3.62,0,0,0-2-.71h-6V7.53H44.81Z"/><path d="M27.45,25.18h.95v-.75h3.68V19.71H27.45v5.46Zm.94-4.55h2.72v2.88H28.4Z"/><rect x="26.71" y="13.05" width="5.88" height="0.91"/><rect x="27.56" y="10.89" width="4.42" height="0.88"/><path d="M33.91,25.21h1v-.74h4.68v.64h1V19.38H33.91Zm1-4.85h4.68v3.12H34.93Z"/><path d="M41.77,17.07h-1.6V13.69H36.52l.27-1.79h4.39v-1h-8v1h2.53c-.1.56-.19,1.19-.29,1.79H33.54v1H35.3c-.16.88-.32,1.71-.46,2.42H32.64v1h9.13v-1Zm-2.64,0H35.91c.15-.7.3-1.55.45-2.42h2.77Z"/><rect x="27.47" y="15.29" width="4.56" height="0.88"/><rect x="27.47" y="17.5" width="4.56" height="0.88"/></g></g></svg>