<svg xmlns="http://www.w3.org/2000/svg" viewBox="0 0 50 50"><title>icon_pair_07</title><g id="icon_pair_07"><path d="M38,17a6.44,6.44,0,0,0,1.71-4.39A6.51,6.51,0,1,0,28.24,16.8c-1.26,1.1-2.56,2.73-2.56,3.93v7.32a3.42,3.42,0,0,0,2.46,3.27V43.9h1.94V31.48h5.63V43.85h1.94V31.42a3.42,3.42,0,0,0,2.87-3.37V20.74C40.52,19.53,39.22,18,38,17Zm.56,11.07a1.49,1.49,0,0,1-1.49,1.49h-8a1.49,1.49,0,0,1-1.49-1.49V20.74a7,7,0,0,1,2.62-3L31.33,17l-1-.82a4.58,4.58,0,1,1,5.63.12l-1.08.81,1.11.77a7.23,7.23,0,0,1,2.61,2.9v7.32Z"/><path d="M48.68,28.88a3.65,3.65,0,0,0,.89-2.4A3.68,3.68,0,1,0,43,28.77a3.63,3.63,0,0,0-1.36,2.17v4a2,2,0,0,0,1,1.73v7.24h1.94v-7h2.21v6.93h1.94V36.79A2,2,0,0,0,50,34.95v-4A3.42,3.42,0,0,0,48.68,28.88Zm-4.36.49.72-.48-.67-.55a2.35,2.35,0,0,1-.74-2.63,4.45,4.45,0,0,0,1.46-1.21l3,1.12a2.37,2.37,0,0,1-.8,2.79l-.72.54.74.51a4.09,4.09,0,0,1,1.38,1.49v4a.7.7,0,0,1-.7.7H43.64a.7.7,0,0,1-.7-.7v-4A3.83,3.83,0,0,1,44.32,29.37Z"/><path d="M23.29,22.42A6.12,6.12,0,0,0,22,18.94a6.32,6.32,0,0,0,.46-.64h1.39l-.43-2.54a7.13,7.13,0,0,0,.09-1.12,5.84,5.84,0,0,0-5.7-6.09,5.84,5.84,0,0,0-5.7,6.09,7.08,7.08,0,0,0,.08,1l-.4,2.37h1.22a6.26,6.26,0,0,0,.47.71,6.54,6.54,0,0,0-1.09,3.66l-.91,6.29v.14a3.22,3.22,0,0,0,3.07,3.34h.08V43.91h1.94V32.21h2.61v11.7h1.94V32.21h.23a3.22,3.22,0,0,0,3.07-3.34Zm-1.91,7.86h-6.8a1.28,1.28,0,0,1-1.13-1.34l.91-6.28v-.14a3.92,3.92,0,0,1,1.07-2.95l.91-.7-.84-.78a4.68,4.68,0,0,1-1.43-3.44A4.16,4.16,0,0,1,15.94,11c1.07.62,3.9,2.27,5.64,3.15,0,.15,0,.31,0,.47A4.67,4.67,0,0,1,20,18.2l-.91.77.93.74a4,4,0,0,1,1.29,2.81l1.15,6.43A1.28,1.28,0,0,1,21.38,30.28Z"/><path d="M9.14,33.05l0-3.73c0-.67-.73-1.47-1.4-2.06a3.68,3.68,0,0,0,1-2.4,3.53,3.53,0,0,0-3.35-3.68A3.53,3.53,0,0,0,2,24.87,3.66,3.66,0,0,0,3,27.17c-.59.53-1.44,1.43-1.44,2.16v3.6L0,37.19H2l0,6.7H3.28l0-6.7H6.15v6.72H7.44V37.2H10.8ZM1.84,35.9l1-2.75v-3.8a5,5,0,0,1,1.48-1.62l.61-.47-.57-.52a2.91,2.91,0,0,1-1-1.88,2.45,2.45,0,0,1,1.12-2.12l2.76,1a2.65,2.65,0,0,1,.24,1.09,2.88,2.88,0,0,1-1.11,1.94l-.61.51.63.49a5.59,5.59,0,0,1,1.47,1.52l0,4,1,2.61Z"/><path d="M8.76,27.32a1.75,1.75,0,0,0,1.71.28,1.51,1.51,0,0,0-1.9-1.23S8,26.65,8.76,27.32Z"/><polygon points="31.91 17.53 34.07 17.53 33.52 19.14 32.4 19.14 31.91 17.53"/><polygon points="32.42 19.57 33.5 19.57 34.25 25.87 32.59 27.05 31.29 25.71 32.42 19.57"/></g></svg>