<svg xmlns="http://www.w3.org/2000/svg" viewBox="0 0 50 50"><defs><style>.cls-1{fill:#ff7578;}</style></defs><title>icon_report_person2</title><g id="icon_report_person"><path class="cls-1" d="M23.76,28.31c3.42,0,6.2-3.38,6.2-7.55s-2.78-7.55-6.2-7.55a5.68,5.68,0,0,0-4.45,2.28,8.42,8.42,0,0,0-1.75,5.27C17.56,24.92,20.34,28.31,23.76,28.31Zm0-13.44c2.51,0,4.55,2.64,4.55,5.89s-2,5.89-4.55,5.89S19.21,24,19.21,20.76,21.25,14.87,23.76,14.87ZM29,27.48a.83.83,0,1,0,0,1.65,5.13,5.13,0,0,1,5.13,5.13.66.66,0,0,1-.66.66H14.08a.66.66,0,0,1-.66-.66,5.13,5.13,0,0,1,5.13-5.13.83.83,0,1,0,0-1.65,6.79,6.79,0,0,0-6.78,6.78,2.32,2.32,0,0,0,2.31,2.31H33.43a2.32,2.32,0,0,0,2.32-2.31A6.79,6.79,0,0,0,29,27.48ZM24.36,12.3a3.65,3.65,0,0,1,1.88-.53c2.51,0,4.55,2.64,4.55,5.89a7.41,7.41,0,0,1-.19,1.7.83.83,0,0,0,.62,1l.19,0a.83.83,0,0,0,.8-.64,9.13,9.13,0,0,0,.24-2.08c0-4.16-2.78-7.55-6.2-7.55a5.35,5.35,0,0,0-2.72.76.83.83,0,0,0,.84,1.42Zm7.25,11.88a.83.83,0,0,0,0,1.65,5,5,0,0,1,5,5.18.67.67,0,0,1-.06.27.83.83,0,0,0,.42,1.09.81.81,0,0,0,.33.07A.83.83,0,0,0,38,32a2.33,2.33,0,0,0,.2-.94A6.7,6.7,0,0,0,31.62,24.17Z"/><path class="cls-1" d="M25,46.5A21.5,21.5,0,1,1,46.5,25,21.52,21.52,0,0,1,25,46.5ZM25,5.15A19.85,19.85,0,1,0,44.85,25,19.87,19.87,0,0,0,25,5.15Z"/></g></svg>