<svg xmlns="http://www.w3.org/2000/svg" viewBox="0 0 50 50"><title>icon_setting</title><g id="icon_setting"><path d="M41,4.74H9A4.23,4.23,0,0,0,4.74,9V41A4.23,4.23,0,0,0,9,45.26H41A4.23,4.23,0,0,0,45.26,41V9A4.23,4.23,0,0,0,41,4.74ZM43.57,41A2.54,2.54,0,0,1,41,43.57H9A2.54,2.54,0,0,1,6.43,41V9A2.54,2.54,0,0,1,9,6.43H41A2.54,2.54,0,0,1,43.57,9Z"/><path d="M25.84,27.61v-17a.84.84,0,0,0-1.69,0v17a5.06,5.06,0,0,0,0,10v1.76a.84.84,0,0,0,1.69,0V37.59a5.06,5.06,0,0,0,0-10ZM25,36a3.38,3.38,0,1,1,3.38-3.38A3.38,3.38,0,0,1,25,36Z"/><path d="M19.93,17.4a5.07,5.07,0,0,0-4.22-5V10.65a.84.84,0,1,0-1.69,0v1.76a5.06,5.06,0,0,0,0,10v17a.84.84,0,1,0,1.69,0v-17A5.07,5.07,0,0,0,19.93,17.4Zm-5.07,3.38a3.38,3.38,0,1,1,3.38-3.38A3.38,3.38,0,0,1,14.87,20.78Z"/><path d="M36,17.48V10.65a.84.84,0,1,0-1.69,0v6.83a5.06,5.06,0,0,0,0,10v11.9a.84.84,0,1,0,1.69,0V27.46a5.06,5.06,0,0,0,0-10Zm-.84,8.37a3.38,3.38,0,1,1,3.38-3.38A3.38,3.38,0,0,1,35.13,25.84Z"/></g></svg>