<svg xmlns="http://www.w3.org/2000/svg" viewBox="0 0 50 100"><defs><style>.cls-1{fill:#fff;}</style></defs><title>icon_menu_coffee</title><g id="icon_menu_coffee"><path d="M13,37a4.78,4.78,0,0,0,4.78,4.78h11.7A4.78,4.78,0,0,0,34.3,37v-17H13Zm0-18.61H34.3a1.59,1.59,0,0,1,1.6,1.59V37a6.38,6.38,0,0,1-6.38,6.38H17.82A6.38,6.38,0,0,1,11.44,37v-17A1.6,1.6,0,0,1,13,18.35ZM35.9,19.95a6.91,6.91,0,0,1,0,13.78v-1.6a5.32,5.32,0,0,0,0-10.58v-1.6ZM7.72,45.2a.8.8,0,0,1,.8-.8H38.82a.8.8,0,0,1,0,1.59H8.52A.8.8,0,0,1,7.72,45.2Zm10-39.61a7.58,7.58,0,0,1,.5.74,4.33,4.33,0,0,1,.69,2.1c0,.41-.19.64-1,1.19-1.21.85-1.68,1.4-1.68,2.53a6,6,0,0,0,.9,3A8.64,8.64,0,0,0,18,16.39a.8.8,0,0,0,1.21-1L19,15.08a8,8,0,0,1-.5-.77,4.55,4.55,0,0,1-.69-2.16c0-.43.2-.66,1-1.22,1.2-.84,1.67-1.39,1.67-2.51a5.81,5.81,0,0,0-.91-2.91,8.23,8.23,0,0,0-.89-1.25.8.8,0,1,0-1.19,1.06Zm4.78,0a7.58,7.58,0,0,1,.5.74,4.33,4.33,0,0,1,.69,2.1c0,.41-.19.64-1,1.19C21.49,10.47,21,11,21,12.15a6,6,0,0,0,.9,3,8.64,8.64,0,0,0,.88,1.29.8.8,0,0,0,1.21-1l-.21-.27a8,8,0,0,1-.5-.77,4.55,4.55,0,0,1-.69-2.16c0-.43.2-.66,1-1.22,1.2-.84,1.67-1.39,1.67-2.51a5.81,5.81,0,0,0-.91-2.91,8.23,8.23,0,0,0-.89-1.25.8.8,0,1,0-1.19,1.06Zm4.78,0a7.58,7.58,0,0,1,.5.74,4.33,4.33,0,0,1,.69,2.1c0,.41-.19.64-1,1.19-1.21.85-1.68,1.4-1.68,2.53a6,6,0,0,0,.9,3,8.64,8.64,0,0,0,.88,1.29.8.8,0,0,0,1.21-1l-.21-.27a8,8,0,0,1-.5-.77,4.55,4.55,0,0,1-.69-2.16c0-.43.2-.66,1-1.22,1.2-.84,1.67-1.39,1.67-2.51a5.81,5.81,0,0,0-.91-2.91,8.23,8.23,0,0,0-.89-1.25.8.8,0,1,0-1.19,1.06Z"/><path class="cls-1" d="M13,87a4.78,4.78,0,0,0,4.78,4.78h11.7A4.78,4.78,0,0,0,34.3,87v-17H13Zm0-18.61H34.3a1.59,1.59,0,0,1,1.6,1.59V87a6.38,6.38,0,0,1-6.38,6.38H17.82A6.38,6.38,0,0,1,11.44,87v-17A1.6,1.6,0,0,1,13,68.35ZM35.9,69.95a6.91,6.91,0,0,1,0,13.78v-1.6a5.32,5.32,0,0,0,0-10.58v-1.6ZM7.72,95.2a.8.8,0,0,1,.8-.8H38.82a.8.8,0,0,1,0,1.59H8.52A.8.8,0,0,1,7.72,95.2Zm10-39.61a7.58,7.58,0,0,1,.5.74,4.33,4.33,0,0,1,.69,2.1c0,.41-.19.64-1,1.19-1.21.85-1.68,1.4-1.68,2.53a6,6,0,0,0,.9,3A8.64,8.64,0,0,0,18,66.39a.8.8,0,0,0,1.21-1L19,65.08a8,8,0,0,1-.5-.77,4.55,4.55,0,0,1-.69-2.16c0-.43.2-.66,1-1.22,1.2-.84,1.67-1.39,1.67-2.51a5.81,5.81,0,0,0-.91-2.91,8.23,8.23,0,0,0-.89-1.25.8.8,0,1,0-1.19,1.06Zm4.78,0a7.58,7.58,0,0,1,.5.74,4.33,4.33,0,0,1,.69,2.1c0,.41-.19.64-1,1.19C21.49,60.47,21,61,21,62.15a6,6,0,0,0,.9,3,8.64,8.64,0,0,0,.88,1.29.8.8,0,0,0,1.21-1l-.21-.27a8,8,0,0,1-.5-.77,4.55,4.55,0,0,1-.69-2.16c0-.43.2-.66,1-1.22,1.2-.84,1.67-1.39,1.67-2.51a5.81,5.81,0,0,0-.91-2.91,8.23,8.23,0,0,0-.89-1.25.8.8,0,1,0-1.19,1.06Zm4.78,0a7.58,7.58,0,0,1,.5.74,4.33,4.33,0,0,1,.69,2.1c0,.41-.19.64-1,1.19-1.21.85-1.68,1.4-1.68,2.53a6,6,0,0,0,.9,3,8.64,8.64,0,0,0,.88,1.29.8.8,0,0,0,1.21-1l-.21-.27a8,8,0,0,1-.5-.77,4.55,4.55,0,0,1-.69-2.16c0-.43.2-.66,1-1.22,1.2-.84,1.67-1.39,1.67-2.51a5.81,5.81,0,0,0-.91-2.91,8.23,8.23,0,0,0-.89-1.25.8.8,0,1,0-1.19,1.06Z"/></g></svg>