<svg xmlns="http://www.w3.org/2000/svg" viewBox="0 0 50 100"><defs><style>.cls-1{fill:#fff;}</style></defs><title>icon_menu_mail</title><g id="icon_menu_setting"><path d="M41.8,10.67H8.2a3.71,3.71,0,0,0-3.7,3.7V35.62a3.71,3.71,0,0,0,3.7,3.7H41.8a3.71,3.71,0,0,0,3.7-3.7V14.38A3.71,3.71,0,0,0,41.8,10.67ZM44,14.38V35.62a2.19,2.19,0,0,1-.26,1L31.3,25,43.76,13.37A2.19,2.19,0,0,1,44,14.38ZM41.8,12.16a2.21,2.21,0,0,1,.89.19l-16,15a2.5,2.5,0,0,1-3.32,0l-16-15a2.21,2.21,0,0,1,.89-.19ZM6.24,36.63a2.19,2.19,0,0,1-.26-1V14.38a2.19,2.19,0,0,1,.26-1L18.7,25Zm2,1.21a2.21,2.21,0,0,1-.89-.19L19.79,26l2.54,2.37a4,4,0,0,0,5.35,0L30.21,26,42.68,37.66a2.21,2.21,0,0,1-.89.19Z"/><path class="cls-1" d="M41.8,60.67H8.2a3.71,3.71,0,0,0-3.7,3.7V85.62a3.71,3.71,0,0,0,3.7,3.7H41.8a3.71,3.71,0,0,0,3.7-3.7V64.38A3.71,3.71,0,0,0,41.8,60.67ZM44,64.38V85.62a2.19,2.19,0,0,1-.26,1L31.3,75,43.76,63.37A2.19,2.19,0,0,1,44,64.38ZM41.8,62.16a2.21,2.21,0,0,1,.89.19l-16,15a2.5,2.5,0,0,1-3.32,0l-16-15a2.21,2.21,0,0,1,.89-.19ZM6.24,86.63a2.19,2.19,0,0,1-.26-1V64.38a2.19,2.19,0,0,1,.26-1L18.7,75Zm2,1.21a2.21,2.21,0,0,1-.89-.19L19.79,76l2.54,2.37a4,4,0,0,0,5.35,0L30.21,76,42.68,87.66a2.21,2.21,0,0,1-.89.19Z"/></g></svg>