<svg xmlns="http://www.w3.org/2000/svg" viewBox="0 0 50 50"><title>icon_message</title><g id="icon_message"><path d="M37.41,44.7a.46.46,0,0,1-.26-.05l-11-6.19H23.49a.51.51,0,1,1,0-1H26.3a.46.46,0,0,1,.26.05L36.9,43.32V37.95a.48.48,0,0,1,.51-.51h3.84a3.87,3.87,0,0,0,3.84-3.84V15.74a.51.51,0,0,1,1,0V33.6a4.89,4.89,0,0,1-4.86,4.86H37.92v5.73a.54.54,0,0,1-.26.46A2.22,2.22,0,0,1,37.41,44.7Z"/><path d="M12.59,41.07a.46.46,0,0,1-.26-.05.54.54,0,0,1-.26-.46V34.83H8.75A4.89,4.89,0,0,1,3.89,30V12.16A4.89,4.89,0,0,1,8.75,7.3H36.28a4.89,4.89,0,0,1,4.86,4.86V30a4.89,4.89,0,0,1-4.86,4.86H23.85L12.85,41A.38.38,0,0,1,12.59,41.07ZM8.75,8.32a3.87,3.87,0,0,0-3.84,3.84V30a3.87,3.87,0,0,0,3.84,3.84h3.84a.48.48,0,0,1,.51.51v5.37l10.34-5.83a.38.38,0,0,1,.26-.05H36.28A3.87,3.87,0,0,0,40.12,30V12.16a3.87,3.87,0,0,0-3.84-3.84Z"/><circle cx="13.46" cy="22.19" r="2"/><circle cx="22.52" cy="22.19" r="2"/><circle cx="31.78" cy="22.19" r="2"/></g></svg>