<svg xmlns="http://www.w3.org/2000/svg" viewBox="0 0 51 50"><title>icon_menu_chat</title><g id="icon_menu_chat"><path d="M37.91,43.7a.46.46,0,0,1-.26-.05l-11-6.19H24a.51.51,0,1,1,0-1H26.8a.46.46,0,0,1,.26.05L37.4,42.32V36.95a.48.48,0,0,1,.51-.51h3.84a3.87,3.87,0,0,0,3.84-3.84V14.74a.51.51,0,0,1,1,0V32.6a4.89,4.89,0,0,1-4.86,4.86H38.42v5.73a.54.54,0,0,1-.26.46A2.22,2.22,0,0,1,37.91,43.7Z"/><path d="M13.09,40.07a.46.46,0,0,1-.26-.05.54.54,0,0,1-.26-.46V33.83H9.25A4.89,4.89,0,0,1,4.39,29V11.16A4.89,4.89,0,0,1,9.25,6.3H36.78a4.89,4.89,0,0,1,4.86,4.86V29a4.89,4.89,0,0,1-4.86,4.86H24.35L13.35,40A.38.38,0,0,1,13.09,40.07ZM9.25,7.32a3.87,3.87,0,0,0-3.84,3.84V29a3.87,3.87,0,0,0,3.84,3.84h3.84a.48.48,0,0,1,.51.51v5.37l10.34-5.83a.38.38,0,0,1,.26-.05H36.78A3.87,3.87,0,0,0,40.62,29V11.16a3.87,3.87,0,0,0-3.84-3.84Z"/><circle cx="13.96" cy="21.19" r="2"/><circle cx="23.02" cy="21.19" r="2"/><circle cx="32.28" cy="21.19" r="2"/></g></svg>