<?xml version="1.0" encoding="utf-8"?>
<!-- Generator: Adobe Illustrator 20.1.0, SVG Export Plug-In . SVG Version: 6.00 Build 0)  -->
<svg version="1.1" id="圖層_1" xmlns="http://www.w3.org/2000/svg" xmlns:xlink="http://www.w3.org/1999/xlink" x="0px" y="0px"
	 viewBox="0 0 100 100" style="enable-background:new 0 0 100 100;" xml:space="preserve">
<style type="text/css">
	.st0{display:none;}
	.st1{display:inline;}
	.st2{fill:#FFFFFF;}
</style>
<g class="st0">
	<path class="st1" d="M1276,207.4H-40c-1.7,0-3-1.4-3-3V-1110c0-1.7,1.3-3,3-3h1316c1.7,0,3,1.3,3,3V204.4
		C1279,206.1,1277.7,207.4,1276,207.4z"/>
</g>
<g>
	<path class="st2" d="M39.6,24.8c0.8,0,1.5-0.6,1.5-1.5v-3c0-4.1-3.3-7.4-7.4-7.4h-1.5c-4.1,0-7.4,3.3-7.4,7.4v3
		c0,0.8,0.6,1.5,1.5,1.5c0.8,0,1.5-0.6,1.5-1.5l0,0v-2.9c0-2.5,2-4.5,4.5-4.5h1.5c2.5,0,4.5,2,4.5,4.5v2.9l0,0
		C38.2,24.1,38.8,24.8,39.6,24.8z"/>
	<path class="st2" d="M73.7,24.8c0.8,0,1.5-0.6,1.5-1.5v-3c0-4.1-3.3-7.4-7.4-7.4h-1.5c-4.1,0-7.4,3.3-7.4,7.4v3
		c0,0.8,0.6,1.5,1.5,1.5c0.8,0,1.5-0.6,1.5-1.5l0,0v-2.9c0-2.5,2-4.5,4.5-4.5h1.5c2.5,0,4.5,2,4.5,4.5v2.9l0,0
		C72.3,24.1,72.9,24.8,73.7,24.8z"/>
	<path class="st2" d="M17.4,42.9c5,0,9.1-4.1,9.1-9.1s-4.1-9.1-9.1-9.1s-9.1,4.1-9.1,9.1S12.4,42.9,17.4,42.9z M17.4,27.5
		c3.4,0,6.2,2.8,6.2,6.2S20.9,40,17.4,40s-6.2-2.8-6.2-6.2S14,27.5,17.4,27.5z"/>
	<path class="st2" d="M20.7,44.3h-6.5c-5.1,0-9.2,4.1-9.2,9.2V67c0,2.5,1.8,4.6,4.1,5.1v9.8c0,2.9,2.3,5.2,5.2,5.2h6.3
		c2.9,0,5.2-2.3,5.2-5.2V72c2.4-0.5,4.1-2.6,4.1-5.1V53.5C29.9,48.4,25.8,44.3,20.7,44.3z M27,67c0,1.3-1,2.3-2.3,2.3h-1.9v12.6
		c0,1.3-1,2.3-2.3,2.3h-6.3c-1.3,0-2.3-1-2.3-2.3V69.2h-1.9c-1.3,0-2.3-1-2.3-2.3V53.5c0-3.5,2.8-6.3,6.3-6.3h6.5
		c3.5,0,6.3,2.8,6.3,6.3V67z"/>
	<path class="st2" d="M53.3,44.3h-6.5c-5.1,0-9.2,4.1-9.2,9.2V67c0,2.5,1.8,4.6,4.1,5.1v9.8c0,2.9,2.3,5.2,5.2,5.2h6.3
		c2.9,0,5.2-2.3,5.2-5.2V72c2.4-0.5,4.1-2.6,4.1-5.1V53.5C62.4,48.4,58.3,44.3,53.3,44.3z M59.5,67c0,1.3-1,2.3-2.3,2.3h-1.9v12.6
		c0,1.3-1,2.3-2.3,2.3h-6.3c-1.3,0-2.3-1-2.3-2.3V69.2h-1.9c-1.3,0-2.3-1-2.3-2.3V53.5c0-3.5,2.8-6.3,6.3-6.3h6.5
		c3.5,0,6.3,2.8,6.3,6.3L59.5,67L59.5,67z"/>
	<path class="st2" d="M49.3,25c-4.1,0-7.4,3.3-7.4,7.4v2.9c0,4.1,3.3,7.4,7.4,7.4h1.5c4.1,0,7.4-3.3,7.4-7.4v-2.9
		c0-4.1-3.3-7.4-7.4-7.4H49.3z M55.2,32.3v2.9c0,2.5-2,4.5-4.5,4.5h-1.5c-2.5,0-4.5-2-4.5-4.5v-2.9c0-2.5,2-4.5,4.5-4.5h1.5
		C53.2,27.9,55.2,29.9,55.2,32.3z"/>
	<path class="st2" d="M85.8,44.3h-6.5c-5.1,0-9.2,4.1-9.2,9.2V67c0,2.5,1.8,4.6,4.1,5.1v9.8c0,2.9,2.3,5.2,5.2,5.2h6.3
		c2.9,0,5.2-2.3,5.2-5.2V72c2.4-0.5,4.1-2.6,4.1-5.1V53.5C95,48.4,90.9,44.3,85.8,44.3z M92.1,67c0,1.3-1,2.3-2.3,2.3H88v12.6
		c0,1.3-1,2.3-2.3,2.3h-6.3c-1.3,0-2.3-1-2.3-2.3V69.2h-1.9c-1.3,0-2.3-1-2.3-2.3V53.5c0-3.5,2.8-6.3,6.3-6.3h6.5
		c3.5,0,6.3,2.8,6.3,6.3V67z"/>
	<path class="st2" d="M81.8,42.7h1.5c4.1,0,7.4-3.3,7.4-7.4v-2.9c0-4.1-3.3-7.4-7.4-7.4h-1.5c-4.1,0-7.4,3.3-7.4,7.4v2.9
		C74.4,39.4,77.8,42.7,81.8,42.7z M77.3,32.3c0-2.5,2-4.5,4.5-4.5h1.5c2.5,0,4.5,2,4.5,4.5v2.9c0,2.5-2,4.5-4.5,4.5h-1.5
		c-2.5,0-4.5-2-4.5-4.5V32.3z"/>
</g>
</svg>
