<svg xmlns="http://www.w3.org/2000/svg" viewBox="0 0 50 100"><defs><style>.cls-1{fill:#fff;}</style></defs><title>icon_menu_music</title><g id="icon_menu_music"><path class="cls-1" d="M5,75A16.54,16.54,0,1,1,21.54,91.54,16.57,16.57,0,0,1,5,75ZM21.54,60.52A14.48,14.48,0,1,0,36,75,14.49,14.49,0,0,0,21.54,60.52Z"/><path class="cls-1" d="M40.95,67.83H40A1,1,0,0,1,39,66.73q0-1.91,0-3.83a1,1,0,0,1,1.1-1.11h.87c0-.11,0-.2,0-.29a9.58,9.58,0,0,1,0-1.11,1,1,0,0,1,1-.81,1,1,0,0,1,1,.85,5.76,5.76,0,0,1,0,.73c0,.2,0,.39,0,.63h.83A1,1,0,0,1,45,63q0,1.86,0,3.71a1,1,0,0,1-1.16,1.15H43v.32q0,6.56,0,13.12a1.57,1.57,0,0,1-.42,1.11c-1.21,1.35-2.4,2.72-3.59,4.08a1,1,0,0,1-1.11.33,1,1,0,0,1-.71-.86,1.06,1.06,0,0,1,.32-.88l3.25-3.69a.75.75,0,0,0,.21-.55q0-6.32,0-12.65ZM41,65.77h1.9V63.85H41Z"/><path class="cls-1" d="M27.39,75a5.85,5.85,0,1,1-5.85-5.85A5.87,5.87,0,0,1,27.39,75Zm-9.64,0a3.79,3.79,0,1,0,3.82-3.78A3.79,3.79,0,0,0,17.75,75Z"/><path class="cls-1" d="M22,87.67a5.58,5.58,0,0,1-.7,0,1,1,0,0,1,0-2c.4,0,.8,0,1.2-.08a10.45,10.45,0,0,0,8.09-5.16,10.19,10.19,0,0,0,1.48-5.32,1,1,0,1,1,2.06,0,12.23,12.23,0,0,1-1.58,6,12.55,12.55,0,0,1-9.17,6.42c-.23,0-.47.06-.7.08l-.71.05Z"/><path class="cls-1" d="M8.88,74.68A12.68,12.68,0,0,1,18.94,62.62a20.52,20.52,0,0,1,2.58-.28,1,1,0,0,1,1,.85,1,1,0,0,1-.68,1.13,1.8,1.8,0,0,1-.49.07,10.42,10.42,0,0,0-8.25,4.15,10.21,10.21,0,0,0-2.19,6c0,.19,0,.38,0,.57a1,1,0,0,1-1,.92,1,1,0,0,1-1-1C8.87,74.94,8.88,74.81,8.88,74.68Z"/><path class="cls-1" d="M22.56,75a1,1,0,1,1-2.05,0,1,1,0,0,1,1-1A1,1,0,0,1,22.56,75Z"/><path d="M5,25A16.54,16.54,0,1,1,21.54,41.54,16.57,16.57,0,0,1,5,25ZM21.54,10.52A14.48,14.48,0,1,0,36,25,14.49,14.49,0,0,0,21.54,10.52Z"/><path d="M40.95,17.83H40A1,1,0,0,1,39,16.73q0-1.91,0-3.83a1,1,0,0,1,1.1-1.11h.87c0-.11,0-.2,0-.29a9.58,9.58,0,0,1,0-1.11,1,1,0,0,1,1-.81,1,1,0,0,1,1,.85,5.76,5.76,0,0,1,0,.73c0,.2,0,.39,0,.63h.83A1,1,0,0,1,45,13q0,1.86,0,3.71a1,1,0,0,1-1.16,1.15H43v.32q0,6.56,0,13.12a1.57,1.57,0,0,1-.42,1.11c-1.21,1.35-2.4,2.72-3.59,4.08a1,1,0,0,1-1.11.33,1,1,0,0,1-.71-.86,1.06,1.06,0,0,1,.32-.88l3.25-3.69a.75.75,0,0,0,.21-.55q0-6.32,0-12.65ZM41,15.77h1.9V13.85H41Z"/><path d="M27.39,25a5.85,5.85,0,1,1-5.85-5.85A5.87,5.87,0,0,1,27.39,25Zm-9.64,0a3.79,3.79,0,1,0,3.82-3.78A3.79,3.79,0,0,0,17.75,25Z"/><path d="M22,37.67a5.58,5.58,0,0,1-.7,0,1,1,0,0,1,0-2c.4,0,.8,0,1.2-.08a10.45,10.45,0,0,0,8.09-5.16,10.19,10.19,0,0,0,1.48-5.32,1,1,0,1,1,2.06,0,12.23,12.23,0,0,1-1.58,6,12.55,12.55,0,0,1-9.17,6.42c-.23,0-.47.06-.7.08l-.71.05Z"/><path d="M8.88,24.68A12.68,12.68,0,0,1,18.94,12.62a20.52,20.52,0,0,1,2.58-.28,1,1,0,0,1,1,.85,1,1,0,0,1-.68,1.13,1.8,1.8,0,0,1-.49.07,10.42,10.42,0,0,0-8.25,4.15,10.21,10.21,0,0,0-2.19,6c0,.19,0,.38,0,.57a1,1,0,0,1-1,.92,1,1,0,0,1-1-1C8.87,24.94,8.88,24.81,8.88,24.68Z"/><path d="M22.56,25a1,1,0,1,1-2.05,0,1,1,0,0,1,1-1A1,1,0,0,1,22.56,25Z"/></g></svg>