<svg xmlns="http://www.w3.org/2000/svg" viewBox="0 0 50 50"><defs><style>.cls-1{fill:#010101;}</style></defs><title>icon_pair_02</title><g id="icon_pair_02"><path class="cls-1" d="M12.12,33.95H1.56a.24.24,0,0,1-.22-.22V19.16c.06-.11-.06-.22-.17-.22H.22a.24.24,0,0,0-.22.22V34.95a.24.24,0,0,0,.22.22H10.9a.24.24,0,0,1,.22.22V44.9a.24.24,0,0,0,.22.22h.72a.24.24,0,0,0,.22-.22l.06-10.68C12.34,34.06,12.29,33.95,12.12,33.95Z"/><path class="cls-1" d="M49.82,18.88h-.95a.24.24,0,0,0-.22.22V33.72a.24.24,0,0,1-.22.22H37.86a.24.24,0,0,0-.22.22l.06,10.68a.24.24,0,0,0,.22.22h.72a.24.24,0,0,0,.22-.22V35.28a.24.24,0,0,1,.22-.22H49.76a.24.24,0,0,0,.22-.22V19.1C50,18.93,49.93,18.88,49.82,18.88Z"/><path class="cls-1" d="M29.13,44.06h-3A.12.12,0,0,1,26,44V24.38a.12.12,0,0,1,.11-.11H35.2a.12.12,0,0,0,.11-.11v-1H14.73a.12.12,0,0,0-.11.11v.83a.12.12,0,0,0,.11.11h9.51a.12.12,0,0,1,.11.11V44a.12.12,0,0,1-.11.11H21a.12.12,0,0,0-.11.11v.67A.12.12,0,0,0,21,45h8.12a.12.12,0,0,0,.11-.11v-.67A.12.12,0,0,0,29.13,44.06Z"/><ellipse class="cls-1" cx="9.29" cy="10.26" rx="3.11" ry="3.17"/><ellipse class="cls-1" cx="41.59" cy="8.26" rx="3.34" ry="3.39"/><path class="cls-1" d="M19.46,20.32a.5.5,0,0,0-.28-.06H19l-6-.95a1.17,1.17,0,0,1-.61-.39L10,15.21a2.6,2.6,0,0,0-2.5-1.06l-.44.11a2.83,2.83,0,0,0-1.95,2s-1,4.67-1.78,8.23c-.39,1.89-.89,3.39-.95,4.11-.22,2.11.5,2.89,1.17,3.39,1.39,1.06,9.12,1.22,9.12,1.22a.24.24,0,0,1,.22.22l.67,10.06s-.11,1.56,1.78,1.56S17,43.51,17,43.51l-.72-10.17a.12.12,0,0,1,.11-.11h.95c.11,0,.22-.11.17-.22s-1-3.45-2.34-4.39-6.56-2.06-6.56-2.06a.37.37,0,0,1-.28-.44l1.33-5.34c.06-.22.22-.28.44-.17l1.28.95a1.64,1.64,0,0,0,.72.28l6.78.78h.28c.11,0,.17-.06.28-.06s.11-.06.17-.11a1.48,1.48,0,0,0,.39-.89C20.07,20.71,19.74,20.43,19.46,20.32Z"/><path class="cls-1" d="M48.32,29s-1.95-13.62-3.06-15.62-4.61-1.56-5.62.17L36.86,18.1v.06a.81.81,0,0,1-.44.5c-.78.28-2.84.67-4.5,1.06-.72.17-1.33.28-1.72.39-.11,0-.17.06-.28.06s-.06,0-.11.06a1,1,0,0,0-.61.5,1.36,1.36,0,0,0-.06.83,1.08,1.08,0,0,0,.78,1,2.41,2.41,0,0,0,.28.06h.22L38.14,21a.71.71,0,0,0,.39-.22l1.5-1.5c.11-.11.17-.06.22.06l1.39,8.45a.36.36,0,0,1-.33.44l-7.28,1a2.19,2.19,0,0,0-1.83,2.34L33.47,43.4c0,.11.06.33.06.44s.17,1.45,2.11,1.28a2,2,0,0,0,1.95-1.89v-.44l-.78-8.84a.2.2,0,0,1,.22-.22l3.67-.22s4.84-.28,5.78-.72C48.6,31.78,48.32,29.05,48.32,29Z"/></g></svg>