<?xml version="1.0" encoding="utf-8"?>
<!-- Generator: Adobe Illustrator 20.1.0, SVG Export Plug-In . SVG Version: 6.00 Build 0)  -->
<svg version="1.1" id="圖層_1" xmlns="http://www.w3.org/2000/svg" xmlns:xlink="http://www.w3.org/1999/xlink" x="0px" y="0px"
	 viewBox="0 0 50 100" style="enable-background:new 0 0 50 100;" xml:space="preserve">
<style type="text/css">
	.st0{fill:#FFFFFF;}
</style>
<title>icon_pairlist_new</title>
<g id="icon_pairlist_new">
	<path d="M25,11.6l3.4,8.9l0.5,1.2l1.3,0.1l9.5,0.5l-7.4,6l-1,0.8l0.3,1.3l2.5,9.2l-8-5.2L25,33.5l-1.1,0.7l-8,5.2l2.5-9.2l0.3-1.3
		l-1-0.8l-7.4-6l9.5-0.5l1.3-0.1l0.5-1.2L25,11.6 M25,6l-5.3,13.8L5,20.5l11.5,9.3L12.7,44L25,36l12.4,8l-3.8-14.2L45,20.5
		l-14.7-0.7L25,6z"/>
</g>
<g id="icon_pairlist_new_1_">
	<path class="st0" d="M25,61.5l3.4,8.9l0.5,1.2l1.3,0.1l9.5,0.5l-7.4,6l-1,0.8l0.3,1.3l2.5,9.2l-8-5.2L25,83.6l-1.1,0.7l-8,5.2
		l2.5-9.2l0.3-1.3l-1-0.8l-7.4-6l9.5-0.5l1.3-0.1l0.5-1.2L25,61.5 M25,56l-5.3,13.8L5,70.6l11.5,9.3L12.7,94L25,86l12.4,8l-3.8-14.2
		L45,70.6l-14.7-0.7L25,56z"/>
</g>
</svg>
