<svg xmlns="http://www.w3.org/2000/svg" viewBox="0 0 50 50"><title>icon_read</title><g id="icon_read"><path d="M6.77,39V15.54a.63.63,0,0,0,0-.1,3.38,3.38,0,0,1,2.87-2.93c.48-.06,1,0,1.45,0h.2c0-.08,0-.13,0-.19,0-.71,0-1.43,0-2.14A3.4,3.4,0,0,1,13.64,7c.25-.08.52-.12.78-.18H40.1l.09,0a3.4,3.4,0,0,1,3,3.4q0,14.21,0,28.43a4.75,4.75,0,0,1-.14,1.14,4.53,4.53,0,0,1-4.47,3.43H11.38l-.5,0A4.53,4.53,0,0,1,7,39.92C6.87,39.62,6.83,39.31,6.77,39Zm4.55-24.27H10.2A1.13,1.13,0,0,0,9,15.92Q9,27.27,9,38.61a2.27,2.27,0,0,0,2.31,2.31H38.61a2.27,2.27,0,0,0,2.31-2.31q0-14.19,0-28.39A1.14,1.14,0,0,0,39.74,9H14.86a1.66,1.66,0,0,0-.45.05,1.13,1.13,0,0,0-.81,1.18q0,13.54,0,27.08c0,.07,0,.14,0,.21a1.14,1.14,0,0,1-2.28-.12q0-11.24,0-22.48Z"/><path d="M6.77,39c.06.3.1.61.18.9a4.53,4.53,0,0,0,3.93,3.26l.5,0h27.2a4.53,4.53,0,0,0,4.47-3.43,4.75,4.75,0,0,0,.14-1.14q0-14.21,0-28.43a3.4,3.4,0,0,0-3-3.4l-.09,0h3.13q0,18.23,0,36.46H6.77Z"/><path d="M26.12,16.44q0,2,0,3.93a1.13,1.13,0,0,1-.88,1.17,1.48,1.48,0,0,1-.33,0H17.09a1.14,1.14,0,0,1-1.22-1.23q0-3.9,0-7.8a1.14,1.14,0,0,1,1.21-1.22H24.9a1.14,1.14,0,0,1,1.22,1.21Q26.13,14.49,26.12,16.44Zm-8-2.83v5.67h5.67V13.61Z"/><path d="M27.26,27.27H38.1a.58.58,0,0,1,.55.55.57.57,0,0,1-.49.58H16.56a1,1,0,0,1-.31,0,.56.56,0,0,1-.37-.61.58.58,0,0,1,.53-.49H27.26Z"/><path d="M27.26,23.85H38a.58.58,0,0,1,.64.42.57.57,0,0,1-.5.71H16.53a.58.58,0,0,1-.64-.42.56.56,0,0,1,.5-.71H27.26Z"/><path d="M33.52,21.58H29a.59.59,0,0,1-.61-.4.57.57,0,0,1,.51-.74H38a.59.59,0,0,1,.58.33.56.56,0,0,1-.4.8l-.23,0Z"/><path d="M33.52,14.75H29a.59.59,0,0,1-.61-.4.57.57,0,0,1,.51-.74H38a.59.59,0,0,1,.58.33.56.56,0,0,1-.4.8l-.23,0Z"/><path d="M21,35.24H16.53a.59.59,0,0,1-.6-.35.57.57,0,0,1,.48-.8h9.08a.57.57,0,1,1,0,1.14H21Z"/><path d="M33.53,34.1H38a.61.61,0,0,1,.47.17.57.57,0,0,1-.29,1l-.2,0H29.05a.58.58,0,0,1-.65-.62A.56.56,0,0,1,29,34.1h4.54Z"/><path d="M33.53,18.16H29A.57.57,0,0,1,28.91,17H38a.57.57,0,1,1,.11,1.13h-4.6Z"/><path d="M21,30.69H25.5a.57.57,0,1,1,.09,1.13h-9a1.05,1.05,0,0,1-.26,0,.56.56,0,0,1-.42-.61.56.56,0,0,1,.55-.51H21Z"/><path d="M21,37.52H25.5a.57.57,0,1,1,.1,1.13H16.5a.57.57,0,0,1-.62-.59.56.56,0,0,1,.52-.54H21Z"/><path d="M33.53,30.69H38a.93.93,0,0,1,.31,0,.56.56,0,0,1,.35.62.57.57,0,0,1-.54.47H29a.58.58,0,0,1-.62-.43.56.56,0,0,1,.55-.71h4.57Z"/><path d="M33.51,37.52H38a1,1,0,0,1,.27,0,.57.57,0,0,1-.15,1.11H29a.57.57,0,0,1-.61-.44.56.56,0,0,1,.55-.69h4.55Z"/></g></svg>