<?xml version="1.0" encoding="utf-8"?>
<!-- Generator: Adobe Illustrator 21.1.0, SVG Export Plug-In . SVG Version: 6.00 Build 0)  -->
<svg version="1.1" id="icon_static_mail" xmlns="http://www.w3.org/2000/svg" xmlns:xlink="http://www.w3.org/1999/xlink" x="0px"
	 y="0px" viewBox="0 0 50 50" style="enable-background:new 0 0 50 50;" xml:space="preserve">
<title>icon_static_mail</title>
<path d="M40,12.2H10c-1.8,0-3.3,1.5-3.3,3.3v18.9c0,1.8,1.5,3.3,3.3,3.3h30c1.8,0,3.3-1.5,3.3-3.3V15.5C43.3,13.7,41.8,12.2,40,12.2
	z M42,15.5v18.9c0,0.3-0.1,0.6-0.2,0.9L30.6,25l11.1-10.4C41.9,14.9,42,15.2,42,15.5L42,15.5z M40,13.5c0.3,0,0.5,0.1,0.8,0.2
	L26.5,27c-0.8,0.7-2.1,0.7-3,0L9.2,13.7c0.2-0.1,0.5-0.2,0.8-0.2L40,13.5z M8.3,35.4C8.1,35.1,8,34.8,8,34.5V15.5
	c0-0.3,0.1-0.6,0.2-0.9L19.4,25L8.3,35.4z M10,36.5c-0.3,0-0.5-0.1-0.8-0.2l11.1-10.4l2.3,2.1c1.4,1.2,3.4,1.2,4.8,0l2.3-2.1
	l11.1,10.4c-0.2,0.1-0.5,0.2-0.8,0.2L10,36.5z"/>
</svg>
