<?xml version="1.0" encoding="utf-8"?>
<!-- Generator: Adobe Illustrator 21.1.0, SVG Export Plug-In . SVG Version: 6.00 Build 0)  -->
<svg version="1.1" id="圖層_1" xmlns="http://www.w3.org/2000/svg" xmlns:xlink="http://www.w3.org/1999/xlink" x="0px" y="0px"
	 viewBox="0 0 50 50" style="enable-background:new 0 0 50 50;" xml:space="preserve">
<style type="text/css">
	.st0{fill:#FFFFFF;}
</style>
<title>icon_menu_meetchat</title>
<g id="icon_menu_meetchat">
	<path class="st0" d="M16.4,22.5c3,0,5.4-2.4,5.4-5.4c0-3-2.4-5.4-5.4-5.4c-3,0-5.4,2.4-5.4,5.4C11,20.1,13.4,22.5,16.4,22.5
		C16.4,22.5,16.4,22.5,16.4,22.5z M16.4,13.6c1.9,0,3.4,1.5,3.4,3.4s-1.5,3.4-3.4,3.4c-1.9,0-3.4-1.5-3.4-3.4c0,0,0,0,0,0
		C13,15.1,14.5,13.6,16.4,13.6C16.4,13.6,16.4,13.6,16.4,13.6z M34.7,18c2.4,0,4.4-2,4.4-4.4s-2-4.4-4.4-4.4s-4.4,2-4.4,4.4
		c0,2.4,1.9,4.4,4.3,4.4C34.6,18,34.6,18,34.7,18z M34.7,11.1c1.3,0,2.4,1.1,2.4,2.4c0,1.3-1.1,2.4-2.4,2.4c-1.3,0-2.4-1.1-2.4-2.4
		C32.2,12.2,33.3,11.1,34.7,11.1C34.6,11.1,34.6,11.1,34.7,11.1L34.7,11.1z M47.9,29.2h-5.4c-1-7.7-4.8-9.4-7.9-9.4
		s-6.9,1.6-7.9,9.4h-2.9c-2-3.7-4.9-4.7-7.5-4.7c-3.2,0-6.1,1.8-7.5,4.7H2c-0.5,0.1-0.8,0.7-0.7,1.2c0.1,0.3,0.4,0.6,0.7,0.7h6
		c-0.9,2.4-1.4,5-1.5,7.6c0,0.1,0,0.2,0.1,0.3c-0.1,0.5,0.1,1,0.6,1.2c6,2.4,12.6,2.4,18.6,0c0.5-0.2,0.7-0.7,0.6-1.2
		c0-0.1,0.1-0.2,0.1-0.3c-0.2-2.6-0.7-5.1-1.5-7.6H48c0.6,0,1-0.4,1-1C49,29.6,48.5,29.2,47.9,29.2C47.9,29.2,47.9,29.2,47.9,29.2z
		 M16.4,40.2c-2.7,0-5.4-0.5-7.9-1.4c0.1-2.9,0.9-5.8,2.1-8.5c1-2.3,3.3-3.8,5.8-3.7c2.5,0,4.4,1.3,5.8,3.7c1.3,2.6,2,5.5,2.1,8.5
		C21.8,39.7,19.1,40.1,16.4,40.2z M28.8,29.2c0.7-4.9,2.7-7.4,5.9-7.4s5.2,2.5,5.9,7.4L28.8,29.2z"/>
</g>
</svg>
