<svg xmlns="http://www.w3.org/2000/svg" viewBox="0 0 50 50"><defs><style>.cls-1{fill:#ff7578;}</style></defs><title>icon_artic_skill2</title><g id="icon_artic-2" data-name="icon_artic"><path class="cls-1" d="M45.87,12.4a2,2,0,0,0-.59-1.18,2.12,2.12,0,0,0-1.38-.52,1.89,1.89,0,0,0-1.38.59l-4.27,4.27a.63.63,0,0,1-.9,0l0,0-2.82-2.82a.63.63,0,0,1,0-.9l0,0,4.2-4.2A2.29,2.29,0,0,0,39.38,6,2,2,0,0,0,37.74,4.2,7.36,7.36,0,0,0,36.16,4a9.83,9.83,0,0,0-9.84,9.82s0,0,0,0a10,10,0,0,0,.39,2.76L14.18,29.07a8,8,0,0,0-3.74.13A8.53,8.53,0,1,0,20.8,39.57a9,9,0,0,0,.13-3.74L33.47,23.3a8.77,8.77,0,0,0,2.63.39,10,10,0,0,0,9.65-7.81A8.73,8.73,0,0,0,45.87,12.4Zm-9.71,9.32A7.46,7.46,0,0,1,32.94,21L18.7,35.24a6.65,6.65,0,0,1,.2,3.94,6.57,6.57,0,1,1-8.07-8,6.17,6.17,0,0,1,3.94.2L29,17.13a8,8,0,0,1-.72-3.28A7.9,7.9,0,0,1,36.16,6c.39,0,1.18.07,1.18.79l-5,5a.63.63,0,0,0,0,.9l0,0,5,5a.63.63,0,0,0,.9,0l0,0,5-5c.72.07.79.79.79,1.18A7.9,7.9,0,0,1,36.16,21.72Z"/></g></svg>