<svg xmlns="http://www.w3.org/2000/svg" viewBox="0 0 50 50"><title>icon_menu_meetchat</title><g id="icon_menu_meetchat"><path d="M16.4,22.47A5.39,5.39,0,1,0,11,17.08,5.38,5.38,0,0,0,16.4,22.47Zm0-8.85A3.4,3.4,0,1,1,13,17,3.38,3.38,0,0,1,16.4,13.62ZM34.66,18a4.42,4.42,0,1,0-4.42-4.42A4.36,4.36,0,0,0,34.66,18Zm0-6.92a2.44,2.44,0,0,1,0,4.88,2.49,2.49,0,0,1-2.44-2.44A2.39,2.39,0,0,1,34.66,11.13ZM47.93,29.22H42.54c-1-7.71-4.82-9.36-7.88-9.36s-6.92,1.64-7.88,9.36H23.88c-2-3.69-4.93-4.71-7.49-4.71a8.16,8.16,0,0,0-7.49,4.71H2a1,1,0,0,0,0,1.93H8a26.65,26.65,0,0,0-1.53,7.6.72.72,0,0,0,.06.34,1.07,1.07,0,0,0,.57,1.19,24.74,24.74,0,0,0,18.6,0,1,1,0,0,0,.57-1.19.72.72,0,0,0,.06-.34,29.27,29.27,0,0,0-1.53-7.6H48a1,1,0,0,0,1-1A1,1,0,0,0,47.93,29.22ZM16.4,40.16a23.66,23.66,0,0,1-7.94-1.42,22,22,0,0,1,2.15-8.45,6.24,6.24,0,0,1,5.78-3.74c2.55,0,4.42,1.25,5.78,3.74a22,22,0,0,1,2.15,8.45A23.66,23.66,0,0,1,16.4,40.16ZM28.76,29.22c.68-4.93,2.67-7.37,5.9-7.37s5.22,2.5,5.9,7.37Z"/></g></svg>