<svg xmlns="http://www.w3.org/2000/svg" viewBox="0 0 50 50"><title>icon_deposit_history</title><g id="icon_deposit"><polygon points="18.3 21.61 21.55 18.39 21.57 18.37 21.18 17.99 18.33 20.82 16.75 19.05 16.73 19.03 16.32 19.39 18.28 21.59 18.3 21.61"/><polygon points="18.33 27.21 16.75 25.44 16.73 25.41 16.32 25.78 18.28 27.98 18.3 28 21.55 24.78 21.57 24.76 21.18 24.37 18.33 27.21"/><path d="M18.94,30.09a2.5,2.5,0,1,0,2.5,2.5A2.5,2.5,0,0,0,18.94,30.09Zm2,2.5a2,2,0,1,1-2-2A2,2,0,0,1,20.9,32.6Z"/><rect x="23.68" y="19.5" width="12.13" height="0.6"/><rect x="23.71" y="25.92" width="12.07" height="0.54"/><rect x="23.71" y="32.33" width="12.07" height="0.54"/><path d="M12,16.59V29.74q0,4.16,0,8.31a5.57,5.57,0,0,0,.2,1.41A4.9,4.9,0,0,0,17,43h.09c1.37,0,2.75,0,4.12,0h8.26c2,0,4,0,6,0a4.78,4.78,0,0,0,4.58-4.33c.08-1.18.07-2.4.07-3.49v-.93q0-8.77,0-17.54A5,5,0,0,0,35,11.58h-.71v1.61h.11a5,5,0,0,1,1.84.19,3.31,3.31,0,0,1,2.25,3.29V32.43c0,.56,0,1.11,0,1.67,0,1.27,0,2.55,0,3.81a3.34,3.34,0,0,1-.95,2.44A3.54,3.54,0,0,1,35,41.4l-7.86,0h-10a3.35,3.35,0,0,1-3.51-3.5q0-10.38,0-20.76a5.27,5.27,0,0,1,.18-1.61,3.11,3.11,0,0,1,2.74-2.26,9.67,9.67,0,0,1,1.3,0V11.58h-.93a4.72,4.72,0,0,0-1,.12A4.93,4.93,0,0,0,12,16.59Z"/><path d="M33,12.2v-.47c0-1-.11-1.79-1.53-1.79H31a2,2,0,0,1-1.51-.53,5.76,5.76,0,0,1-.78-1.12l0-.05A2.36,2.36,0,0,0,26.58,7H25.46a2.22,2.22,0,0,0-2,1.13l-.25.44,0,0-.14.25a1.94,1.94,0,0,1-1.36,1,5.1,5.1,0,0,1-.9.06h-.4a1.26,1.26,0,0,0-1.29,1.32c0,.49,0,1.2,0,1.69a1.31,1.31,0,0,0,1.46,1.48h11A1.26,1.26,0,0,0,33,13.06C33,12.82,33,12.5,33,12.2ZM24.06,9.06l.39.12.21-.36a.9.9,0,0,1,.84-.48h1.09a1,1,0,0,1,1,.6l0,.06a6.81,6.81,0,0,0,1,1.38,3.3,3.3,0,0,0,2.45.92h.61c0,.11,0,.28,0,.46v.47c0,.29,0,.6,0,.84,0,0,0,0,0,.05H20.49s0-.09,0-.15c0-.48,0-1.18,0-1.67h.38A6.22,6.22,0,0,0,22,11.18a3.3,3.3,0,0,0,2.26-1.64l.16-.29Z"/></g></svg>