<svg xmlns="http://www.w3.org/2000/svg" viewBox="0 0 50 50"><defs><style>.cls-1{fill:#fff;}</style></defs><title>icon_trash</title><g id="icon_logout"><path class="cls-1" d="M19.25,20.21V37.46a.92.92,0,0,1-1,1H16.38a.92.92,0,0,1-1-1V20.21a.92.92,0,0,1,1-1h1.92a.92.92,0,0,1,1,1Zm7.67,0V37.46a.92.92,0,0,1-1,1H24a.92.92,0,0,1-1-1V20.21a.92.92,0,0,1,1-1H26a.92.92,0,0,1,1,1Zm7.67,0V37.46a.92.92,0,0,1-1,1H31.71a.92.92,0,0,1-1-1V20.21a.92.92,0,0,1,1-1h1.92a.92.92,0,0,1,1,1Zm3.83,21.68V13.5H11.58V41.89a3.4,3.4,0,0,0,.21,1.21,2.69,2.69,0,0,0,.43.81q.22.25.31.25H37.46q.09,0,.31-.25a2.69,2.69,0,0,0,.43-.81A3.4,3.4,0,0,0,38.42,41.89ZM18.29,9.67H31.71l-1.44-3.5a.85.85,0,0,0-.51-.33H20.27a.85.85,0,0,0-.51.33Zm27.79,1v1.92a.92.92,0,0,1-1,1H42.25V41.89a6.8,6.8,0,0,1-1.41,4.3A4.17,4.17,0,0,1,37.46,48H12.54a4.22,4.22,0,0,1-3.38-1.75A6.55,6.55,0,0,1,7.75,42V13.5H4.88a.92.92,0,0,1-1-1V10.63a.92.92,0,0,1,1-1h9.25l2.1-5a4.15,4.15,0,0,1,1.62-1.89A4.23,4.23,0,0,1,20.21,2h9.58a4.23,4.23,0,0,1,2.37.78,4.15,4.15,0,0,1,1.62,1.89l2.1,5h9.25a.92.92,0,0,1,1,1Z"/></g></svg>