<svg xmlns="http://www.w3.org/2000/svg" xmlns:xlink="http://www.w3.org/1999/xlink" version="1.1" x="0px" y="0px" viewBox="0 0 100 100" enable-background="new 0 0 100 100" xml:space="preserve"><g display="none"><path display="inline" fill="#000000" d="M1276,207.403H-40c-1.65,0-3-1.35-3-3v-1314.396c0-1.65,1.35-3,3-3h1316   c1.65,0,3,1.35,3,3V204.403C1279,206.053,1277.65,207.403,1276,207.403z"></path></g><g><path d="M39.602,24.754c0.801,0,1.451-0.65,1.451-1.451v-2.95c0-4.075-3.315-7.39-7.39-7.39h-1.456c-4.075,0-7.39,3.315-7.39,7.39   v2.95c0,0.801,0.649,1.451,1.451,1.451c0.801,0,1.451-0.65,1.451-1.451v0v-2.949c0-2.475,2.013-4.488,4.488-4.488h1.456   c2.475,0,4.488,2.014,4.488,4.488v2.949v0C38.151,24.104,38.8,24.754,39.602,24.754z"></path><path d="M73.733,24.754c0.801,0,1.451-0.65,1.451-1.451v-2.95c0-4.075-3.315-7.39-7.39-7.39h-1.456c-4.075,0-7.39,3.315-7.39,7.39   v2.95c0,0.801,0.649,1.451,1.451,1.451c0.801,0,1.451-0.65,1.451-1.451v0v-2.949c0-2.475,2.013-4.488,4.488-4.488h1.456   c2.475,0,4.488,2.014,4.488,4.488v2.949v0C72.282,24.104,72.931,24.754,73.733,24.754z"></path><path d="M17.442,42.909c5.04,0,9.14-4.1,9.14-9.14s-4.1-9.14-9.14-9.14s-9.14,4.1-9.14,9.14S12.402,42.909,17.442,42.909z    M17.442,27.53c3.44,0,6.238,2.799,6.238,6.239s-2.799,6.239-6.238,6.239s-6.238-2.799-6.238-6.239S14.002,27.53,17.442,27.53z"></path><path d="M20.715,44.314h-6.547C9.113,44.314,5,48.426,5,53.482v13.496c0,2.494,1.774,4.58,4.126,5.066v9.822   c0,2.852,2.32,5.171,5.171,5.171h6.288c2.852,0,5.171-2.32,5.171-5.171v-9.822c2.352-0.485,4.126-2.572,4.126-5.066V53.482   C29.884,48.426,25.771,44.314,20.715,44.314z M26.982,66.977c0,1.252-1.018,2.27-2.269,2.27h-1.857v12.618   c0,1.252-1.018,2.27-2.27,2.27h-6.288c-1.252,0-2.27-1.018-2.27-2.27V69.247h-1.857c-1.252,0-2.27-1.018-2.27-2.27V53.482   c0-3.455,2.811-6.266,6.267-6.266h6.547c3.456,0,6.267,2.811,6.267,6.266V66.977z"></path><path d="M53.274,44.314h-6.547c-5.055,0-9.168,4.113-9.168,9.168v13.496c0,2.494,1.774,4.58,4.126,5.066v9.822   c0,2.852,2.32,5.171,5.171,5.171h6.288c2.852,0,5.171-2.32,5.171-5.171v-9.822c2.352-0.485,4.126-2.572,4.126-5.066V53.482   C62.442,48.426,58.329,44.314,53.274,44.314z M59.54,66.977c0,1.252-1.018,2.27-2.27,2.27h-1.857v12.618   c0,1.252-1.018,2.27-2.27,2.27h-6.288c-1.252,0-2.27-1.018-2.27-2.27V69.247H42.73c-1.252,0-2.27-1.018-2.27-2.27V53.482   c0-3.455,2.811-6.266,6.267-6.266h6.547c3.456,0,6.267,2.811,6.267,6.266V66.977z"></path><path d="M49.272,24.95c-4.075,0-7.39,3.315-7.39,7.39v2.949c0,4.075,3.315,7.39,7.39,7.39h1.456c4.075,0,7.39-3.315,7.39-7.39   V32.34c0-4.075-3.315-7.39-7.39-7.39H49.272z M55.216,32.34v2.949c0,2.475-2.013,4.488-4.488,4.488h-1.456   c-2.475,0-4.488-2.014-4.488-4.488V32.34c0-2.475,2.013-4.488,4.488-4.488h1.456C53.203,27.851,55.216,29.865,55.216,32.34z"></path><path d="M85.832,44.314h-6.547c-5.055,0-9.168,4.113-9.168,9.168v13.496c0,2.494,1.774,4.58,4.126,5.066v9.822   c0,2.852,2.32,5.171,5.171,5.171h6.288c2.852,0,5.171-2.32,5.171-5.171v-9.822C93.226,71.557,95,69.471,95,66.977V53.482   C95,48.426,90.887,44.314,85.832,44.314z M92.098,66.977c0,1.252-1.018,2.27-2.27,2.27h-1.857v12.618c0,1.252-1.018,2.27-2.27,2.27   h-6.288c-1.252,0-2.27-1.018-2.27-2.27V69.247h-1.856c-1.252,0-2.27-1.018-2.27-2.27V53.482c0-3.455,2.811-6.266,6.267-6.266h6.547   c3.456,0,6.267,2.811,6.267,6.266V66.977z"></path><path d="M81.83,42.679h1.456c4.075,0,7.39-3.315,7.39-7.39V32.34c0-4.075-3.315-7.39-7.39-7.39H81.83   c-4.075,0-7.39,3.315-7.39,7.39v2.949C74.441,39.363,77.755,42.679,81.83,42.679z M77.342,32.34c0-2.475,2.013-4.488,4.488-4.488   h1.456c2.475,0,4.488,2.014,4.488,4.488v2.949c0,2.475-2.013,4.488-4.488,4.488H81.83c-2.475,0-4.488-2.014-4.488-4.488V32.34z"></path></g></svg>