<svg xmlns="http://www.w3.org/2000/svg" viewBox="0 0 50 100"><defs><style>.cls-1{fill:#fff;}</style></defs><title>icon_menu_setting</title><g id="icon_menu_setting"><path d="M43.49,20.39c-.74-.09-1.56-.13-2.47-.22-.17,0-.26-.13-.35-.26A15.26,15.26,0,0,0,39.46,17a.4.4,0,0,1,0-.43c.61-.69,1.13-1.3,1.6-1.86a2.54,2.54,0,0,0-.17-3.42L38.42,8.74A2.53,2.53,0,0,0,35,8.57c-.56.48-1.21,1-1.86,1.6a.39.39,0,0,1-.43,0A17.09,17.09,0,0,0,29.81,9a.38.38,0,0,1-.26-.35c0-.91-.13-1.73-.22-2.47a2.54,2.54,0,0,0-2.51-2.29H23.18a2.5,2.5,0,0,0-2.51,2.29c-.09.74-.13,1.56-.22,2.47,0,.17-.13.26-.26.35a15.26,15.26,0,0,0-2.9,1.21.4.4,0,0,1-.43,0C16.21,9.57,15.56,9,15,8.57a2.54,2.54,0,0,0-3.42.17L9,11.3a2.53,2.53,0,0,0-.17,3.42c.48.56,1,1.21,1.6,1.86a.39.39,0,0,1,0,.43,17.09,17.09,0,0,0-1.21,2.9.38.38,0,0,1-.35.26c-.91,0-1.73.13-2.47.22A2.54,2.54,0,0,0,4.17,22.9v3.64a2.5,2.5,0,0,0,2.29,2.51c.74.09,1.56.13,2.47.22.17,0,.26.13.35.26a15.26,15.26,0,0,0,1.21,2.9.4.4,0,0,1,0,.43c-.61.69-1.13,1.3-1.6,1.86A2.54,2.54,0,0,0,9,38.14l2.55,2.55a2.53,2.53,0,0,0,3.42.17c.56-.48,1.21-1,1.86-1.6a.39.39,0,0,1,.43,0,17.09,17.09,0,0,0,2.9,1.21.38.38,0,0,1,.26.35c0,.91.13,1.73.22,2.47a2.54,2.54,0,0,0,2.51,2.29h3.64a2.5,2.5,0,0,0,2.51-2.29c.09-.74.13-1.56.22-2.47,0-.17.13-.26.26-.35a15.26,15.26,0,0,0,2.9-1.21.4.4,0,0,1,.43,0c.65.61,1.3,1.13,1.86,1.6a2.54,2.54,0,0,0,3.42-.17L41,38.14a2.53,2.53,0,0,0,.17-3.42c-.48-.56-1-1.21-1.6-1.86a.39.39,0,0,1,0-.43,17.09,17.09,0,0,0,1.21-2.9.38.38,0,0,1,.35-.26c.91,0,1.73-.13,2.47-.22a2.54,2.54,0,0,0,2.29-2.51V22.9A2.58,2.58,0,0,0,43.49,20.39Zm.09,6.15a.33.33,0,0,1-.3.35c-.74.09-1.52.13-2.38.17a2.55,2.55,0,0,0-2.25,1.82,14,14,0,0,1-1,2.51,2.57,2.57,0,0,0,.35,2.86l1.56,1.82a.34.34,0,0,1,0,.48L36.91,39.1a.39.39,0,0,1-.48,0l-1.82-1.56a2.57,2.57,0,0,0-2.86-.35,12.78,12.78,0,0,1-2.51,1,2.61,2.61,0,0,0-1.82,2.25c0,.87-.13,1.69-.17,2.38a.33.33,0,0,1-.35.3H23.27a.33.33,0,0,1-.35-.3c-.09-.74-.13-1.52-.17-2.38a2.55,2.55,0,0,0-1.82-2.25,14,14,0,0,1-2.51-1,2.4,2.4,0,0,0-1.21-.3,2.69,2.69,0,0,0-1.69.61L13.7,39.1a.34.34,0,0,1-.48,0L10.67,36.5a.39.39,0,0,1,0-.48l1.56-1.82a2.57,2.57,0,0,0,.35-2.86,12.78,12.78,0,0,1-1-2.51A2.61,2.61,0,0,0,9.24,27c-.87,0-1.69-.13-2.38-.17a.33.33,0,0,1-.3-.35V22.86a.33.33,0,0,1,.3-.35c.74-.09,1.52-.13,2.38-.17a2.55,2.55,0,0,0,2.25-1.82,14,14,0,0,1,1-2.51,2.57,2.57,0,0,0-.35-2.86c-.56-.65-1.13-1.3-1.56-1.82a.34.34,0,0,1,0-.48l2.55-2.55a.39.39,0,0,1,.48,0l1.82,1.56a2.57,2.57,0,0,0,2.86.35,12.78,12.78,0,0,1,2.51-1,2.61,2.61,0,0,0,1.82-2.25c0-.87.13-1.69.17-2.38a.33.33,0,0,1,.35-.3h3.64a.33.33,0,0,1,.35.3c.09.74.13,1.52.17,2.38a2.55,2.55,0,0,0,1.82,2.25,14,14,0,0,1,2.51,1,2.57,2.57,0,0,0,2.86-.35l1.82-1.56a.34.34,0,0,1,.48,0l2.55,2.55a.39.39,0,0,1,0,.48L37.9,15.15A2.57,2.57,0,0,0,37.56,18a12.78,12.78,0,0,1,1,2.51,2.61,2.61,0,0,0,2.25,1.82c.87,0,1.69.13,2.38.17a.33.33,0,0,1,.3.35v3.68Z"/><path d="M25,18.27a6.45,6.45,0,1,0,6.45,6.45A6.47,6.47,0,0,0,25,18.27ZM25,29a4.29,4.29,0,1,1,4.29-4.29A4.3,4.3,0,0,1,25,29Z"/><path class="cls-1" d="M43.49,70.39c-.74-.09-1.56-.13-2.47-.22-.17,0-.26-.13-.35-.26A15.26,15.26,0,0,0,39.46,67a.4.4,0,0,1,0-.43c.61-.69,1.13-1.3,1.6-1.86a2.54,2.54,0,0,0-.17-3.42l-2.51-2.55A2.53,2.53,0,0,0,35,58.57c-.56.48-1.21,1-1.86,1.6a.39.39,0,0,1-.43,0A17.09,17.09,0,0,0,29.81,59a.38.38,0,0,1-.26-.35c0-.91-.13-1.73-.22-2.47a2.54,2.54,0,0,0-2.51-2.29H23.18a2.5,2.5,0,0,0-2.51,2.29c-.09.74-.13,1.56-.22,2.47,0,.17-.13.26-.26.35a15.26,15.26,0,0,0-2.9,1.21.4.4,0,0,1-.43,0c-.65-.61-1.3-1.13-1.86-1.6a2.54,2.54,0,0,0-3.42.17L9,61.3a2.53,2.53,0,0,0-.17,3.42c.48.56,1,1.21,1.6,1.86a.39.39,0,0,1,0,.43,17.09,17.09,0,0,0-1.21,2.9.38.38,0,0,1-.35.26c-.91,0-1.73.13-2.47.22A2.54,2.54,0,0,0,4.17,72.9v3.64a2.5,2.5,0,0,0,2.29,2.51c.74.09,1.56.13,2.47.22.17,0,.26.13.35.26a15.26,15.26,0,0,0,1.21,2.9.4.4,0,0,1,0,.43c-.61.69-1.13,1.3-1.6,1.86A2.54,2.54,0,0,0,9,88.14l2.55,2.55a2.53,2.53,0,0,0,3.42.17c.56-.48,1.21-1,1.86-1.6a.39.39,0,0,1,.43,0,17.09,17.09,0,0,0,2.9,1.21.38.38,0,0,1,.26.35c0,.91.13,1.73.22,2.47a2.54,2.54,0,0,0,2.51,2.29h3.64a2.5,2.5,0,0,0,2.51-2.29c.09-.74.13-1.56.22-2.47,0-.17.13-.26.26-.35a15.26,15.26,0,0,0,2.9-1.21.4.4,0,0,1,.43,0c.65.61,1.3,1.13,1.86,1.6a2.54,2.54,0,0,0,3.42-.17L41,88.14a2.53,2.53,0,0,0,.17-3.42c-.48-.56-1-1.21-1.6-1.86a.39.39,0,0,1,0-.43,17.09,17.09,0,0,0,1.21-2.9.38.38,0,0,1,.35-.26c.91,0,1.73-.13,2.47-.22a2.54,2.54,0,0,0,2.29-2.51V72.9A2.58,2.58,0,0,0,43.49,70.39Zm.09,6.15a.33.33,0,0,1-.3.35c-.74.09-1.52.13-2.38.17a2.55,2.55,0,0,0-2.25,1.82,14,14,0,0,1-1,2.51,2.57,2.57,0,0,0,.35,2.86l1.56,1.82a.34.34,0,0,1,0,.48L36.91,89.1a.39.39,0,0,1-.48,0l-1.82-1.56a2.57,2.57,0,0,0-2.86-.35,12.78,12.78,0,0,1-2.51,1,2.61,2.61,0,0,0-1.82,2.25c0,.87-.13,1.69-.17,2.38a.33.33,0,0,1-.35.3H23.27a.33.33,0,0,1-.35-.3c-.09-.74-.13-1.52-.17-2.38a2.55,2.55,0,0,0-1.82-2.25,14,14,0,0,1-2.51-1,2.4,2.4,0,0,0-1.21-.3,2.69,2.69,0,0,0-1.69.61L13.7,89.1a.34.34,0,0,1-.48,0L10.67,86.5a.39.39,0,0,1,0-.48l1.56-1.82a2.57,2.57,0,0,0,.35-2.86,12.78,12.78,0,0,1-1-2.51A2.61,2.61,0,0,0,9.24,77c-.87,0-1.69-.13-2.38-.17a.33.33,0,0,1-.3-.35V72.86a.33.33,0,0,1,.3-.35c.74-.09,1.52-.13,2.38-.17a2.55,2.55,0,0,0,2.25-1.82,14,14,0,0,1,1-2.51,2.57,2.57,0,0,0-.35-2.86c-.56-.65-1.13-1.3-1.56-1.82a.34.34,0,0,1,0-.48l2.55-2.55a.39.39,0,0,1,.48,0l1.82,1.56a2.57,2.57,0,0,0,2.86.35,12.78,12.78,0,0,1,2.51-1,2.61,2.61,0,0,0,1.82-2.25c0-.87.13-1.69.17-2.38a.33.33,0,0,1,.35-.3h3.64a.33.33,0,0,1,.35.3c.09.74.13,1.52.17,2.38a2.55,2.55,0,0,0,1.82,2.25,14,14,0,0,1,2.51,1,2.57,2.57,0,0,0,2.86-.35l1.82-1.56a.34.34,0,0,1,.48,0l2.55,2.55a.39.39,0,0,1,0,.48L37.9,65.15A2.57,2.57,0,0,0,37.56,68a12.78,12.78,0,0,1,1,2.51,2.61,2.61,0,0,0,2.25,1.82c.87,0,1.69.13,2.38.17a.33.33,0,0,1,.3.35v3.68Z"/><path class="cls-1" d="M25,68.27a6.45,6.45,0,1,0,6.45,6.45A6.47,6.47,0,0,0,25,68.27ZM25,79a4.29,4.29,0,1,1,4.29-4.29A4.3,4.3,0,0,1,25,79Z"/></g></svg>