<svg xmlns="http://www.w3.org/2000/svg" viewBox="0 0 50 50"><title>icon_pairlist_airplane</title><g id="icon_pairlist_airplane"><path d="M19.87,43.94h-.15A1,1,0,0,1,19,43.5l-4.73-6.81-.15-.23a1.66,1.66,0,0,0-.32-.41l-7.28-5a1,1,0,0,1-.23-1.47l.88-1.14.06-.09a1.28,1.28,0,0,1,1.1-.63,1.61,1.61,0,0,1,.33,0L14.55,29,22,21.47,6.88,14.83A1,1,0,0,1,6.72,13l3.67-2.51a1.63,1.63,0,0,1,1-.47l.24,0,17.65,4h0l4.59-4.64A13,13,0,0,1,37,6.93a7,7,0,0,1,3.16-.87,4,4,0,0,1,1.64.33,1,1,0,0,1,.63.31h0l.28.28.13.13.21.21.2.2h0a.85.85,0,0,1,.2.26,1,1,0,0,1,.11.36,5.25,5.25,0,0,1-.18,4.16A11.76,11.76,0,0,1,40.63,16l-4.79,4.83L40,38a1.38,1.38,0,0,1-.37,1.21l0,0L37.14,43a1,1,0,0,1-1.79-.14L28.61,28.14,21.1,35.72l1.19,5.54a1.27,1.27,0,0,1-.52,1.47l-1.27,1A1,1,0,0,1,19.87,43.94ZM8.59,30,15,34.36a3.24,3.24,0,0,1,.88,1l.12.19,4.11,5.92.12-.09L19,35.63a1.21,1.21,0,0,1,.5-1.19l0,0,8.74-8.83a1,1,0,0,1,1.66.3l6.59,14.39,1.48-2.24h0l-4.12-17a1.41,1.41,0,0,1,.45-1.56l.11-.11,4.81-4.86a9.92,9.92,0,0,0,2.31-3.06c.41-1,.6-2.26-.09-2.94a1.68,1.68,0,0,0-1.25-.45A4.91,4.91,0,0,0,38,8.74a11.29,11.29,0,0,0-2.6,2.16l-4.84,4.89a1.38,1.38,0,0,1-1,.43,1.84,1.84,0,0,1-.55-.1l-.12,0-17.24-3.9-.09.07L9.4,13.7l14.79,6.49a1,1,0,0,1,.32,1.66l-8.86,8.94a1.14,1.14,0,0,1-.82.34,1.47,1.47,0,0,1-.44-.08l-5.7-1.19Z"/></g></svg>