<svg width="723" height="178" xmlns="http://www.w3.org/2000/svg">

 <g>
  <title>background</title>
  <rect fill="none" id="canvas_background" height="402" width="582" y="-1" x="-1"/>
 </g>
 <g>
  <title>Layer 1</title>
  <path fill="#09b8b2" id="svg_1" d="m30.3,84.4c7.7,-11.7 18.2,-18 32.2,-17.8c14.3,0.1 24,7.2 29.4,20.6c1.2,-1.9 2.3,-3.6 3.4,-5.2c9,-12.5 21.4,-16.9 36.2,-14.9c15.4,2.1 24.3,11.9 26.6,28.2c0.7,4.8 1,9.5 1,14.3c0,19.5 0,39 0.1,58.5c0,2.2 -0.6,2.7 -2.7,2.6c-6.1,-0.1 -12.2,-0.1 -18.3,0c-1.8,0 -2.1,-0.5 -2.1,-2.2c0.1,-17.4 0.1,-34.8 0,-52.1c0,-6 -0.3,-12 -1.9,-17.9c-1.8,-6.6 -5.4,-11.4 -12.4,-12.9c-7.2,-1.6 -13.5,0 -18.5,5.7c-5.6,6.4 -8.4,13.9 -8.4,22.3c-0.1,18.2 -0.1,36.4 0,54.6c0,2.2 -0.6,2.7 -2.7,2.6c-6.1,-0.1 -12.2,-0.1 -18.3,0c-1.9,0 -2.4,-0.4 -2.4,-2.4c0.1,-17.9 0.1,-35.7 0.1,-53.6c0,-4.7 -0.2,-9.4 -1.3,-14c-2.4,-9.8 -7.6,-14.8 -16.5,-15.9c-8,-1 -15.2,3.2 -19.5,11.4c-3.3,6.3 -4.2,13.1 -4.2,20c0,17.3 0,34.6 0.1,51.9c0,1.9 -0.5,2.3 -2.3,2.3c-6.2,-0.1 -12.5,-0.1 -18.8,0c-1.9,0 -2.2,-0.6 -2.2,-2.3c0,-32.4 0.1,-64.8 0,-97.2c0,-1.9 0.6,-2.3 2.3,-2.3c6.3,0.1 12.5,0.1 18.8,0c1.7,0 2.3,0.5 2.2,2.2c0,4.5 0.1,9 0.1,13.5z" class="st0"/>
  <path fill="#09b8b2" id="svg_2" d="m456.3,151.3c0,5.7 0,11.4 0,17.1c0,1.3 -1,1.3 -1.7,1.7c-4.4,1.9 -9.1,2.4 -13.8,2.6c-4.6,0.2 -9.2,-0.2 -13.8,-1.3c-9.9,-2.6 -16.1,-9.6 -17.5,-19.8c-0.4,-2.9 -0.5,-5.8 -0.5,-8.7c0,-17.8 0,-35.6 0,-53.4c0,-1.8 -0.4,-2.5 -2.4,-2.5c-4.2,0.2 -8.4,0 -12.7,0.1c-1.6,0 -2.1,-0.5 -2,-2.1c0.1,-4.8 0.1,-9.6 0,-14.4c0,-1.5 0.5,-1.9 1.9,-1.9c4.2,0.1 8.4,-0.1 12.7,0.1c1.9,0.1 2.5,-0.4 2.5,-2.4c-0.1,-6.4 0,-12.8 -0.1,-19.2c0,-1.4 0.4,-2 1.7,-2.4c6.5,-1.8 13,-3.6 19.4,-5.5c1.9,-0.6 2,0.1 2,1.6c0,8.4 0.1,16.9 -0.1,25.3c0,2.2 0.7,2.7 2.7,2.6c6.5,-0.1 13,0 19.5,-0.1c1.6,0 2.3,0.3 2.2,2.1c-0.1,4.7 -0.1,9.4 0,14.1c0,1.8 -0.6,2.1 -2.2,2.1c-6.6,-0.1 -13.2,0 -19.7,-0.1c-1.8,0 -2.5,0.3 -2.5,2.3c0.1,16.2 0,32.5 0.1,48.7c0,2 0.2,4.1 0.5,6.1c1.1,6.5 5,9.9 11.6,10.3c4.8,0.3 5.8,0.1 12.2,-3z" class="st0"/>
  <path fill="#1c5266" id="svg_3" d="m582.9,106.7c3.9,-5.3 8.3,-9.7 14.5,-12c10.3,-3.9 22.5,-1.6 28.8,5.6c4.5,5.2 6.5,11.5 6.8,18.1c0.8,17 0.3,33.9 0.4,50.9c0,1.4 -0.5,1.6 -1.7,1.6c-4.5,-0.1 -9.1,-0.1 -13.6,0c-1.8,0.1 -2.1,-0.6 -2.1,-2.2c0.1,-13.4 0,-26.8 0,-40.2c0,-3.4 -0.2,-6.8 -1,-10.1c-2.7,-11.3 -14.6,-15.7 -24,-8.8c-5.2,3.8 -8,9.2 -8.1,15.6c-0.2,13.2 -0.1,26.5 -0.1,39.7c0,1.9 0.9,4.5 -0.4,5.6c-1.2,1 -3.7,0.4 -5.6,0.4c-3.2,0 -6.3,-0.1 -9.5,0c-1.4,0 -1.9,-0.2 -1.9,-1.8c0.1,-24.2 0,-48.4 0,-72.6c0,-1.4 0.2,-2 1.8,-2c4.6,0.1 9.3,0.1 13.9,0c1.6,0 1.8,0.6 1.8,2c0,3.4 0,6.8 0,10.2z" class="st1"/>
  <path fill="#9fbcde" id="svg_4" d="m521.6,38.1c2.6,-3.9 5.4,-6.6 9.3,-8.1c6.4,-2.4 14.2,-1 18.3,3.4c2.6,2.8 3.7,6.3 4.1,10c1.1,11.3 0.3,22.5 0.5,33.8c0,1.2 -0.5,1.6 -1.6,1.6c-2.4,0 -4.9,-0.1 -7.3,0c-1.8,0.1 -2.4,-0.5 -2.3,-2.3c0.1,-8.6 0,-17.2 0,-25.8c0,-2.4 -0.4,-4.7 -1.2,-6.9c-2.5,-7.6 -11.5,-7.2 -15.3,-3.4c-2.9,2.9 -4.4,6.4 -4.5,10.5c-0.1,8.5 -0.1,17 0,25.6c0,1.8 -0.4,2.5 -2.3,2.4c-2.3,-0.2 -4.5,-0.1 -6.8,0c-1.8,0.1 -2.2,-0.6 -2.2,-2.2c0.1,-9.8 0,-19.6 0,-29.5c0,-12.7 0,-25.3 0,-38c0,-1.8 0.4,-2.7 2.4,-2.5c2.2,0.2 4.4,0.2 6.6,0c1.9,-0.1 2.3,0.6 2.3,2.4c-0.1,8.7 0,17.4 0,26.1c0,0.6 0,1.4 0,2.9z" class="st2"/>
  <path fill="#9fbcde" id="svg_5" d="m500.7,69.8c0,2.5 0,4.8 0,7.2c0,0.9 -0.3,1.6 -1.3,1.8c-5.9,1.5 -11.7,2 -17,-1.8c-3,-2.2 -4.2,-5.3 -4.2,-8.9c-0.1,-8.9 -0.1,-17.9 0,-26.8c0,-2 -0.5,-2.6 -2.6,-2.6c-5.7,0.1 -5.6,0 -5.7,-5.7c-0.1,-2.4 0.5,-3.2 3,-3.1c5.2,0.2 5.2,0.1 5.2,-5.1c0,-6.3 0,-6.3 6.1,-7.9c4.8,-1.2 4.8,-1.2 4.8,3.7c0,0.4 0,0.8 0,1.2c0.2,2.6 -1.2,6.1 0.5,7.7c1.6,1.6 4.9,0.3 7.5,0.5c0.6,0 1.1,0.1 1.7,0c1.5,-0.2 1.9,0.5 1.9,1.9c0.2,6.8 0.2,6.8 -6.6,6.8c-5.2,0 -5.2,0 -5.2,5.3c0,6.1 0,12.2 0,18.3c0,1.6 0.2,3.1 0.6,4.6c0.8,3.4 4.6,5 8.7,3.8c0.9,-0.2 1.6,-0.5 2.6,-0.9z" class="st2"/>
  <path fill="#09b8b2" id="svg_6" d="m271.6,102.1c-2.1,-10.7 -6.5,-20.2 -15.3,-27.2c-7.6,-6.1 -16.6,-8.2 -26.1,-8.4c-21.5,-0.5 -40.6,13.2 -46.9,33.8c-4.2,13.9 -4.1,28 0.2,41.7c5,15.7 15.6,25.9 32,29.5c9.3,2 18.7,1.6 28.1,0.2c7,-1.1 13.7,-3.2 19.9,-6.7c0.9,-0.5 1.5,-1 1.5,-2.2c-0.1,-5.6 0,-11.2 0,-17.1c-0.7,0.4 -1,0.5 -1.3,0.8c-10.6,7.2 -22.2,10 -34.9,8.5c-14,-1.6 -24,-11.9 -25,-25.8c-0.2,-3 -0.2,-3 2.9,-3c21.2,0 42.4,0 63.6,0.1c2.3,0 2.8,-0.7 2.7,-2.8c0,-7.4 0,-14.4 -1.4,-21.4zm-27.3,7.4c-5.7,0 -11.4,0 -17.1,0c-7.1,0 -14.1,-0.1 -21.2,0c-2.1,0 -2.4,-0.6 -2,-2.5c1.4,-6.6 4,-12.5 8.9,-17.2c6.8,-6.5 14.9,-8 23.7,-5.1c8.4,2.8 12,9.7 13.4,17.9c1.3,6.9 1.1,6.9 -5.7,6.9z" class="st0"/>
  <path fill="#09b8b2" id="svg_7" d="m379.8,103.7c-1.8,-10.2 -5.5,-19.5 -13.2,-26.8c-7.9,-7.5 -17.7,-10.1 -28.3,-10.4c-21.7,-0.5 -40.9,13.3 -47.1,34.1c-4.1,13.7 -4,27.5 0.2,41c4.9,15.9 15.6,26.2 32.2,29.8c9.3,2 18.6,1.6 27.8,0.2c7,-1.1 13.8,-3.1 20,-6.7c0.8,-0.5 1.6,-0.8 1.6,-2.1c-0.1,-5.7 0,-11.3 0,-17.4c-0.8,0.5 -1.2,0.7 -1.6,1c-10.2,6.8 -21.4,9.7 -33.7,8.4c-15.2,-1.6 -24.5,-11.2 -25.9,-26.5c-0.2,-1.8 0.1,-2.6 2.2,-2.5c6.1,0.1 12.2,0.1 18.3,0.1c15.4,0 30.9,0 46.3,0c1.1,0 2.4,0.4 2.4,-1.6c-0.3,-6.9 0,-13.8 -1.2,-20.6zm-23.1,5.8c-7.2,-0.1 -14.4,0 -21.6,0c-7.1,0 -14.3,0 -21.4,0c-1.6,0 -2,-0.3 -1.7,-2c2.2,-11 7.3,-20.1 18.8,-23.2c12.6,-3.4 24.2,2.3 27.1,17.3c0.4,2 0.4,4 0.7,6c0.1,1.5 -0.4,2 -1.9,1.9z" class="st0"/>
  <path fill="#1c5266" id="svg_8" d="m545.5,116.2c-3.5,-10.7 -10.7,-18 -21.6,-21.4c-7.3,-2.3 -14.7,-2.5 -22.2,-1.3c-10.5,1.6 -19.2,6.3 -25.4,15.2c-5.5,7.9 -7,16.8 -6.8,26.2c0.1,7.9 1.9,15.5 6.4,22.1c7.8,11.4 19.2,15.6 33.1,15.8c1.3,-0.1 3.2,-0.1 5.1,-0.4c15.1,-1.8 26,-9.4 31.2,-23.9c3.9,-10.6 3.7,-21.6 0.2,-32.3zm-16.9,28.7c-2.6,8.5 -8.6,13.3 -17.1,13.9c-9.8,0.7 -17.1,-3.2 -21.2,-11.1c-2.4,-4.7 -3,-9.7 -3.1,-14.1c0.1,-5.8 0.8,-10.7 3,-15.4c3.9,-8.1 11.3,-12.2 20.7,-11.5c8.8,0.6 15,5.5 17.6,14.3c2.5,7.9 2.5,16 0.1,23.9z" class="st1"/>
  <path fill="#1c5266" id="svg_9" d="m718,120.2c-2.5,-14.1 -11.2,-25 -26.8,-27.1c-14.3,-1.9 -29.2,4.9 -36.2,17.7c-7.3,13.2 -7.2,27.1 -2.3,40.9c3.5,10 10.7,16.4 20.9,19.4c6.9,2 14,1.8 21,1c5.9,-0.7 11.6,-2.2 16.9,-5.1c1,-0.5 1.6,-1.1 1.6,-2.4c-0.1,-4 0,-8 0,-12c-0.3,-0.1 -0.3,-0.1 -0.4,-0.1c-0.3,0.1 -0.6,0.3 -0.8,0.5c-7.8,5.3 -16.3,7.3 -25.6,6.3c-11,-1.1 -18.5,-9 -19.1,-20.1c-0.1,-1.3 0.3,-1.8 1.6,-1.7c0.6,0.1 1.1,0 1.7,0c15.4,0 30.8,0 46.3,0c2.1,0 2.5,-0.6 2.5,-2.6c-0.4,-4.9 -0.4,-9.8 -1.3,-14.7zm-19.9,5c-4.5,0 -9.1,0 -13.6,0c0,0 0,0 0,0c-5.3,0 -10.6,0 -15.8,0c-0.7,0 -1.5,0.4 -1.5,-1.1c0.2,-11.2 11.7,-20.4 22.6,-18c6.8,1.5 11.3,7 12.2,14.9c0.4,4.2 0.4,4.2 -3.9,4.2z" class="st1"/>
  <path fill="#9fbcde" id="svg_10" d="m607.8,46.8c-1.1,-6.5 -3.9,-12.1 -9.9,-15.3c-9.2,-4.9 -22.6,-2.8 -29.5,7.5c-5,7.4 -5.3,15.6 -3.5,24.1c1.2,5.7 4,10.7 9.3,13.6c9.7,5.2 19.5,4 29.2,-0.2c0.8,-0.3 1.1,-0.9 1.1,-1.7c0,-2.4 0,-4.8 0,-7.8c-3.7,2.5 -7.2,4 -11,4.5c-8.6,1 -15.9,-1.6 -18,-10.6c-0.7,-2.9 -0.4,-3.3 2.5,-3.3c9.4,0 18.8,0 28.2,0c1.7,0 2.3,-0.4 2.2,-2.2c-0.1,-3 -0.1,-5.8 -0.6,-8.6zm-14.4,2.8c-2.3,0 -4.7,0 -7,0c-2.9,0 -5.8,-0.1 -8.7,0c-2.3,0.2 -2.6,-0.7 -1.9,-2.6c1.6,-5 4.3,-8.8 10,-9.7c5.5,-0.9 10.3,2.1 11.4,7.6c1,5.7 0.8,4.6 -3.8,4.7z" class="st2"/>
  <text font-weight="bold" xml:space="preserve" text-anchor="start" font-family="Helvetica, Arial, sans-serif" font-size="50" id="svg_11" y="44.478948" x="215.141141" stroke-width="0" stroke="#000" fill="#333333">BETA</text>
 </g>
</svg>