<?xml version="1.0" encoding="utf-8"?>
<!-- Generator: Adobe Illustrator 21.1.0, SVG Export Plug-In . SVG Version: 6.00 Build 0)  -->
<svg version="1.1" id="圖層_2" xmlns="http://www.w3.org/2000/svg" xmlns:xlink="http://www.w3.org/1999/xlink" x="0px" y="0px"
	 viewBox="0 0 100 100" style="enable-background:new 0 0 100 100;" xml:space="preserve">
<style type="text/css">
	.st0{fill:#EECE83;}
</style>
<path d="M92.9,47.1v13.1l1.6-0.4c0.8-0.2,1.2-0.9,1-1.7L92.9,47.1z"/>
<path d="M87.1,39.1H62.9c-0.8,0-1.4,0.6-1.4,1.4h-2.6c0-0.8-0.6-1.4-1.4-1.4H5.8c-0.8,0-1.4,0.6-1.4,1.4v38c0,0.8,0.6,1.4,1.4,1.4
	h51.7c0.8,0,1.4-0.6,1.4-1.4h2.6c0,0.8,0.6,1.4,1.4,1.4h24.2c0.8,0,1.4-0.6,1.4-1.4v-38C88.5,39.7,87.8,39.1,87.1,39.1z M10.5,46
	h18.9v4.5H10.5V46z M52.4,73.2H10.5v-4.5h41.9V73.2z M52.4,61.9H10.5v-4.5h41.9V61.9z M61.5,76.5h-2.6v-5.2h2.6V76.5z M61.5,69.5
	h-2.6v-5.2h2.6V69.5z M61.5,62.4h-2.6v-5.2h2.6V62.4z M61.5,55.4h-2.6v-5.2h2.6V55.4z M61.5,48.3h-2.6v-5.2h2.6V48.3z M66.9,47.5
	h13.7v2.2H66.9V47.5z M66.9,51.8h13.7v4.5H66.9V51.8z M66.9,58.4h13.7v2.2H66.9V58.4z M66.9,62.7h13.7v4.5H66.9V62.7z M66.9,69.2
	h13.7v2.2H66.9V69.2z M84.6,75.8H66.9v-2.2h17.7V75.8z M83.7,51.8v4.5h-1.2v-4.5H83.7z M82.5,49.7v-2.2h1.2h0h0v2.2H82.5z
	 M83.7,58.4v2.2h-1.2v-2.2H83.7z M83.7,62.7v4.5h-1.2v-4.5H83.7z M83.7,69.2v2.2h-1.2v-2.2H83.7z M84.6,45.4H66.9v-2.2h17.7V45.4z"
	/>
<path d="M85,20.2l-23.5,5.6c-0.8,0.2-1.2,0.9-1,1.7l-2.6,0.6c-0.2-0.8-0.9-1.2-1.7-1.1l-31.9,7.6h32.3c1.2,0,2.2,0.3,3.2,0.9
	l-1.2-4.9l2.6-0.6l1.1,4.6h5.5L67.4,33l13.4-3.2l0.5,2.2l-11.2,2.7h9l2.7-0.6l0.2,0.6h1.9l-0.3-1.1l1.2-0.3l0.3,1.4h2
	c1.1,0,2.2,0.3,3.1,0.9l-3.4-14.4C86.5,20.4,85.8,20,85,20.2z M66.9,31l-0.5-2.2l17.2-4.1l0.5,2.2L66.9,31z M83,31.6l-0.5-2.2
	l1.2-0.3l0.5,2.2L83,31.6z"/>
<path class="st0" d="M91,20.2c-0.7-3.1-3.9-5.1-7-4.3l-22.6,5.4c-1.3,0.3-2.4,1.1-3.2,2.1c-1.2-0.5-2.5-0.7-3.8-0.4L5.1,34.7
	C2.2,35.1,0,37.5,0,40.5v38c0,3.2,2.6,5.8,5.8,5.8h50.7c1.4,0,2.6-0.5,3.6-1.3c1,0.8,2.3,1.3,3.6,1.3h23.3c3.2,0,5.8-2.6,5.8-5.8
	V64.8l2.6-0.6c3.1-0.7,5.1-3.9,4.3-7L91,20.2z M88.5,78.5c0,0.8-0.6,1.4-1.4,1.4H62.9c-0.8,0-1.4-0.6-1.4-1.4h-2.6
	c0,0.8-0.6,1.4-1.4,1.4H5.8c-0.8,0-1.4-0.6-1.4-1.4v-38c0-0.8,0.6-1.4,1.4-1.4h51.7c0.8,0,1.4,0.6,1.4,1.4h2.6
	c0-0.8,0.6-1.4,1.4-1.4h24.2c0.8,0,1.4,0.6,1.4,1.4V78.5z M87.1,34.7h-2l-0.3-1.4l-1.2,0.3l0.3,1.1h-1.9L81.7,34l-2.7,0.6h-9
	L81.3,32l-0.5-2.2L67.4,33l0.4,1.6h-5.5l-1.1-4.6l-2.6,0.6l1.2,4.9c-0.9-0.6-2-0.9-3.2-0.9H24.3L56.2,27c0.8-0.2,1.5,0.3,1.7,1.1
	l2.6-0.6c-0.2-0.8,0.3-1.5,1-1.7L85,20.2c0.8-0.2,1.5,0.3,1.7,1l3.4,14.4C89.3,35,88.2,34.7,87.1,34.7z M94.5,59.8l-1.6,0.4V47.1
	l2.6,11C95.7,58.9,95.3,59.6,94.5,59.8z"/>
<rect x="58.9" y="50.2" class="st0" width="2.6" height="5.2"/>
<rect x="66.9" y="47.5" class="st0" width="13.7" height="2.2"/>
<rect x="66.9" y="51.8" class="st0" width="13.7" height="4.5"/>
<rect x="58.9" y="57.3" class="st0" width="2.6" height="5.2"/>
<rect x="66.9" y="58.4" class="st0" width="13.7" height="2.2"/>
<rect x="10.5" y="68.7" class="st0" width="41.9" height="4.5"/>
<rect x="10.5" y="46" class="st0" width="18.9" height="4.5"/>
<rect x="58.9" y="71.4" class="st0" width="2.6" height="5.2"/>
<rect x="10.5" y="57.4" class="st0" width="41.9" height="4.5"/>
<rect x="58.9" y="64.3" class="st0" width="2.6" height="5.2"/>
<rect x="58.9" y="43.2" class="st0" width="2.6" height="5.2"/>
<rect x="66.9" y="62.7" class="st0" width="13.7" height="4.5"/>
<rect x="82.5" y="69.2" class="st0" width="1.2" height="2.2"/>
<rect x="82.5" y="62.7" class="st0" width="1.2" height="4.5"/>
<rect x="66.4" y="26.7" transform="matrix(0.9726 -0.2326 0.2326 0.9726 -4.4176 18.2633)" class="st0" width="17.7" height="2.2"/>
<rect x="82.7" y="29.2" transform="matrix(0.9725 -0.233 0.233 0.9725 -4.7777 20.2605)" class="st0" width="1.2" height="2.2"/>
<rect x="66.9" y="43.2" class="st0" width="17.7" height="2.2"/>
<rect x="66.9" y="69.2" class="st0" width="13.7" height="2.2"/>
<rect x="66.9" y="73.5" class="st0" width="17.7" height="2.2"/>
<rect x="82.5" y="58.4" class="st0" width="1.2" height="2.2"/>
<rect x="82.5" y="47.5" class="st0" width="1.2" height="2.2"/>
<rect x="82.5" y="51.8" class="st0" width="1.2" height="4.5"/>
</svg>
