<svg xmlns="http://www.w3.org/2000/svg" xmlns:xlink="http://www.w3.org/1999/xlink" version="1.1" x="0px" y="0px" viewBox="0 0 90 90" enable-background="new 0 0 90 90" xml:space="preserve"><path d="M11.611,7.226c-5.09,0-9.233,4.143-9.233,9.233v4.153h18.463v-4.153C20.841,11.368,16.701,7.226,11.611,7.226z"></path><path d="M75.617,66.157V16.459c0-5.091-4.139-9.233-9.229-9.233H23.123c2.033,2.532,3.26,5.739,3.26,9.233v5.423v1.501v50.16  c0,5.09,4.14,9.231,9.231,9.231c5.09,0,9.232-4.142,9.232-9.231v-4.617c0-1.528,1.238-2.769,2.771-2.769H75.617z M33.537,20.524  H68.85v5.31H33.537V20.524z M33.537,28.761H68.85v5.308H33.537V28.761z M33.537,36.995H68.85v5.309H33.537V36.995z M33.537,50.54  v-5.309H68.85v5.309H33.537z"></path><path d="M50.385,71.696v1.847c0,3.49-1.217,6.702-3.248,9.231h31.252c5.09,0,9.232-4.142,9.232-9.231v-1.847H50.385z"></path></svg>