<svg id="payment_creditcard" xmlns="http://www.w3.org/2000/svg" xmlns:xlink="http://www.w3.org/1999/xlink" viewBox="0 0 300 34.67"><defs><style>.cls-1{fill:#004686;}.cls-2{fill:#ef9b11;}.cls-3{fill:#f90;}.cls-4{fill:#c00;}.cls-5{fill:#fcb340;}.cls-6{fill:#006;}.cls-7{fill:#fff;}.cls-8{fill:url(#gradient_4);}.cls-9{fill:url(#gradient_2);}.cls-10{fill:url(#gradient_3);}.cls-11{fill:#01798a;}.cls-12{fill:#024381;}.cls-13{fill:#dd0228;}.cls-14{fill:#e02f41;}.cls-15{fill:#2e4f7d;}</style><linearGradient id="gradient_4" x1="77.24" y1="49.13" x2="81.35" y2="49.13" gradientTransform="matrix(2.83, 0, 0, -2.83, -1.83, 156.92)" gradientUnits="userSpaceOnUse"><stop offset="0" stop-color="#007b40"/><stop offset="1" stop-color="#55b330"/></linearGradient><linearGradient id="gradient_2" x1="68.03" y1="49.13" x2="72.14" y2="49.13" gradientTransform="matrix(2.83, 0, 0, -2.83, -1.83, 156.92)" gradientUnits="userSpaceOnUse"><stop offset="0" stop-color="#1d2970"/><stop offset="1" stop-color="#006dba"/></linearGradient><linearGradient id="gradient_3" x1="72.64" y1="49.13" x2="76.74" y2="49.13" gradientTransform="matrix(2.83, 0, 0, -2.83, -1.83, 156.92)" gradientUnits="userSpaceOnUse"><stop offset="0" stop-color="#6e2b2f"/><stop offset="1" stop-color="#e30138"/></linearGradient></defs><title>payment_creditcard</title><g id="g5088"><polygon id="polygon10" class="cls-1" points="32.71 29.92 36.89 5.43 43.56 5.43 39.39 29.92 32.71 29.92"/><path id="path12" class="cls-1" d="M63.6,6a17.22,17.22,0,0,0-6-1C51,5,46.37,8.32,46.33,13.09c0,3.52,3.32,5.48,5.85,6.65s3.47,2,3.46,3c0,1.64-2.07,2.39-4,2.39a14,14,0,0,1-6.28-1.29l-.86-.39L43.57,29A21.13,21.13,0,0,0,51,30.28c7,0,11.57-3.28,11.62-8.37,0-2.79-1.75-4.91-5.6-6.65-2.33-1.13-3.76-1.89-3.75-3s1.21-2.11,3.82-2.11a12.3,12.3,0,0,1,5,.94l.6.28L63.6,6Z"/><path id="path14" class="cls-1" d="M80.71,5.45H75.56a3.32,3.32,0,0,0-3.5,2L62.15,29.93h7s1.15-3,1.41-3.68h8.55c.2.86.81,3.67.81,3.67h6.19L80.71,5.45M72.48,21.24l2.66-6.85c0,.06.55-1.42.89-2.34l.45,2.11L78,21.24H72.48Z"/><path id="path16" class="cls-1" d="M27.11,5.45l-6.54,16.7-.7-3.39c-1.22-3.91-5-8.15-9.25-10.27l6,21.42h7.06L34.19,5.45H27.11Z"/><path id="path18" class="cls-2" d="M14.52,5.43H3.75l-.09.51C12,8,17.58,12.87,19.88,18.75L17.54,7.5c-.4-1.55-1.58-2-3-2.07Z"/></g><g id="layer1"><g id="g10305"><path id="path2268" class="cls-3" d="M165.38,17.64a14.87,14.87,0,1,1-29.73,0h0a14.87,14.87,0,1,1,29.73,0Z"/><path id="path1350" class="cls-4" d="M130.48,2.78a14.87,14.87,0,1,0,10.1,25.86h0A15,15,0,0,0,142.09,27h-3a14.52,14.52,0,0,1-1.11-1.53h5.25a14.89,14.89,0,0,0,.87-1.59h-7a14.66,14.66,0,0,1-.62-1.56h8.23a14.93,14.93,0,0,0,.42-7.9H136a14.82,14.82,0,0,1,.42-1.56h8.23a14.87,14.87,0,0,0-.64-1.59h-7a14.26,14.26,0,0,1,.85-1.56h5.25A14.9,14.9,0,0,0,142,8.15h-2.93a13.8,13.8,0,0,1,1.49-1.5,14.81,14.81,0,0,0-10-3.87Z"/><path id="use9412" class="cls-5" d="M163.89,25.41a.49.49,0,0,1,.24.06.44.44,0,0,1,.18.18.48.48,0,0,1,0,.48.45.45,0,0,1-.18.18.49.49,0,0,1-.48,0,.45.45,0,0,1-.18-.18.48.48,0,0,1,0-.48.45.45,0,0,1,.18-.18.5.5,0,0,1,.24-.06m0,.08a.41.41,0,0,0-.2.05.37.37,0,0,0-.15.15.4.4,0,0,0-.05.2.41.41,0,0,0,.05.2.39.39,0,0,0,.15.15.4.4,0,0,0,.4,0,.38.38,0,0,0,.15-.15.41.41,0,0,0,.05-.2.4.4,0,0,0-.05-.2.37.37,0,0,0-.15-.15.4.4,0,0,0-.2-.05m-.21.67v-.52H164a.13.13,0,0,1,.07,0,.13.13,0,0,1,0,.08.14.14,0,0,1,0,.1.16.16,0,0,1-.11,0l0,0,.08.1.06.1H164l0-.08a.42.42,0,0,0-.09-.12l-.07,0h0v.22h-.08m.08-.29h.1a.16.16,0,0,0,.1,0,.07.07,0,0,0,0-.06.07.07,0,0,0,0,0l0,0h-.18v.16"/></g><g id="g16480"><g id="g13802"><path id="path13804" class="cls-6" d="M135.51,21.91l.2-1.35c-.11,0-.27,0-.41,0-.55,0-.62-.29-.58-.51l.54-2.71h.84l.17-1.53h-.79l.16-.93H134s-.93,5.21-.93,5.83a1.17,1.17,0,0,0,1.26,1.34A4.16,4.16,0,0,0,135.51,21.91Z"/><path id="path13806" class="cls-6" d="M136,19.34a2.48,2.48,0,0,0,2.73,2.77,4.76,4.76,0,0,0,1.77-.27l.28-1.53a5.74,5.74,0,0,1-1.78.4c-1.7,0-1.4-1.27-1.4-1.27h3.27a11.37,11.37,0,0,0,.21-1.44,2.17,2.17,0,0,0-2.31-2.32C137.19,15.69,136,17.41,136,19.34Zm2.78-2.24c.89,0,.73,1,.73,1.09h-1.76C137.76,18.09,137.92,17.11,138.79,17.11Z"/><path id="path13808" class="cls-6" d="M148.81,21.91l.28-1.73a3.81,3.81,0,0,1-1.31.39,1.57,1.57,0,0,1-1.57-1.78c0-1.87,1-2.9,2-2.9a2.82,2.82,0,0,1,1.45.45l.26-1.68a3.15,3.15,0,0,0-1.59-.56c-2.47,0-3.89,1.71-3.89,4.69,0,2,1,3.32,2.94,3.32A7.32,7.32,0,0,0,148.81,21.91Z"/><path id="path13810" class="cls-6" d="M126.8,15.71a5.47,5.47,0,0,0-1.92.35l-.23,1.36a5,5,0,0,1,1.73-.28c.59,0,1,.07,1,.55a1,1,0,0,1-.05.4s-.47,0-.68,0c-1.55,0-2.81.58-2.81,2.35a1.5,1.5,0,0,0,1.53,1.71A2,2,0,0,0,127,21.4V22h1.39l.62-4.36A1.87,1.87,0,0,0,126.8,15.71Zm.24,3.54c0,.27-.07,1.52-1,1.52a.58.58,0,0,1-.62-.6c0-.43.24-1,1.4-1C127.07,19.23,127,19.25,127,19.25Z"/><path id="path13812" class="cls-6" d="M130.46,22.07c.36,0,2.39.09,2.39-2S131,18.48,131,17.69c0-.39.31-.52.87-.52.22,0,1.08.07,1.08.07l.2-1.4a7.38,7.38,0,0,0-1.46-.12c-1.17,0-2.36.47-2.36,2.07,0,1.81,2,1.63,2,2.39,0,.51-.55.55-1,.55a5.17,5.17,0,0,1-1.41-.24l-.21,1.38A5,5,0,0,0,130.46,22.07Z"/><path id="path13814" class="cls-6" d="M161.87,14.45l-.29,2.13a2.09,2.09,0,0,0-1.53-.82c-1.75,0-2.66,1.75-2.66,3.76,0,1.3.64,2.57,2,2.57a2,2,0,0,0,1.47-.66l-.07.56h1.54l1.21-7.53Zm-.68,4.14c0,.84-.41,2-1.27,2-.57,0-.84-.48-.84-1.23,0-1.23.55-2,1.25-2S161.19,17.67,161.19,18.59Z"/><path id="path13816" class="cls-6" d="M118.23,22l1-5.68.14,5.68h1.09l2-5.68-.9,5.68h1.62l1.25-7.54-2.57,0L120.32,19l0-4.6h-2.36L116.66,22h1.58Z"/><path id="path13818" class="cls-6" d="M142.62,22c.46-2.62.62-4.69,2-4.26a9.13,9.13,0,0,1,.86-2.33s-.07-.1-.48-.1c-.71,0-1.66,1.44-1.66,1.44l.14-.89H142L141,22h1.63Z"/><g id="use14699"><path id="path13810-2" data-name="path13810" class="cls-6" d="M152.12,15.71a5.47,5.47,0,0,0-1.92.35L150,17.43a5,5,0,0,1,1.72-.28c.59,0,1,.07,1,.55a1,1,0,0,1-.05.4s-.46,0-.68,0c-1.55,0-2.81.58-2.81,2.35a1.5,1.5,0,0,0,1.53,1.71,2,2,0,0,0,1.58-.71V22h1.39l.62-4.36A1.87,1.87,0,0,0,152.12,15.71Zm.24,3.54c0,.27-.07,1.52-1,1.52a.58.58,0,0,1-.62-.6c0-.43.24-1,1.4-1C152.39,19.23,152.32,19.25,152.37,19.25Z"/></g><path id="use14701" class="cls-6" d="M155.9,22c.25-1.93.72-4.63,2-4.26.19-1,0-1-.41-1a7.4,7.4,0,0,0-.87,0l.14-.89h-1.47l-1,6.14h1.63Z"/></g><g id="g10289"><path id="path4157" class="cls-7" d="M135.92,21.43l.2-1.35c-.11,0-.27,0-.41,0-.55,0-.61-.29-.58-.51l.45-2.75h.84l.2-1.49h-.79l.16-.93h-1.58s-.93,5.21-.93,5.83a1.17,1.17,0,0,0,1.26,1.34A4.16,4.16,0,0,0,135.92,21.43Z"/><path id="path4155" class="cls-7" d="M136.42,18.86a2.48,2.48,0,0,0,2.73,2.77,4,4,0,0,0,1.67-.26l.28-1.53a4.93,4.93,0,0,1-1.68.39c-1.7,0-1.4-1.27-1.4-1.27h3.22a11.39,11.39,0,0,0,.21-1.44,2.12,2.12,0,0,0-2.26-2.31C137.6,15.21,136.42,16.92,136.42,18.86Zm2.78-2.24c.89,0,.73,1,.73,1.09h-1.76C138.17,17.61,138.34,16.63,139.2,16.63Z"/><path id="path4151" class="cls-7" d="M149.22,21.43l.28-1.73a3.81,3.81,0,0,1-1.31.39,1.57,1.57,0,0,1-1.57-1.78c0-1.87,1-2.9,2-2.9a2.82,2.82,0,0,1,1.45.45l.26-1.68a5.68,5.68,0,0,0-1.78-.39c-1.83,0-3.61,1.59-3.61,4.56,0,2,1,3.28,2.85,3.28A7.3,7.3,0,0,0,149.22,21.43Z"/><path id="path4149" class="cls-7" d="M127.21,15.23a5.47,5.47,0,0,0-1.92.35l-.23,1.36a5,5,0,0,1,1.72-.28c.59,0,1,.07,1,.55a1,1,0,0,1-.05.4s-.46,0-.68,0c-1.37,0-2.81.58-2.81,2.35a1.5,1.5,0,0,0,1.53,1.71,2.06,2.06,0,0,0,1.62-.73l-.05.6h1.39l.62-4.36A1.87,1.87,0,0,0,127.21,15.23Zm.34,3.55c0,.27-.17,1.51-1.12,1.51a.58.58,0,0,1-.62-.6c0-.43.24-1,1.4-1A1,1,0,0,1,127.55,18.78Z"/><path id="path4145" class="cls-7" d="M130.87,21.59c.36,0,2.39.09,2.39-2s-1.89-1.58-1.89-2.37c0-.39.31-.52.87-.52.22,0,1.08.07,1.08.07l.2-1.4a7.38,7.38,0,0,0-1.46-.12c-1.17,0-2.36.47-2.36,2.07,0,1.81,2,1.63,2,2.39,0,.51-.55.55-1,.55A5.17,5.17,0,0,1,129.3,20l-.21,1.38A5,5,0,0,0,130.87,21.59Z"/><path id="path4139" class="cls-7" d="M162.33,14,162,16.1a2.09,2.09,0,0,0-1.53-.82C159,15.28,157.8,17,157.8,19c0,1.3.64,2.57,2,2.57a2,2,0,0,0,1.47-.66l-.07.56h1.54L163.92,14Zm-.74,4.13c0,.84-.41,2-1.27,2-.57,0-.84-.48-.84-1.23,0-1.23.55-2,1.25-2S161.6,17.19,161.6,18.11Z"/><path id="path4133" class="cls-7" d="M118.64,21.51l1-5.68.14,5.68h1.09l2-5.68-.9,5.68h1.62L124.84,14h-2.51l-1.56,4.62L120.69,14h-2.31l-1.27,7.54Z"/><path id="path4131" class="cls-7" d="M143,21.52c.46-2.62.55-4.75,1.65-4.36a6.09,6.09,0,0,1,.59-1.84,1.67,1.67,0,0,0-.31,0c-.71,0-1.23,1-1.23,1l.14-.89h-1.47l-1,6.14Z"/><g id="use8523"><path id="path4149-2" data-name="path4149" class="cls-7" d="M152.87,15.23a5.47,5.47,0,0,0-1.92.35l-.23,1.36a5,5,0,0,1,1.72-.28c.59,0,1,.07,1,.55a1,1,0,0,1-.05.4s-.46,0-.68,0c-1.37,0-2.81.58-2.81,2.35a1.5,1.5,0,0,0,1.53,1.71,2.06,2.06,0,0,0,1.62-.73l-.05.6h1.39l.62-4.36A1.87,1.87,0,0,0,152.87,15.23Zm.34,3.55c0,.27-.17,1.51-1.12,1.51a.58.58,0,0,1-.62-.6c0-.43.24-1,1.4-1A1,1,0,0,1,153.21,18.78Z"/></g><g id="use8525"><path id="path4131-2" data-name="path4131" class="cls-7" d="M156.32,21.52c.46-2.62.55-4.75,1.65-4.36a6.1,6.1,0,0,1,.59-1.84,1.67,1.67,0,0,0-.31,0c-.71,0-1.23,1-1.23,1l.14-.89h-1.47l-1,6.14Z"/></g><path id="text9407" class="cls-7" d="M163.89,20.58a.49.49,0,0,1,.24.06.43.43,0,0,1,.18.18.48.48,0,0,1,0,.48.45.45,0,0,1-.18.18.49.49,0,0,1-.48,0,.45.45,0,0,1-.18-.18.48.48,0,0,1,0-.48.44.44,0,0,1,.18-.18.49.49,0,0,1,.24-.06m0,.08a.41.41,0,0,0-.2.05.37.37,0,0,0-.15.15.4.4,0,0,0,0,.4.38.38,0,0,0,.15.15.4.4,0,0,0,.4,0,.38.38,0,0,0,.15-.15.4.4,0,0,0,0-.4.36.36,0,0,0-.15-.15.4.4,0,0,0-.2-.05m-.21.67V20.8H164a.13.13,0,0,1,.07,0,.13.13,0,0,1,0,.08.14.14,0,0,1,0,.1.16.16,0,0,1-.11,0l0,0,.08.1.06.1H164l0-.08a.42.42,0,0,0-.09-.12l-.07,0h0v.22h-.08m.08-.29h.1a.16.16,0,0,0,.1,0,.07.07,0,0,0,0-.06.07.07,0,0,0,0,0l0,0h-.18V21"/></g></g></g><g id="Layer_1"><path class="cls-7" d="M231.11,27.4A6.6,6.6,0,0,1,224.51,34H188.65V7.89a6.61,6.61,0,0,1,6.61-6.61h35.86V27.4h0Z"/><path class="cls-8" d="M219.42,18.22h3.17l0,0,0,0,0,0,0,0,0,0,0,0,0,0,0,0,0,0,0,0,0,0,0,0,0,.06,0,.06,0,.07,0,.09,0,.11a1.24,1.24,0,0,1,0,.15,1.33,1.33,0,0,1,0,.58,1.25,1.25,0,0,1,0,.15l0,.11,0,.09,0,.07,0,.06,0,.05,0,0,0,0,0,0,0,0,0,0,0,0,0,0,0,0,0,0,0,0,0,0,0,0h-3.17V18.22Zm3.67-2.82a1.26,1.26,0,0,1,0,.53,1.14,1.14,0,0,1,0,.15l0,.1,0,.08,0,.07,0,.06,0,.05,0,0,0,0,0,0,0,0,0,0,0,0,0,0,0,0,0,0,0,0h-2.94v-2.3h2.94l0,0,0,0,0,0,0,0,0,0,0,0,0,0,0,0,0,0,0,0,0,.05,0,.06,0,.07,0,.08,0,.1a1.14,1.14,0,0,1,0,.15Zm5.65-11.91h0V27.08c0,.14,0,.28,0,.42s0,.24,0,.36,0,.16,0,.24l0,.19,0,.16,0,.14,0,.13,0,.12,0,.11,0,.1,0,.1,0,.09,0,.09,0,.08,0,.08,0,.08,0,.07,0,.07,0,.07,0,.06,0,.06,0,.06,0,.06,0,.06,0,.05,0,.05,0,.05,0,.05,0,0,0,0,0,0,0,0,0,0,0,0,0,0,0,0,0,0,0,0,0,0,0,0,0,0,0,0,0,0,0,0,0,0,0,0,0,0,0,0,0,0,0,0,0,0,0,0,0,0,0,0,0,0,0,0,0,0,0,0,0,0,0,0,0,0,0,0,0,0,0,0,0,0,0,0,0,0,0,0,0,0,0,0,0,0h-8.43V22.18h8.57l0,0,0,0,0,0,0,0,0,0,0,0,0,0,0,0,0,0,0,0,0,0,0,0,0,0,0,0,0,0,0,0,0,0,0,0,0,0,0,0,0,0,0,0,0,0,0,0,0,0,0,0,0-.05,0-.05,0-.06,0-.06,0-.07,0-.07,0-.08,0-.09,0-.1,0-.12,0-.16a2.13,2.13,0,0,0,0-.24,2.28,2.28,0,0,0,0-.3,2.14,2.14,0,0,0,0-.3,2,2,0,0,0,0-.23l0-.15,0-.12,0-.1,0-.09,0-.08,0-.07,0-.06,0-.06,0-.06,0-.05,0,0,0,0,0,0,0,0,0,0,0,0,0,0,0,0,0,0,0,0,0,0,0,0,0,0,0,0,0,0,0,0,0,0,0,0,0,0,0,0,0,0,0,0,0,0,0,0,0,0,0,0h-1v-.05h.54l0,0,0,0,0,0,0,0,0,0,0,0,0,0,0,0,0,0,0,0,0,0,0,0,0,0,0,0,0,0,0,0,0,0,0,0,0,0,0,0,0,0,0,0,0,0,0,0,0-.05,0-.06,0-.06,0-.07,0-.07,0-.08,0-.09,0-.1,0-.12,0-.16a2.07,2.07,0,0,0,0-.27,2.15,2.15,0,0,0,0-.22c0-.08,0-.15,0-.23a2.1,2.1,0,0,0,0-.28l0-.16,0-.12,0-.1,0-.09,0-.08,0-.07,0-.06,0-.06,0-.06,0-.05,0,0,0,0,0,0,0,0,0,0,0,0,0,0,0,0,0,0,0,0,0,0,0,0,0,0,0,0,0,0,0,0,0,0,0,0,0,0,0,0,0,0,0,0,0,0h-8.2V8.21a4.74,4.74,0,0,1,.1-1l0-.2,0-.17,0-.15,0-.13,0-.12,0-.11,0-.1,0-.1,0-.09,0-.09,0-.08,0-.08,0-.08,0-.07,0-.07,0-.07,0-.07,0-.06,0-.06,0-.06,0-.06,0-.06,0-.05,0-.05,0-.05,0,0,0,0,0,0,0,0,0,0,0,0,0,0,0,0,0,0,0,0,0,0,0,0,0,0,0,0,0,0,0,0,0,0,0,0,0,0,0,0,0,0,0,0,0,0,0,0,0,0,0,0,0,0,0,0,0,0,0,0,0,0,0,0,0,0,0,0,0,0,0,0,0,0,0,0,0,0,0,0,0,0,0,0,0,0,0,0h8.38Z"/><path class="cls-9" d="M191.11,19.91l-.1,0V8.21a4.74,4.74,0,0,1,.1-1l0-.2,0-.17,0-.15,0-.13,0-.12,0-.11,0-.1,0-.1,0-.09,0-.09,0-.08,0-.08,0-.08,0-.07,0-.07,0-.07,0-.07,0-.06,0-.06,0-.06,0-.06,0-.06,0-.05,0-.05,0-.05,0,0,0,0,0,0,0,0,0,0,0,0,0,0,0,0,0,0,0,0,0,0,0,0,0,0,0,0,0,0,0,0,0,0,0,0,0,0,0,0,0,0,0,0,0,0,0,0,0,0,0,0,0,0,0,0,0,0,0,0,0,0,0,0,0,0,0,0,0,0,0,0,0,0,0,0,0,0,0,0,0,0,0,0,0,0,0,0h8.4V27.08a4.77,4.77,0,0,1,0,.61c0,.1,0,.19,0,.28l0,.21,0,.18,0,.15,0,.14,0,.12,0,.11,0,.11,0,.1,0,.09,0,.09,0,.08,0,.08,0,.08,0,.07,0,.07,0,.07,0,.07,0,.06,0,.06,0,.06,0,.06,0,.06,0,.05,0,.05,0,.05,0,0,0,0,0,0,0,0,0,0,0,0,0,0,0,0,0,0,0,0,0,0,0,0,0,0,0,0,0,0,0,0,0,0,0,0,0,0,0,0,0,0,0,0,0,0,0,0,0,0,0,0,0,0,0,0,0,0,0,0,0,0,0,0,0,0,0,0,0,0,0,0,0,0,0,0,0,0,0,0,0,0,0,0,0,0,0,0H191V21.85l.1,0h8l0,0,0,0,0,0,0,0,0,0,0,0,0,0,0,0,0,0,0,0,0,0,0,0,0,0,0,0,0,0,0,0,0,0,0,0,0,0,0,0,0,0,0,0,0,0,0,0,0,0,0,0,0,0,0,0,0,0,0,0,0,0,0,0,0,0,0,0,0,0,0,0,0,0,0,0,0,0,0-.05,0-.05,0-.05,0-.06,0-.06,0-.06,0-.07,0-.07,0-.08,0-.08,0-.09,0-.1,0-.11,0-.12,0-.14,0-.17q0-.11,0-.21t0-.33q0-.23,0-.47V13.11h-4.06v5.47q0,.13,0,.25a2.62,2.62,0,0,1,0,.31l0,.18,0,.14,0,.12,0,.1,0,.09,0,.08,0,.07,0,.07,0,.06,0,.06,0,.05,0,0,0,0,0,0,0,0,0,0,0,0,0,0,0,0,0,0,0,0,0,0,0,0,0,0,0,0,0,0,0,0,0,0,0,0,0,0,0,0,0,0h-3.59l0,0,0,0,0,0,0,0,0,0,0,0,0,0,0,0,0,0,0,0,0,0,0,0,0,0,0,0,0,0,0,0,0,0,0,0,0,0,0,0,0,0,0,0,0,0,0,0,0,0,0,0,0,0,0,0,0,0,0,0,0,0h0Z"/><path class="cls-10" d="M204.16,14.3l-.1.08V8.21a4.74,4.74,0,0,1,.1-1l0-.2,0-.17,0-.15,0-.13,0-.12,0-.11,0-.1,0-.1,0-.09,0-.09,0-.08,0-.08,0-.08,0-.07,0-.07,0-.07,0-.07,0-.06,0-.06,0-.06,0-.06,0-.06,0-.05,0-.05,0-.05,0,0,0,0,0,0,0,0,0,0,0,0,0,0,0,0,0,0,0,0,0,0,0,0,0,0,0,0,0,0,0,0,0,0,0,0,0,0,0,0,0,0,0,0,0,0,0,0,0,0,0,0,0,0,0,0,0,0,0,0,0,0,0,0,0,0,0,0,0,0,0,0,0,0,0,0,0,0,0,0,0,0,0,0,0,0,0,0h8.4V27.08a4.76,4.76,0,0,1,0,.61c0,.1,0,.19,0,.28l0,.21,0,.18,0,.15,0,.14,0,.12,0,.11,0,.11,0,.1,0,.09,0,.09,0,.08,0,.08,0,.08,0,.07,0,.07,0,.07,0,.07,0,.06,0,.06,0,.06,0,.06,0,.06,0,.05,0,.05,0,.05,0,0,0,0,0,0,0,0,0,0,0,0,0,0,0,0,0,0,0,0,0,0,0,0,0,0,0,0,0,0,0,0,0,0,0,0,0,0,0,0,0,0,0,0,0,0,0,0,0,0,0,0,0,0,0,0,0,0,0,0,0,0,0,0,0,0,0,0,0,0,0,0,0,0,0,0,0,0,0,0,0,0,0,0,0,0,0,0h-8.42V20.9l.1.08,0,0,0,0,0,0,0,0,0,0,0,0,0,0,0,0,0,0,0,0,0,0,0,0,0,0,0,0,0,0,0,0,0,0,0,0,0,0,0,0,0,0,0,0,0,0,0,0,0,0,0,0,0,0,0,0,0,0,0,0,0,0,0,0,0,0,0,0,0,0,0,0,0,0,0,0,0,0,0,0h8.41v-2l0,0,0,0,0,0,0,0,0,0,0,0,0,0,0,0,0,0,0,0,0,0,0,0,0,0,0,0,0,0,0,0,0,0,0,0,0,0,0,0,0,0,0,0,0,0,0,0,0,0,0,0,0,0,0,0,0,0,0,0,0,0,0,0,0,0h-4l0,0,0,0,0,0,0,0,0,0,0,0,0,0,0,0,0,0,0,0,0,0,0,0,0,0,0,0,0,0,0,0,0,0,0,0,0,0,0,0,0,0,0,0,0,0,0,0,0,0,0,0,0,0,0,0,0,0,0-.05,0-.05,0-.06,0-.06,0-.06,0-.07,0-.07,0-.08,0-.08,0-.09,0-.1,0-.11,0-.12,0-.14,0-.17q0-.11,0-.22t0-.33q0-.2,0-.41t0-.41q0-.17,0-.33t0-.22l0-.17,0-.14,0-.12,0-.11,0-.1,0-.09,0-.08,0-.08,0-.07,0-.07,0-.06,0-.06,0-.06,0-.05,0-.05,0,0,0,0,0,0,0,0,0,0,0,0,0,0,0,0,0,0,0,0,0,0,0,0,0,0,0,0,0,0,0,0,0,0,0,0,0,0,0,0,0,0,0,0,0,0,0,0,0,0,0,0,0,0,0,0,0,0h4l0,0,0,0,0,0,0,0,0,0,0,0,0,0,0,0,0,0,0,0,0,0,0,0,0,0,0,0,0,0,0,0,0,0,0,0,0,0,0,0,0,0,0,0,0,0,0,0,0,0,0,0,0,0,0,0,0,0,0,0,0,0,0,0,0,0v-2H206l0,0,0,0,0,0,0,0,0,0,0,0,0,0,0,0,0,0,0,0,0,0,0,0,0,0,0,0,0,0,0,0,0,0,0,0,0,0,0,0,0,0,0,0,0,0,0,0,0,0,0,0,0,0,0,0,0,0,0,0,0,0,0,0,0,0,0,0,0,0,0,0,0,0,0,0,0,0,0,0h0Z"/></g><path id="path22" class="cls-11" d="M292.18,4.27H281.84a4,4,0,0,0-3.5,2.58l-4.88,21.59a2,2,0,0,0,2,2.59h10.84a3.45,3.45,0,0,0,3-2.58l4.88-21.59a2,2,0,0,0-2-2.59"/><path id="path20" class="cls-12" d="M273.45,28.44l4.88-21.59a4,4,0,0,1,3.5-2.58H270.34a4,4,0,0,0-3.53,2.59l-4.88,21.59a2,2,0,0,0,2,2.59h11.52a2,2,0,0,1-2-2.59"/><path id="path16-2" data-name="path16" class="cls-13" d="M261.93,28.44l4.88-21.59a4,4,0,0,1,3.53-2.59h-9.47a4,4,0,0,0-3.59,2.59l-4.88,21.59a2.7,2.7,0,0,0-.06.39v.4a2,2,0,0,0,2,1.8h9.53a2,2,0,0,1-2-2.59"/><path id="path24" class="cls-7" d="M270.54,20h.18a.33.33,0,0,0,.33-.16l.47-.7h1.25l-.26.46H274l-.19.7H272a.83.83,0,0,1-.76.44h-.93l.2-.74m-.2,1h3.28l-.21.76h-1.32l-.2.74h1.28l-.21.76h-1.28l-.3,1.09c-.07.18,0,.26.29.25h1l-.19.71h-2q-.57,0-.39-.65l.38-1.39h-.82l.21-.76h.82l.2-.74h-.78Zm5.23-1.87-.05.45a2.4,2.4,0,0,1,1.18-.46h2.07L278,22q-.1.49-.85.49h-2.35l-.55,2c0,.11,0,.16.13.16h.46l-.17.63h-1.18q-.68,0-.56-.41l1.56-5.74h1.1Zm1.76.81h-1.85l-.22.77a1.54,1.54,0,0,1,.82-.23h1.1Zm-.67,1.8c.14,0,.21,0,.22-.16l.11-.41h-1.85l-.16.57Zm-1.25.93h1.07l0,.46h.28c.14,0,.22,0,.22-.14l.08-.3h.89l-.12.44a.77.77,0,0,1-.8.57h-.57v.79c0,.13.1.19.34.19h.53l-.17.63h-1.28c-.36,0-.54-.15-.53-.52l.08-2.12"/><path id="path28" class="cls-7" d="M262.46,15.3a2.61,2.61,0,0,1-1,1.64,3.28,3.28,0,0,1-2,.57,2.19,2.19,0,0,1-1.69-.59,1.53,1.53,0,0,1-.37-1.06,2.83,2.83,0,0,1,.06-.57l.87-4.19h1.31l-.86,4.14a1.33,1.33,0,0,0,0,.32.81.81,0,0,0,.16.52.9.9,0,0,0,.76.3,1.58,1.58,0,0,0,1-.3,1.37,1.37,0,0,0,.5-.84l.86-4.14h1.31l-.87,4.19"/><path id="path34" class="cls-7" d="M268,13.66h1l-.8,3.74h-1l.8-3.74m.32-1.36h1l-.19.91h-1l.19-.91"/><path id="path36" class="cls-7" d="M269.9,17.11a1.38,1.38,0,0,1-.41-1,2.43,2.43,0,0,1,0-.25c0-.09,0-.19,0-.27a2.54,2.54,0,0,1,.78-1.45,2.09,2.09,0,0,1,1.44-.54,1.52,1.52,0,0,1,1.1.39,1.4,1.4,0,0,1,.4,1.06,2.56,2.56,0,0,1,0,.26c0,.1,0,.19,0,.28a2.47,2.47,0,0,1-.78,1.42,2.11,2.11,0,0,1-1.44.53,1.53,1.53,0,0,1-1.1-.38m2-.74a1.82,1.82,0,0,0,.39-.89c0-.06,0-.13,0-.19a1.72,1.72,0,0,0,0-.18.76.76,0,0,0-.18-.54.64.64,0,0,0-.5-.19.9.9,0,0,0-.7.3,1.88,1.88,0,0,0-.39.91l0,.18a1.34,1.34,0,0,0,0,.17.74.74,0,0,0,.18.53.65.65,0,0,0,.5.19.9.9,0,0,0,.7-.3"/><path id="path14-2" data-name="path14" class="cls-14" d="M281.86,4.26h0"/><path id="path18-2" data-name="path18" class="cls-15" d="M277.74,4.26h0"/><path id="path26" class="cls-7" d="M279.94,20l.25-.87h1.25l-.05.32a3.15,3.15,0,0,1,1.1-.32H284l-.25.87h-.24l-1.17,4.11h.24l-.23.82h-.24l-.1.35h-1.21l.1-.35h-2.39l.23-.82H279L280.19,20h-.24m1.35,0L281,21.14a5.21,5.21,0,0,1,1-.27c.1-.39.24-.84.24-.84Zm-.47,1.63-.32,1.17a3.48,3.48,0,0,1,1-.32c.12-.45.24-.84.24-.84Zm.23,2.48.24-.85h-.94l-.24.85Zm3-5h1.18l0,.43c0,.11.06.16.2.16h.21l-.21.74h-.87c-.33,0-.5-.11-.52-.38Zm-.35,1.58h3.82l-.22.79h-1.21l-.21.73h1.21l-.23.79h-1.35l-.31.46h.66l.15.93c0,.09.1.14.24.14h.21l-.22.76h-.73c-.38,0-.57-.11-.59-.38l-.18-.85-.6.9a.65.65,0,0,1-.66.35h-1.11l.22-.76H283a.46.46,0,0,0,.37-.19L284.3,23h-1.21l.23-.79h1.32l.21-.73h-1.32l.23-.79"/><path id="path30" class="cls-7" d="M263.66,13.65h.93l-.11.54.13-.15a1.44,1.44,0,0,1,1.1-.48,1,1,0,0,1,.85.34,1.14,1.14,0,0,1,.14.95l-.51,2.55h-1l.46-2.31a.74.74,0,0,0,0-.53.45.45,0,0,0-.41-.17.89.89,0,0,0-.62.23,1.13,1.13,0,0,0-.33.63l-.42,2.15h-1l.75-3.74"/><path id="path32" class="cls-7" d="M274.29,13.65h.93l-.11.54.13-.15a1.45,1.45,0,0,1,1.1-.48,1,1,0,0,1,.85.34,1.13,1.13,0,0,1,.14.95l-.51,2.55h-1l.46-2.31a.74.74,0,0,0,0-.53.45.45,0,0,0-.41-.17.9.9,0,0,0-.62.23,1.12,1.12,0,0,0-.33.63l-.43,2.15h-1l.75-3.74"/><path id="path38" class="cls-7" d="M278.88,11.34h2.69a1.82,1.82,0,0,1,1.19.35,1.25,1.25,0,0,1,.41,1h0c0,.08,0,.18,0,.28s0,.2-.05.31a2.37,2.37,0,0,1-.82,1.39,2.32,2.32,0,0,1-1.51.53h-1.44l-.45,2.19h-1.25l1.24-6.06m.67,2.82h1.2a1.16,1.16,0,0,0,.74-.22,1.13,1.13,0,0,0,.36-.67l0-.15s0-.09,0-.13a.51.51,0,0,0-.23-.47,1.37,1.37,0,0,0-.72-.15h-1l-.36,1.78"/><path id="path40" class="cls-7" d="M288.77,18.12a5.9,5.9,0,0,1-1,1.56,2,2,0,0,1-1.72.71l.09-.64c.89-.27,1.37-1.51,1.64-2.06l-.33-4h1.26l.06,2.53,1.08-2.53H291l-2.2,4.46"/><path id="path42" class="cls-7" d="M285.71,14l-.43.3a1.37,1.37,0,0,0-1.67-.2c-1.09.51-2,4.39,1,3.11l.17.2,1.18,0,.78-3.53-1,.09M285,15.89c-.19.56-.61.93-.95.82s-.45-.64-.26-1.2.62-.93.95-.82.45.64.26,1.2"/></svg>