<svg xmlns="http://www.w3.org/2000/svg" xmlns:xlink="http://www.w3.org/1999/xlink" viewBox="0 0 50 50"><defs><style>.cls-1{fill:#d72b27;}.cls-2{fill:#e3e3e3;}.cls-3{fill:#231f20;opacity:0.1;isolation:isolate;}.cls-4{fill:#d54b3d;}.cls-5{fill:url(#未命名漸層_2);}</style><linearGradient id="未命名漸層_2" x1="-743.48" y1="628.84" x2="-743.35" y2="628.84" gradientTransform="matrix(253.16, 0, 0, -174.83, 188227.26, 109969.17)" gradientUnits="userSpaceOnUse"><stop offset="0" stop-opacity="0.1"/><stop offset="1" stop-opacity="0.2"/></linearGradient></defs><title>social_mail</title><g id="icon_social"><circle class="cls-1" cx="25" cy="25" r="24.5"/><path class="cls-2" d="M39.29,36.16H10.67a2,2,0,0,1-2-1.84V15.76a2,2,0,0,1,2-1.84H39.29a2,2,0,0,1,2,1.84V34.33a1.94,1.94,0,0,1-2,1.84Z"/><path class="cls-3" d="M12.72,36.16,25,27.32l.09-.47L12.42,18.69l0,17.07Z"/><path class="cls-4" d="M10.67,36.16a1.94,1.94,0,0,1-2-1.84V15.73c0-1,.91-1.21,2-1.21s2,.21,2,1.21V36.16Z"/><path class="cls-1" d="M10.67,14.79c1.46,0,1.75.39,1.75.94V35.9H10.67a1.67,1.67,0,0,1-1.75-1.57V15.73c0-.58.29-.94,1.75-.94Zm0-.26c-1.14,0-2,.21-2,1.21v18.6a1.94,1.94,0,0,0,2,1.84h2V15.73c0-1-.91-1.21-2-1.21Z"/><path class="cls-4" d="M39.29,36.16h-2V15.68c0-1,.91-1.15,2-1.15s2,.13,2,1.15V34.35a1.93,1.93,0,0,1-2,1.81Z"/><path class="cls-1" d="M39.29,14.79c1.31,0,1.75.24,1.75.89V34.35a1.67,1.67,0,0,1-1.75,1.57H37.54V15.68c0-.68.44-.89,1.75-.89Zm0-.26c-1.14,0-2,.13-2,1.15V36.19h2a1.94,1.94,0,0,0,2-1.84V15.68c0-1-.91-1.15-2-1.15Z"/><path class="cls-5" d="M30.53,36.16,8.8,16.49l1.14.42,15.12,9.78L41.33,16V34.35a1.93,1.93,0,0,1-2,1.81Z"/><path class="cls-4" d="M25,27.32,9.5,17.25A1.74,1.74,0,0,1,9,14.68a2.28,2.28,0,0,1,2.92-.39L25,22.81l13.14-8.63A2.18,2.18,0,0,1,41,14.6a1.71,1.71,0,0,1-.47,2.57L25,27.32Z"/><path class="cls-1" d="M39.29,14.08h0a1.86,1.86,0,0,1,1.43.66,1.5,1.5,0,0,1-.38,2.2L25,27,9.68,17a1.5,1.5,0,0,1-.44-2.2,1.92,1.92,0,0,1,1.46-.66,1.82,1.82,0,0,1,1.05.31l13,8.5.18.1.18-.1,13.11-8.63a2.09,2.09,0,0,1,1.05-.29Zm0-.26a2.17,2.17,0,0,0-1.2.34L25,22.79,11.9,14.26A2.31,2.31,0,0,0,9,14.68a1.76,1.76,0,0,0,.53,2.57L25,27.35,40.48,17.17A1.75,1.75,0,0,0,41,14.6a2.08,2.08,0,0,0-1.66-.79Z"/></g></svg>